<svg width="365" height="327" viewBox="0 0 365 327" fill="none" xmlns="http://www.w3.org/2000/svg">
<path fill-rule="evenodd" clip-rule="evenodd" d="M0.748761 137.156C0.279638 104.963 32.8138 83.6595 54.0786 59.4954C73.0732 37.9111 90.2545 13.1309 117.623 4.34728C144.916 -4.41208 173.178 5.95442 201.129 12.3014C232.231 19.3634 263.8 23.9673 289.172 43.3004C321.687 68.0754 365.902 95.6741 364.167 136.531C362.419 177.686 311.017 195.517 281.488 224.22C258.209 246.847 238.354 271.124 209.806 286.57C175.504 305.129 136.419 338.567 101.234 321.746C65.0328 304.44 75.5098 248.449 56.3183 213.194C40.9311 184.928 1.21774 169.34 0.748761 137.156Z" fill="#EDEDED"/>
<path fill-rule="evenodd" clip-rule="evenodd" d="M232.927 179.432C232.394 187.259 221.773 191.328 215.331 192.998C216.623 185.32 218.29 177.36 217.252 169.573C216.911 167.008 216.463 164.457 215.981 161.915C215.803 160.975 215.62 160.036 215.43 159.098C215.383 158.87 215.01 157.872 215.129 157.645C215.342 157.238 217.144 157.302 217.603 157.32C218.786 157.365 219.947 157.664 221.029 158.137C223.305 159.13 225.222 160.841 226.801 162.728C230.525 167.18 233.33 173.53 232.927 179.432ZM220.631 126.227C214.466 129.878 207.039 131.837 200.006 132.792C189.293 134.247 178.355 132.572 167.881 130.251C165.31 129.681 162.744 129.067 160.21 128.346C160.096 135.769 162.184 142.827 166.262 149.018C169.634 154.135 174.034 158.413 177.881 163.153C181.461 167.566 184.349 172.545 184.493 178.369C184.552 180.8 184.352 183.025 182.317 184.6C180.272 186.183 177.509 186.77 175.006 187.13C168.74 188.034 162.176 187.545 155.949 186.551C154.739 186.358 153.532 186.138 152.339 185.863C150.984 185.552 150.509 185.184 149.378 186.201C146.936 188.396 145.815 191.688 145.262 194.837C144.225 200.734 144.577 207.614 146.071 213.433C147.511 219.038 154.305 222.144 159.338 223.499C174.52 227.584 191.27 221.942 202.919 211.897C203.173 211.678 203.425 211.456 203.671 211.228C204.498 212.951 205.402 214.644 206.389 216.28C207.076 217.418 207.799 218.562 208.666 219.576C208.979 219.941 209.346 220.436 209.773 220.676C210.57 221.121 211.379 220.794 212.28 220.637C218.929 219.483 225.563 217.964 231.885 215.573C241.496 211.938 250.116 205.95 254.672 196.49C256.973 191.712 258.173 186.476 258.753 181.226C259.42 175.198 259.564 169.035 257.867 163.159C254.759 152.392 246.827 143.663 238.142 136.93C232.768 132.764 226.859 128.999 220.631 126.227Z" fill="#0075FF"/>
<path fill-rule="evenodd" clip-rule="evenodd" d="M329.271 54.9235C327.866 55.482 326.353 55.6374 324.858 55.7466C323.685 55.8323 322.765 56.3025 321.66 56.329C318.583 56.4024 315.493 56.5405 312.431 57.0004C309.356 57.4622 306.524 56.8589 304.096 59.1695C303.232 59.9917 302.148 60.937 302.667 62.2641C302.906 62.8717 303.241 63.3077 303.439 63.9601C303.663 64.6975 303.941 65.3941 304.265 66.0964C304.885 67.4431 307.994 72.4588 305.471 73.0724C302.737 73.7374 299.028 72.9601 296.394 72.1991C294.857 71.7552 293.344 71.2349 291.829 70.7222C290.63 70.3165 289.054 70.0864 287.949 69.4509C287.216 69.0289 287.065 68.309 286.58 67.6251C285.699 66.3809 284.875 65.3214 283.737 64.2862C281.375 62.1389 278.421 60.681 275.509 59.3996C275.321 59.3163 274.978 59.1227 274.775 59.1035C274.556 59.0832 274.314 59.309 274.172 59.2814C273.784 59.2061 273.649 58.9617 273.224 58.7203C272.653 58.3962 270.325 57.3175 269.918 58.1655C270.299 57.0515 270.577 57.3729 271.608 57.5346C272.062 57.6063 272.366 57.3982 272.774 57.4191C273.15 57.438 273.304 57.6522 273.618 57.7099C274.194 57.8155 274.73 57.7358 275.33 57.7315C275.492 57.3753 275.721 57.3779 276.017 57.7392C276.183 57.7929 276.349 57.8464 276.514 57.9005C277.112 58.0646 277.752 58.033 278.364 58.0812C279.284 58.1542 281.681 59.2758 282.143 58.1406C282.635 56.9283 281.14 56.6262 280.89 55.7802C280.647 54.9501 281.786 54.463 282.243 53.962C282.764 53.3919 283.082 52.8915 283.693 52.3895C284.051 52.0946 284.52 51.82 284.785 51.4272C285.029 51.066 285.019 50.482 285.335 50.1811C285.713 49.8222 285.771 50.0706 286.114 49.8972C286.787 49.5566 286.49 49.5738 286.888 49.1083C287.229 48.7106 287.48 48.7225 287.926 48.4177C288.578 47.9711 288.807 47.0987 289.441 46.6188C289.904 46.2675 290.643 46.2681 291.049 45.9032C291.289 45.6883 291.215 45.34 291.422 45.1371C291.82 44.7472 292.092 44.9056 292.589 44.7771C293.426 44.5603 293.697 44.0976 294.313 43.5618C294.876 43.0725 295.233 43.0747 295.938 42.8718C296.901 42.5948 297.523 41.8693 298.391 41.443C299.21 41.042 300.054 40.7609 300.882 40.3337C301.479 40.0251 302.055 39.8336 302.601 39.5187C302.785 39.4125 302.801 39.0233 303.039 38.9706C303.312 38.9098 303.53 39.3634 303.82 39.3872C304.428 39.4372 305.121 38.7622 305.521 38.3715C305.695 38.2017 305.929 37.7426 306.153 37.6478C306.62 37.4491 306.899 37.8426 307.316 37.6872C307.901 37.4693 307.668 36.8311 308.026 36.4791C308.339 36.1721 309.005 36.1929 309.561 36.2901C311.803 36.6808 308.314 38.2643 307.658 38.5846C306.555 39.1241 298.527 43.0485 300.405 45.0056C301.399 46.0408 303.825 45.2623 304.905 44.9896C306.799 44.5112 308.773 43.5903 310.715 43.379C310.955 43.3528 311.672 43.5247 311.867 43.4498C312.308 43.2809 312.198 42.9431 312.557 42.7655C313.097 42.4988 314.2 42.5117 314.749 42.5716C315.177 42.6186 315.647 42.8745 316.082 42.8399C316.563 42.8016 317.027 42.5223 317.503 42.4323C318.318 42.2787 319.162 42.354 319.985 42.3778C321.168 42.4124 323.535 42.5912 321.815 44.1638C320.423 45.4366 318.015 45.9875 316.259 46.543C313.662 47.3639 311.11 48.1109 308.546 49.0463C306.799 49.6831 303.072 50.802 305.152 53.19C305.358 52.9961 305.563 52.8025 305.768 52.6086C306.011 52.854 306.261 53.3314 306.65 53.3454C306.973 53.3567 306.854 53.0094 307.16 52.9008C308.121 52.5598 309.437 52.5857 310.451 52.5216C312.988 52.3609 315.517 52.0246 318.058 51.9203C320.451 51.8224 322.87 51.9499 325.216 52.4519C325.82 52.5811 331.447 54.0589 329.271 54.9235ZM308.518 79.4776C308.646 80.5434 308.173 81.4057 308.041 82.4353C307.883 83.6801 307.999 84.7765 307.646 86.014C306.96 88.4195 306.472 90.8805 305.736 93.2721C304.436 97.4949 302.338 101.224 300.18 105.056C299.079 107.009 297.421 108.622 295.906 110.256C294.353 111.93 293.113 113.579 291.257 114.953C287.548 117.701 283.545 120.145 279.154 121.63C274.558 123.184 269.725 123.655 264.897 123.457C262.755 123.37 260.484 123.587 258.375 123.24C256.134 122.871 253.704 122.419 251.501 121.874C247.456 120.876 243.559 119.181 239.609 117.667C235.197 115.976 231.226 113.817 227.203 111.379C226.139 110.734 225.014 110.433 224.016 109.652C223.174 108.994 222.346 108.365 221.462 107.764C220.446 107.074 219.474 106.321 218.436 105.666C217.816 105.274 216.944 104.891 216.618 104.182C216.171 103.207 216.71 101.982 216.989 101.036C217.353 99.8049 217.739 98.589 218.176 97.382C218.915 95.3384 220.797 92.1864 219.762 90.0259C217.58 91.3776 216.618 94.0348 215.685 96.2936C214.571 98.9924 213.794 101.684 213.626 104.611C213.288 110.499 214.273 116.696 216.409 122.186C216.727 123.001 217.284 123.885 216.874 124.757C216.445 125.672 215.278 126.445 214.381 126.841C211.544 128.093 208.695 128.457 205.732 129.149C204.925 129.338 204.042 129.904 203.285 129.975C202.774 130.023 202.352 129.856 201.766 129.86C201.179 129.864 200.719 130.193 200.193 130.228C199.734 130.259 199.326 129.99 198.888 130.016C197.909 130.073 197.728 131.752 197.242 130.274C197.154 130.334 196.668 130.886 196.607 130.886C196.469 130.886 196.224 130.475 196.092 130.402C195.835 130.259 195.495 130.251 195.207 130.214C194.572 130.131 193.887 130.123 193.261 130.269C192.101 130.539 190.935 130.425 189.943 130.406C189.717 130.401 189.557 130.583 189.277 130.572C189.149 130.567 188.965 130.341 188.829 130.306C188.045 130.104 187.231 130.255 186.432 130.211C184.555 130.107 182.743 130.057 180.911 129.642C177.155 128.792 173.325 128.622 169.554 127.844C167.633 127.447 165.757 127.231 163.865 126.709C163.2 126.525 162.519 126.439 161.93 126.188C161.368 125.949 161.589 125.63 160.716 126.27C160.324 125.309 160.277 125.407 159.33 125.089C158.964 124.966 158.123 124.661 157.85 124.419C157.823 124.394 157.24 122.931 157.19 122.751C156.948 121.877 157.15 120.878 157.251 119.999C157.48 118.016 157.81 116.048 157.83 114.05C157.839 113.168 157.998 113.143 158.272 112.478C158.357 112.272 158.606 112.289 158.627 111.975C158.655 111.557 158.227 111.266 158.273 110.778C158.335 110.121 158.994 109.456 159.226 108.844C159.504 108.107 159.5 107.328 159.666 106.565C159.888 105.551 160.317 104.598 160.533 103.579C160.717 102.716 160.735 102.03 161.195 101.29C161.654 100.551 161.519 99.9473 161.885 99.2112C162.221 98.5362 162.646 98.2938 162.876 97.4787C163.433 95.5067 164.28 93.5544 165.479 91.8826C166.534 96.0745 167.657 100.406 170.594 103.719C171.804 105.083 173.365 106.46 175.19 106.875C177.252 107.345 178.902 106.129 180.245 104.688C183.445 101.254 184.77 97.4202 184.964 92.7638C185.012 91.6063 185.005 90.4472 184.989 89.2891C184.982 88.7738 184.718 87.451 185.071 87.0177C185.458 86.5425 186.563 86.8394 187.138 86.5263C187.845 86.1405 188.622 85.1088 188.307 84.2582C190.191 85.1115 191.993 86.2347 194.089 86.4725C194.919 86.5668 195.802 86.4233 196.544 86.3838C196.522 86.3848 197.119 86.5067 197.155 86.5147C197.302 86.345 197.461 86.3038 197.632 86.3908C197.785 86.4071 197.896 86.4888 197.965 86.6365C200.953 86.935 203.96 85.4588 206.517 83.8953C208.011 82.9815 209.652 81.6291 210.072 79.8505C210.221 79.2159 210.092 78.618 210.748 78.2942C211.281 78.0306 212.31 78.4108 212.873 78.4519C214.851 78.597 216.801 78.4091 218.733 78.9988C219.911 79.3587 221.969 81.8805 222.791 80.1064C223.148 80.4411 222.954 81.0371 223.334 81.3629C223.665 81.6467 224.778 81.8466 225.235 82.0897C225.944 82.4655 226.36 82.9659 226.98 83.4178C227.743 83.9733 228.54 84.0161 229.279 84.6679C231.835 86.925 234.829 88.56 237.683 90.432C241.07 92.6526 244.067 95.2703 247.7 97.0815C251.417 98.9336 255.013 100.481 259.074 101.444C260.916 101.882 262.805 102.247 264.696 102.381C265.588 102.445 266.439 102.413 267.299 102.68C267.822 102.843 267.991 102.924 268.504 102.939C268.804 102.948 269.236 102.775 269.605 102.782C270.362 102.795 270.748 102.764 271.431 103.015C272.204 103.298 272.846 103.468 273.726 103.492C274.738 103.521 275.334 103.132 276.254 102.892C276.995 102.699 277.662 102.791 278.325 102.39C281.273 100.607 283.641 97.8841 285.187 94.7929C286.962 91.2451 288.329 86.9201 288.607 82.9443C288.767 80.6686 288.265 78.4493 287.396 76.3598C287.15 75.7705 285.679 73.26 286.132 72.8041C286.647 72.2858 288.329 73.4735 288.804 73.7314C290.309 74.5496 293.027 74.8115 294.082 76.1878C294.351 75.6722 295.845 76.4365 296.325 76.6517C296.721 76.8296 296.834 77.1514 297.333 77.1899C297.803 77.2261 298.288 76.8512 298.72 76.7317C298.404 77.6126 299.466 77.6537 300.193 77.7006C300.717 77.7341 301.28 77.6517 301.746 77.6185C302.639 77.5551 302.654 77.3546 303.469 76.897C303.437 77.2321 303.474 77.5594 303.578 77.8788C304.102 77.1202 305.102 77.6471 305.81 77.3137C305.298 76.5371 307.484 76.3243 307.993 76.4876C309.273 76.899 308.405 78.5333 308.518 79.4776ZM208.208 132.857C209.053 132.605 209.904 132.374 210.752 132.134C210.109 132.723 209.442 133.787 208.525 133.953C207.419 134.152 206.983 133.222 208.208 132.857ZM166.476 133.279C167.9 133.45 169.449 133.319 170.697 134.159C170.089 134.859 169.694 135.591 168.68 135.19C167.828 134.853 167.127 133.893 166.476 133.279ZM214.02 171.572C213.086 170.734 213.209 170.359 213.647 169.274C213.836 168.807 214.135 167.357 214.844 167.782C215.096 167.933 215.401 169.513 215.446 169.834C215.546 170.549 215.103 172.543 214.02 171.572ZM219.29 166.705C218.96 165.492 218.972 164.171 218.647 162.928C218.305 161.616 217.884 160.299 217.762 158.943C222.7 159.815 225.504 164.715 227.643 168.804C228.779 170.977 229.893 173.38 230.322 175.809C230.74 178.177 230.014 179.974 229.171 182.083C228.742 183.16 228.031 183.534 227.202 184.245C226.468 184.876 226.192 185.94 225.427 186.506C224.861 186.925 224.126 187.142 223.535 187.565C222.95 187.982 222.366 188.396 221.763 188.786C221.073 189.231 219.007 190.855 218.077 190.509C217.38 190.25 217.69 189.397 217.866 188.862C218.236 187.735 218.495 186.65 218.723 185.476C219.333 182.341 219.663 179.226 219.821 176.038C219.975 172.925 220.118 169.744 219.29 166.705ZM215.161 180.843C215.235 180.997 215.543 182.313 214.855 182.043C214.377 181.854 215.091 181.085 215.161 180.843ZM218.07 128.597C218.653 128.357 218.886 129.069 219.398 129.09C220.078 129.118 220.221 128.362 220.935 128.34C222.679 128.285 225.207 129.971 226.626 130.851C225.932 131.729 225.645 132.627 225.99 133.709C226.295 134.661 227.457 135.726 227.415 136.736C227.371 137.748 226.113 138.4 225.721 139.3C225.36 140.127 225.223 141.781 226.336 142.146C228.25 142.773 228.688 139.187 230.139 139.159C230.759 139.148 231.565 140.314 232.011 140.677C233.01 141.49 234.137 142.084 235.299 142.624C236.083 142.988 237.175 143.706 237.756 142.727C238.222 141.943 237.841 140.699 237.388 140.024C236.869 139.25 232.213 135.706 232.507 135.394C232.663 135.227 233.823 135.686 233.987 135.826C234.358 136.14 234.495 136.652 234.867 136.986C235.435 137.497 236.168 137.7 236.871 137.936C238.336 138.428 239.264 140.161 240.684 140.968C241.504 141.433 242.004 142.326 242.697 143.018C243.605 143.924 244.529 144.873 244.393 146.207C244.298 147.132 244.161 149.284 243.638 150.064C243.071 150.911 242.127 150.586 241.265 150.786C240.295 151.011 239.519 151.768 239.712 152.849C239.912 153.973 240.811 154.053 241.75 154.081C244.399 154.161 243.423 155.843 244.347 157.69C244.848 158.693 245.686 159.087 246.261 157.913C246.725 156.968 245.897 155.479 246.4 154.673C247.013 153.69 250.294 153.957 250.978 154.721C251.497 155.3 251.772 156.096 252.289 156.701C253.074 157.621 253.397 158.91 253.868 160.037C254.368 161.234 254.804 162.448 255.187 163.688C255.456 164.559 256.037 165.939 254.646 165.195C253.674 164.675 252.948 163.503 251.717 163.466C250.499 163.43 249.805 164.695 250.161 165.795C250.505 166.859 252.075 167.328 252.257 168.408C252.457 169.588 250.435 170.793 249.821 171.661C248.407 173.66 249.589 175.91 251.907 174.213C252.728 173.612 253.589 172.399 254.515 172.019C255.981 171.417 255.973 173.646 256.675 174.466C257.053 174.907 257.189 174.458 256.966 175.118C256.883 175.361 256.464 175.437 256.417 175.739C256.383 175.961 256.581 176.078 256.588 176.249C256.612 176.83 256.613 176.916 256.482 177.547C256.338 178.247 256.39 179.117 256.347 179.829C256.247 181.455 256.225 183.008 256.055 184.633C255.96 185.537 255.761 187.38 256.829 187.821C256.449 188.417 255.943 190.074 255.196 189.949C255.257 190.341 255.222 190.842 255.603 191.099C255.695 190.859 255.786 190.62 255.876 190.381C256.086 190.928 255.901 190.991 255.889 191.363C255.905 190.902 255.469 192.005 255.705 191.869C255.504 192.037 255.24 192.132 254.938 192.35C254.517 192.652 254.295 193.071 253.969 193.48C253.377 194.221 253.412 194.969 252.894 195.741C252.159 196.837 251.217 197.918 250.444 199.013C249.814 199.904 248.613 200.418 248.109 201.376C247.788 201.985 247.66 202.693 247.112 203.122C246.328 203.735 245.279 204.313 244.427 204.947C243.892 205.345 243.484 205.898 242.95 206.285C242.679 206.481 241.863 206.679 241.863 207.078C240.837 206.791 240.11 205.743 239.304 205.105C238.765 204.679 237.481 204.125 237.559 203.271C237.622 202.573 238.616 201.706 238.845 200.973C239.039 200.352 239.309 199.194 238.772 198.664C237.646 197.551 236.369 199.939 235.764 200.574C234.517 201.885 233.987 200.563 232.962 199.611C231.324 198.091 230.294 199.669 230.871 201.562C231.163 202.52 232.275 203.375 232.347 204.354C232.426 205.429 231.261 205.97 230.8 206.829C230.364 207.639 230.163 209.063 230.982 209.734C231.884 210.474 232.669 209.598 233.26 208.916C233.718 208.385 234.228 207.218 234.973 207.152C235.906 207.069 237.436 208.764 238.145 209.287C237.067 209.599 236.418 210.502 235.506 211.08C234.33 211.827 232.687 212.003 231.371 212.516C230.13 212.999 229.014 213.392 227.833 213.991C226.432 214.701 224.717 214.879 223.233 215.396C221.908 215.858 220.651 216.507 219.298 216.888C217.773 217.318 216.19 217.577 214.652 217.965C213.336 218.298 211.794 218.617 210.438 218.619C209.067 218.622 209.096 217.773 208.658 216.642C208.137 215.298 207.274 214.119 206.724 212.808C206.2 211.561 206.991 211.088 207.749 210.134C208.464 209.235 208.275 209.094 209.196 209.725C210.408 210.556 211.209 209.994 212.152 209.038C212.992 208.189 213.3 207.483 214.507 208.075C215.716 208.667 216.867 209.63 218.165 210.016C219.188 210.319 219.95 210.099 220.122 208.98C220.307 207.771 219.617 206.913 218.748 206.195C218.087 205.649 216.642 205.001 216.401 204.114C216.146 203.181 217.487 201.819 217.631 200.775C217.811 199.457 217.244 198.488 215.994 199.4C215.087 200.062 214.483 201.497 213.223 201.586C213.573 200.119 214.332 198.815 214.983 197.471C215.528 196.345 215.996 195.067 217.46 194.942C217.935 194.901 218.244 194.951 218.697 194.869C219.295 194.761 220.106 194.676 220.746 194.514C222.25 194.134 223.578 192.973 224.963 192.307C225.281 193.162 225.843 195.596 227.136 194.175C228.093 193.124 227.033 191.314 227.914 190.145C229.732 187.732 233.691 189.504 236.08 188.26C237.119 187.718 237.965 185.991 236.5 185.47C235.643 185.166 233.17 186.289 232.654 185.461C232.287 184.87 233.826 182.563 234.012 181.929C234.591 179.956 234.497 177.907 234.497 175.874C235.659 176.349 237.13 177.462 238.382 177.615C239.67 177.771 239.897 176.259 239.559 175.266C239.094 173.898 237.544 172.776 236.482 171.895C236.014 171.507 234.788 170.881 234.531 170.29C234.266 169.68 234.646 169.385 234.943 168.855C235.408 168.027 236.534 165.885 235.309 165.109C234.182 164.395 233.549 166.397 232.831 166.825C231.612 167.551 231.195 165.887 230.71 165.04C229.831 163.502 228.612 162.13 227.518 160.747C226.522 159.487 225.908 158.635 225.763 157.03C225.652 155.815 225.404 154.874 226.837 154.597C229.378 154.108 233.098 155.314 235.161 153.247C236.244 152.163 235.471 151.042 234.104 151.097C232.309 151.171 230.602 151.259 228.795 151.114C227.834 151.036 225.826 151.27 225.341 150.28C224.717 149.005 225.775 146.956 224.626 145.839C223.159 144.412 222.799 147.637 222.75 148.527C222.715 149.176 222.881 150.163 222.478 150.724C222.101 151.247 221.412 151.24 220.856 151.429C219.453 151.906 218.729 153.629 220.589 153.994C221.215 154.117 222.088 153.938 222.608 154.402C223.153 154.888 222.945 155.751 222.996 156.406C221.693 154.895 218.983 155.565 217.218 155.004C216.288 154.708 216.131 154.314 215.74 153.414C215.267 152.324 214.188 150.946 214.147 149.741C214.112 148.718 214.964 147.948 215.361 147.067C215.702 146.31 216.011 145.078 215.961 144.229C215.839 142.181 212.145 144.272 211.384 145.055C210.003 146.478 208.3 148.317 209.049 150.331C209.717 152.129 210.071 153.148 207.754 153.007C206.906 152.955 205.125 153.123 204.467 152.765C203.978 152.499 204.162 152.022 204.146 151.331C204.132 150.733 204.177 149.826 203.793 149.303C202.442 147.465 202.126 152.041 201.367 152.536C200.182 153.312 197.672 152.499 197.865 154.8C198.035 156.813 200.755 155.991 201.508 157.723C201.87 158.557 201.793 159.528 202.25 160.333C202.9 161.481 203.701 161.42 204.132 160.224C204.435 159.383 204.031 158.52 204.264 157.727C204.601 156.58 206.202 156.686 207.188 156.557C208.385 156.399 209.429 156.098 210.569 155.729C211.974 155.274 211.898 156.021 212.126 157.102C212.392 158.357 212.798 159.566 213.047 160.839C213.279 162.025 213.894 163.303 213.994 164.49C214.07 165.398 213.763 165.315 213.012 165.839C212.19 166.411 211.286 167.899 210.332 168.144C208.898 168.512 207.453 165.234 206.149 166.911C205.588 167.632 205.805 169.165 206.203 169.909C206.73 170.892 207.697 171.142 206.886 172.269C206.277 173.115 205.511 173.77 205.454 174.909C205.4 175.966 206.119 176.965 207.242 176.655C208.15 176.404 208.687 175.474 209.374 174.91C210.561 173.935 211.535 174.838 212.749 175.39C213.705 175.824 215.462 176.107 215.942 177.129C216.551 178.425 215.77 178.926 214.639 178.557C215.08 180.006 214.5 180.848 214.341 182.345C214.212 183.557 213.933 184.666 213.756 185.838C213.52 187.403 213.495 187.234 211.885 187.287C210.517 187.332 209.187 187.295 207.82 187.235C206.617 187.183 205.798 187.291 205.744 185.838C205.72 185.197 206.124 183.024 204.861 183.284C203.748 183.514 204.068 185.5 203.696 186.247C203.158 187.327 202.247 186.997 201.234 187.264C200.204 187.535 199.37 188.296 199.636 189.472C199.92 190.728 201.071 190.64 202.071 190.931C203.611 191.378 203.273 193.644 204.172 194.874C204.539 195.376 204.925 195.884 205.541 195.472C206.67 194.716 205.604 192.869 205.903 191.942C206.216 190.968 207.274 191.167 208.275 191.041C209.751 190.854 211.296 190.142 212.767 190.151C212.485 191 211.695 191.493 211.411 192.387C211.258 192.866 211.401 193.761 211.189 194.157C210.961 194.583 210.244 194.71 209.947 195.302C209.559 196.078 209.439 196.908 208.984 197.667C207.91 199.463 206.984 201.299 205.842 203.076C204.663 204.912 203.392 206.658 201.908 208.25C200.469 209.794 200.04 209.046 198.803 207.784C198.299 207.27 197.23 206.675 197.09 205.908C196.952 205.152 197.577 204.535 197.919 203.92C198.374 203.103 199.193 201.699 198.994 200.72C198.619 198.881 196.975 200.574 196.352 201.263C195.264 202.465 194.655 203.729 193.01 202.78C191.958 202.171 190.63 200.507 189.248 201.123C187.99 201.683 188.342 203.302 189.116 204.123C189.55 204.584 190.167 204.847 190.627 205.278C191.617 206.206 191.057 206.458 190.605 207.498C190.235 208.349 190.182 210.022 190.863 210.731C192.205 212.126 193.242 209.312 194.487 209.255C195.078 209.228 197.531 210.838 197.706 211.418C198.013 212.435 195.366 213.649 194.663 214.127C193.027 215.237 191.245 216.369 189.405 217.105C187.233 217.974 188.851 215.236 187.664 214.326C186.12 213.143 186.001 216.385 185.843 217.191C185.422 219.333 183.159 219.389 181.333 219.92C180.171 220.258 179.008 220.617 177.834 220.912C176.838 221.161 175.722 221.155 174.756 221.464C173.909 221.736 173.329 222.286 172.382 222.292C172.074 222.295 171.806 222.19 171.509 222.183C170.91 222.168 170.361 222.511 169.788 222.475C168.836 222.416 169.25 222.116 168.919 221.451C168.607 220.828 167.816 220.598 167.2 220.404C165.434 219.845 163.964 220.335 163.707 218.089C163.628 217.399 163.733 214.568 162.421 214.899C160.889 215.285 162.237 218.65 161.286 219.493C160.823 219.904 160.124 219.699 159.567 219.821C158.651 220.019 158.249 220.711 157.247 220.665C156.401 220.626 155.614 220.25 154.877 219.877C153.778 219.321 152.467 218.953 151.551 218.105C150.296 216.941 149.745 215.13 149.21 213.558C148.422 211.242 148.086 208.934 147.96 206.505C147.916 205.658 147.556 205.061 147.406 204.284C147.246 203.458 147.718 203.292 147.827 202.51C147.932 201.749 147.881 200.936 148.041 200.12C148.271 198.948 148.352 197.749 148.575 196.573C148.944 194.628 149.504 192.697 149.963 190.769C150.106 190.17 150.365 188.251 151.103 188.067C151.649 187.931 152.907 188.743 153.412 188.981C154.411 189.452 155.27 190.103 156.339 190.429C156.89 190.598 157.587 190.581 157.949 191.093C158.521 191.904 158.058 193.491 158.295 194.448C158.585 195.621 159.546 196.119 160.321 194.942C160.733 194.314 160.623 193.566 160.679 192.872C160.758 191.871 160.776 191.629 161.858 191.696C162.955 191.765 164.026 192.179 165.15 192.229C166.164 192.275 167.183 192.247 168.196 192.191C170.656 192.056 172.906 191.656 175.213 190.78C176.776 190.187 178.588 188.89 180.311 188.936C182.742 189 182.084 191.251 182.416 192.935C182.619 193.959 184.333 197.105 184.991 194.552C185.317 193.289 184.232 191.448 184.875 190.308C185.634 188.96 188.424 190.078 189.693 189.766C190.72 189.513 192.437 188.057 191.712 186.8C191.368 186.205 190.701 186.318 190.106 186.273C188.978 186.189 187.858 186.035 186.739 185.87C186.103 185.776 185.13 185.722 184.876 184.991C184.66 184.371 185.673 182.762 185.892 182.169C186.619 180.204 186.881 178.606 186.884 176.464C186.884 175.499 186.948 174.48 186.792 173.525C186.735 173.175 186.21 172.033 186.456 171.699C186.787 171.249 187.464 171.82 187.735 172.157C188.275 172.828 188.087 172.775 187.78 173.471C187.329 174.494 186.451 176.641 187.94 177.429C189.496 178.253 190.059 175.468 191.534 175.774C192.221 175.916 192.9 176.82 193.454 177.243C194.103 177.737 194.803 178.262 195.565 178.565C196.816 179.063 198.222 178.69 197.716 177.117C197.318 175.877 196.057 174.839 195.156 173.959C193.72 172.559 193.785 171.97 194.777 170.32C195.192 169.629 196.787 166.697 194.939 166.458C193.96 166.332 192.903 167.918 192.386 168.525C191.499 169.566 190.991 170.014 189.671 169.177C188.382 168.36 187.783 167.676 186.223 167.601C184.428 167.514 183.621 164.818 182.67 163.433C180.085 159.671 176.128 157.81 172.791 154.928C171.165 153.523 170.067 151.685 168.831 149.956C168.242 149.132 167.482 148.448 167.002 147.551C166.7 146.986 165.882 145.626 166.095 144.96C166.36 144.131 167.79 143.619 168.385 143.033C168.884 142.542 169.151 141.93 169.936 142.117C170.635 142.285 171.265 143.231 171.836 143.646C172.397 144.054 173.03 144.433 173.652 144.738C174.777 145.29 176.135 145.585 176.201 143.907C176.258 142.455 174.934 140.9 173.977 139.92C173.281 139.207 172.227 138.588 172.365 137.456C172.433 136.894 172.91 135.895 173.188 135.424C174.147 133.804 177.076 134.792 178.667 134.896C180.584 135.022 182.699 134.7 184.223 136.056C184.72 136.499 185.872 137.368 186.116 137.984C186.4 138.701 185.936 139.023 185.678 139.717C185.345 140.614 185.116 142.385 186.075 143.003C187.676 144.034 188.511 140.974 190.175 141.643C191.753 142.278 192.857 144.103 194.658 144.392C197.016 144.77 195.673 141.848 194.858 140.988C193.799 139.873 191.747 138.72 192.419 137.071C192.611 136.6 193.05 135.617 193.444 135.325C194.216 134.752 195.461 135.067 196.345 135.076C198.577 135.1 200.684 134.916 202.871 134.526C203.53 134.408 203.68 134.315 204.145 134.806C204.788 135.486 205.126 136.371 205.874 137.04C204.793 138.205 203.191 139.58 203.943 141.374C204.589 142.917 206.007 142.16 206.966 141.336C207.417 140.949 207.882 140.129 208.479 139.974C209.254 139.772 210.125 140.476 210.759 140.833C211.711 141.37 213.748 142.961 214.83 142.022C216.26 140.78 214.567 138.91 213.582 138.143C212.986 137.679 212.192 137.348 211.69 136.775C211.023 136.013 211.414 135.901 211.819 135.214C212.559 133.957 212.287 132.338 213.472 131.356C214.128 130.811 215.067 130.469 215.816 130.07C216.554 129.676 217.346 128.896 218.07 128.597ZM230.133 133.486C229.845 133.309 229.557 133.133 229.27 132.957C229.928 132.636 230.362 132.674 230.133 133.486ZM246.019 148.76C246.135 148.173 246.587 147.123 247.21 147.672C247.611 148.025 247.173 149.349 248.127 148.983C248.176 149.827 247.548 149.755 248.475 150.506C247.305 150.37 245.691 150.423 246.019 148.76ZM200.627 219.885C200.921 219.095 200.919 217.87 201.825 218.592C201.873 217.635 201.646 214.6 203.383 214.724C204.092 214.774 204.084 215.399 204.271 215.94C204.597 216.884 205.148 217.744 205.613 218.624C203.889 218.693 202.164 219.088 200.627 219.885ZM201.191 230.791C202.176 231.536 202.67 230.657 203.6 230.336C204.458 230.04 205.349 230.217 206.3 230.007C207.479 229.747 208.868 229.786 210.02 229.776C210.304 229.774 210.898 229.819 211.185 229.852C211.707 229.912 211.661 230.02 212.202 230.165C212.411 230.117 212.622 230.082 212.835 230.06C213.096 230.049 213.302 230.157 213.452 230.384C213.939 230.546 214.116 230.439 214.581 230.552C215.691 230.823 216.519 231.491 217.243 232.378C218.719 234.181 218.762 236.892 218.729 239.124C218.719 239.76 218.67 240.393 218.741 241.027C218.805 241.609 219.216 242.488 219.048 243.066C218.794 243.941 218.006 243.744 217.088 243.783C216.548 243.806 216.009 244.155 215.579 244.186C215.163 244.216 214.995 244.062 214.575 243.968C213.476 243.722 212.181 244.073 211.098 244.372C209.987 244.679 209.012 244.981 207.885 245.198C207.152 245.339 206.492 245.42 205.752 245.512C205.146 245.588 204.884 245.908 204.355 246.039C203.844 246.166 203.347 245.976 202.832 246.076C202.13 246.211 201.641 246.726 201.001 246.983C200.12 247.336 198.71 246.808 198.32 247.898C198.167 246.847 197.158 247.132 196.408 247.039C195.171 246.886 193.952 246.331 192.762 245.977C191.787 245.687 188.414 243.014 187.768 244.099C187.769 243.989 187.887 243.368 187.785 243.296C187.425 243.043 187.428 243.182 187.04 243.024C186.447 242.781 186.198 242.563 185.774 242.154C184.917 241.328 183.764 240.896 182.862 240.147C180.594 238.265 179.817 234.388 179.264 231.689C178.541 232.972 178.807 231.326 178.932 230.776C179.228 229.478 178.848 228.838 178.762 227.584C178.682 226.431 179.208 226.203 180.249 226.082C181.532 225.934 182.766 225.726 184.023 225.406C185.222 225.1 186.398 224.755 187.48 224.147C188.471 223.59 189.511 223.372 190.524 222.885C191.641 222.347 192.737 221.782 193.864 221.259C194.372 221.023 196.609 219.334 196.998 219.437C197.795 219.649 197.042 221.045 196.799 221.411C196.175 222.352 195.149 222.789 194.224 223.381C193.39 223.914 190.859 226.444 193.428 226.19C195.13 226.022 196.284 224.238 197.373 226.271C197.757 226.989 198.323 227.565 197.881 228.307C197.264 229.343 195.483 229.836 194.55 230.533C193.755 231.126 192.127 233.926 193.767 234.226C194.239 234.312 194.965 234.2 195.316 233.834C195.552 233.587 195.536 233.078 195.775 232.909C196.114 232.669 196.772 232.966 197.159 232.835C197.71 232.647 197.84 232.346 198.042 231.817C198.631 232.085 198.639 232.445 199.311 232.099C199.534 231.984 199.616 231.562 199.874 231.45C200.221 231.299 200.324 231.794 200.514 231.721C201.03 231.524 201.028 231.301 201.191 230.791ZM165.859 222.558C164.871 222.632 163.793 222.712 162.951 222.082C163.974 222.144 164.877 222.375 165.903 222.164C166.31 222.08 166.963 221.695 167.381 221.829C168.865 222.305 166.254 222.528 165.859 222.558ZM163.117 135.714C163.102 135.367 162.808 130.695 164.404 132.531C164.841 133.033 164.369 133.705 164.307 134.26C164.202 135.196 164.53 136.133 165.023 136.921C165.483 137.656 166.342 138.3 166.213 139.258C166.1 140.099 165.252 140.816 164.834 141.514C163.806 139.894 163.2 137.664 163.117 135.714ZM159.609 86.685C155.912 87.0741 152.232 87.7628 148.667 88.8256C145.166 89.8688 141.903 91.5001 138.614 93.063C137.936 90.16 137.226 87.2647 136.556 84.3594C136.234 82.9613 135.926 81.5594 135.625 80.1562C135.41 79.1588 134.629 77.2988 134.955 76.3176C135.128 75.7977 135.356 75.7954 135.728 75.4743C135.955 75.2784 136.351 74.7989 136.586 74.6963C137.16 74.447 138.632 74.2285 139.219 74.264C139.754 74.2962 140.034 74.5087 140.584 74.355C141.052 74.2242 141.446 73.8636 141.885 73.666C143.004 73.163 144.4 72.9943 145.597 72.728C146.748 72.472 147.937 72.4149 149.091 72.1613C150.102 71.9388 150.582 71.1947 151.444 71.2216C153.688 71.2917 156.17 71.0287 158.396 70.4925C160.894 69.8912 163.611 70.0074 166.174 69.943C167.195 69.9174 167.912 69.6876 167.917 70.8245C167.923 72.2117 167.369 73.7693 167.087 75.1237C166.46 78.1265 165.929 81.0454 165.692 84.0945C165.573 85.6198 164.948 85.5132 163.708 85.9811C162.328 86.5014 161.077 86.5309 159.609 86.685ZM140.167 117.493C141.078 117.628 140.974 115.136 141.041 114.629C143.213 118.726 145.659 122.669 147.574 126.9C148.021 127.89 148.427 128.902 148.9 129.88C149.223 130.549 149.947 131.447 149.93 132.226C149.911 133.039 149.255 133.343 148.564 133.644C147.816 133.969 147.524 134.132 146.998 133.755C146.36 133.3 145.828 131.896 145.434 131.219C144.833 130.186 144.257 129.138 143.668 128.098C142.601 126.212 141.342 124.407 140.465 122.428C139.644 120.573 138.402 118.978 137.517 117.156C136.64 115.352 135.441 113.642 134.433 111.876C135.445 111.455 136.706 110.403 137.856 110.461C139.044 110.522 139.015 111.668 139.066 112.623C139.12 113.637 138.781 117.288 140.167 117.493ZM143.085 136.004C142.543 136.647 141.321 137.025 140.572 137.381C139.534 137.875 138.471 138.314 137.438 138.818C134.049 140.472 130.675 141.985 127.222 143.504C125.437 144.289 123.675 145.123 121.933 146C121.021 146.459 119.011 148.067 117.961 148.108C116.758 148.155 116.73 145.725 116.465 144.813C116.242 144.051 115.828 143.457 115.55 142.734C115.437 142.439 115.525 142.215 115.352 141.922C115.156 141.589 114.605 141.32 114.322 141.033C113.119 139.812 112.122 138.257 111.107 136.881C110.176 135.62 108.589 134.042 108.143 132.498C107.265 129.461 112.364 127.78 114.314 126.561C117.73 124.425 121.162 122.231 124.417 119.858C125.9 118.776 127.352 117.653 128.843 116.581C129.538 116.081 131.466 114.137 132.359 114.83C132.691 115.088 132.697 115.801 132.836 116.176C133.139 116.993 133.599 117.707 134.066 118.441C134.48 119.09 135.068 119.762 135.327 120.487C135.635 121.351 135.621 121.84 136.186 122.616C137.212 124.026 137.697 125.652 138.652 127.09C139.572 128.475 140.456 129.498 141.058 131.046C141.403 131.934 141.948 132.721 142.43 133.537C142.657 133.923 142.894 134.302 143.097 134.701C143.461 135.414 143.589 135.405 143.085 136.004ZM113.954 147.864C113.302 148.33 112.343 147.546 111.712 147.536C111.437 147.531 111.164 147.745 110.98 147.739C110.428 147.723 109.977 147.352 109.468 147.179C107.122 146.381 104.324 146.35 102.32 144.729C98.3377 141.509 100.236 135.047 100.961 130.86C101.109 130.007 101.375 128.825 100.685 128.125C99.9294 127.359 98.7922 127.816 98.1003 128.437C97.3904 129.072 96.9076 129.963 96.3176 130.705C95.3776 131.887 94.3516 133.005 93.3154 134.102C89.6335 138.001 85.7344 142.463 81.1796 145.324C79.2854 146.515 77.5708 148.128 75.4946 149.035C72.9971 150.126 75.561 145.914 76.0099 145.229C78.9494 140.75 83.2289 137.204 86.8228 133.272C87.5012 132.53 88.4644 131.529 88.4764 130.46C88.4946 128.855 87.0768 128.999 85.9556 129.445C84.907 129.862 84.3817 130.899 83.5381 131.608C82.4878 132.491 81.2607 133.207 80.0916 133.919C77.5701 135.456 74.8936 136.745 72.2251 138.002C70.977 138.59 69.7229 139.166 68.4688 139.741C68.1245 139.899 66.0672 141.204 66.1655 140.085C66.1788 139.935 67.4913 138.341 67.6533 138.282C68.4615 137.986 68.8623 138.878 69.5815 137.709C70.0924 136.879 70.1632 136.448 70.8847 135.819C71.0075 135.712 71.0919 135.441 71.1915 135.265C71.1792 135.331 71.7274 134.798 71.6224 134.891C71.7665 134.763 71.9757 134.53 72.0926 134.378C72.6567 133.641 73.7408 133.627 74.2309 132.786C74.4178 132.465 74.3119 132.054 74.5374 131.736C74.8531 131.29 75.5477 131.1 75.9183 130.707C76.236 130.37 76.498 130.095 76.6952 129.889C76.831 129.747 77.0694 129.647 77.2301 129.484C77.6302 129.08 77.5987 128.721 78.1585 128.381C78.6612 128.076 78.8923 128.362 79.0663 127.606C79.6779 127.998 79.6012 127.424 79.8495 127.013C80.1723 126.478 80.5823 126.24 81.0272 125.853C82.0061 125.002 82.9238 123.734 83.7565 122.663C85.8277 119.997 87.5028 116.881 88.1198 113.537C88.2675 112.737 88.3489 111.93 88.4076 111.119C88.4388 110.692 88.2997 109.654 88.5637 109.237C88.9737 108.588 89.7517 108.846 90.3437 108.562C90.5449 108.466 90.7435 108.182 90.9321 108.117C91.196 108.027 91.5191 108.115 91.793 108.028C91.8996 107.994 91.9242 107.681 92.1001 107.641C92.4455 107.562 92.7884 107.688 93.1298 107.692C93.8765 107.702 94.6136 107.571 95.3298 107.333C95.9813 107.116 96.5265 106.62 97.1766 106.441C97.1102 106.459 98.248 106.55 98.1866 106.486C98.2411 106.205 98.2955 105.925 98.35 105.645C98.7819 105.947 100.255 106.345 100.712 106.276C101.446 106.165 101.291 105.503 101.914 106.372C102.267 106.065 102.619 105.758 102.971 105.45C103.238 106.57 105.077 106.027 105.91 106.089C107.085 106.176 108.01 105.956 109.08 106.364C110.381 106.863 111.523 107.387 112.925 107.523C113.904 107.618 114.312 108.078 115.271 108.362C116.561 108.744 116.663 109.165 116.259 110.483C115.932 111.551 115.65 112.375 116.128 113.471C116.975 115.415 119.279 116.216 120.764 117.56C117.285 120.001 113.85 122.403 110.487 125.005C109.078 126.095 107.579 127.187 106.777 128.826C106.037 130.34 105.617 132.158 105.172 133.778C104.15 137.492 107.028 139.992 109.984 141.626C110.596 141.964 114.809 147.252 113.954 147.864ZM108.216 152.353C108.008 151.639 108.035 151.448 108.725 151.192C108.986 151.095 109.986 150.968 110.148 151.326C110.515 152.139 108.588 152.129 108.216 152.353ZM137.531 100.589C137.778 102.174 138.021 103.76 138.242 105.348C138.364 106.226 138.64 107.003 137.986 107.665C137.614 108.041 136.713 108.181 136.239 108.381C135.555 108.67 134.888 109.001 134.23 109.346C133.057 109.96 131.831 110.33 130.674 110.884C130.17 111.124 129.871 111.599 129.435 111.926C128.839 112.373 128.114 112.591 127.498 113.017C126.398 113.778 125.39 114.679 124.291 115.446C123.045 116.314 122.785 116.035 122.086 114.752C121.458 113.6 120.704 113.074 119.8 112.171C119.449 111.82 118.19 109.818 119.259 109.646C119.533 109.601 120.479 110.013 120.694 110.145C121.019 110.345 121.54 111.481 121.805 111.5C122.282 111.535 122.893 110.177 123.191 109.819C125.139 107.473 127.283 105.153 129.541 103.101C130.711 102.037 131.941 101.068 133.268 100.21C134.211 99.5993 135.035 98.744 135.965 98.165C136.162 97.9946 136.385 97.8728 136.635 97.7997C137.121 97.5793 137.303 97.7695 137.182 98.3705C137.46 98.9585 137.43 99.9403 137.531 100.589ZM94.9058 98.5119C95.3793 98.0298 95.9776 97.6443 96.3907 97.1061C96.6237 96.8026 96.7775 96.2598 97.0441 96.0635C97.5083 95.7215 98.1723 95.8793 98.7122 95.4207C99.2335 94.9775 99.6914 94.4469 100.201 93.987C101.305 92.9909 102.444 92.0752 103.527 91.0612C104.143 90.4847 104.788 89.737 105.335 89.3565C105.48 89.2556 105.642 89.1055 105.796 89.0278C106.126 88.8618 106.29 89.0308 106.771 88.8761C107.089 88.7741 107.316 88.3714 107.571 88.1808C108.178 87.7279 108.968 87.5486 109.552 87.1126C110.135 86.6767 110.416 85.9997 111.22 85.6361C112.192 85.1965 112.92 85.5438 113.623 84.7031C113.909 84.3604 113.988 83.9285 114.438 83.7123C114.979 83.4517 115.455 83.7282 115.973 83.4321C116.322 83.2322 116.56 82.8132 116.92 82.5944C117.565 82.2042 118.279 82.1627 118.882 81.6796C119.391 81.2722 119.108 81.314 119.711 81.1421C119.976 81.0664 120.27 81.0338 120.553 80.9372C121.459 80.6281 122.938 80.2496 123.475 79.3903C123.747 79.7877 123.841 79.8684 124.283 79.7449C124.515 79.5559 124.728 79.3484 124.921 79.1216C125.064 79.3013 125.216 79.3122 125.379 79.1539C126.335 78.8251 127.212 78.2604 128.154 77.9469C128.288 78.019 128.421 78.0914 128.555 78.1631C128.74 78.1734 128.815 78.0827 128.78 77.8908C129.151 77.8231 129.578 77.66 129.919 77.5113C130.574 77.2261 131.297 76.5481 132.068 76.7908C133.356 77.1959 133.418 79.8236 133.64 80.8648C134.188 83.4311 134.739 85.9964 135.289 88.562C135.513 89.6062 135.71 90.6581 136.004 91.6844C136.197 92.3551 136.676 93.3442 136.503 94.0574C136.291 94.9316 135.438 95.2162 134.725 95.6206C133.742 96.1778 132.791 96.796 131.861 97.4378C127.911 100.162 124.967 103.909 122.167 107.753C121.648 106.999 120.258 105.94 119.392 105.6C118.785 105.362 118.239 105.554 117.635 105.264C117.205 105.057 116.847 104.652 116.44 104.391C113.953 102.798 110.952 101.482 108.07 100.85C102.156 99.5528 96.3661 101.561 90.6319 102.515C91.7953 100.915 93.5352 99.9061 94.9058 98.5119ZM134.491 55.1005C135.503 51.8018 137.208 48.6083 139.633 46.1338C140.856 44.8863 142.293 43.796 143.904 43.1024C145.306 42.4994 146.973 41.9211 146.951 43.8601C146.904 48.0694 145.931 52.2311 145.813 56.4472C145.697 60.5787 146.389 63.895 148.889 67.2243C147.305 67.5922 145.721 67.9654 144.143 68.3569C142.944 68.654 141.702 68.9874 140.568 69.1916C139.447 69.3928 138.416 69.5243 137.308 69.9031C136.56 70.1585 135.39 70.9391 134.582 70.7697C133.238 70.4882 133.556 65.6674 133.487 64.5093C133.293 61.2384 133.526 58.2485 134.491 55.1005ZM159.051 61.4516C160.886 59.223 162.794 56.6232 165.882 56.2095C168.869 55.8094 169.969 59.391 169.78 61.8062C169.715 62.6233 169.594 64.7453 169 65.4074C168.343 66.1399 167.178 65.5877 166.343 65.4748C162.741 64.9871 159.049 65.8012 155.437 65.8012C156.641 64.3509 157.852 62.9062 159.051 61.4516ZM173.829 70.3384C175.082 70.518 176.082 70.709 175.478 72.135C174.267 74.9915 173.336 77.7175 174.397 80.8313C175.208 83.2093 177.774 86.096 180.338 86.5724C181.237 86.7394 182.589 86.4406 183.141 87.3534C183.633 88.1665 183.1 90.6046 183.043 91.5074C182.829 94.8706 181.968 98.2078 179.791 100.85C177.854 103.202 175.491 105.042 172.674 102.823C170.299 100.952 168.897 97.6055 168.194 94.7454C167.819 93.2187 167.774 91.6953 167.702 90.1351C167.639 88.7552 167.376 87.88 168.936 87.5938C169.354 87.5174 170.399 87.5413 170.4 86.9028C170.403 86.0448 169.27 86.3666 168.837 86.3231C167.165 86.1564 167.948 84.2127 168.104 82.9556C168.369 80.815 168.799 78.6983 169.193 76.5793C169.529 74.7744 169.547 72.409 170.276 70.7216C170.702 69.7361 172.993 70.2186 173.829 70.3384ZM176.906 76.6772C177.096 75.5138 177.197 74.0598 178.352 73.4167C179.62 72.7101 180.255 73.8613 180.882 74.8019C182.542 77.2975 184.379 79.6326 184.651 82.7305C184.684 83.1 184.842 83.8418 184.486 84.0975C184.327 84.2117 183.948 83.9105 183.702 83.9285C182.387 84.0231 181.435 84.3754 180.146 83.633C177.623 82.1793 176.447 79.4849 176.906 76.6772ZM186.827 83.6459C186.556 80.9369 185.305 78.5346 183.907 76.2476C183.218 75.12 181.88 73.8872 181.405 72.6958C181.15 72.0577 181.601 71.2674 182.528 71.541C182.989 71.6775 183.878 72.9014 184.186 73.3247C184.978 74.4131 185.635 75.627 186.262 76.8154C186.932 78.0854 188.836 82.7461 186.827 83.6459ZM178.521 56.671C178.667 54.1223 178.682 51.1955 180.333 49.0805C181.612 47.4402 183.954 46.7263 185.854 46.0923C188.414 45.238 191.489 45.1061 194.166 45.3822C196.522 45.6254 198.301 47.2297 199.754 48.9938C201.233 50.7878 202.379 53.0977 203.396 55.1848C203.65 55.7071 205.809 59.0583 204.349 58.9803C203.77 58.9491 203.266 57.8185 202.823 57.4845C202.475 57.2232 202.064 57.2554 201.752 57.0462C201.418 56.8221 201.491 56.6146 201.232 56.3377C199.448 54.4331 197.808 55.5298 195.884 56.5329C195.795 55.8685 195.952 54.6343 195.396 54.1489C194.67 53.5134 193.91 54.5201 193.389 55.0135C192.914 55.4634 192.329 56.2829 191.731 56.5262C190.955 56.842 191.219 56.5063 190.544 56.241C189.187 55.7071 188.143 57.2876 187.457 58.2067C187.201 58.5493 186.782 59.4149 186.323 59.5076C185.88 59.5969 185.822 59.2811 185.44 59.1646C184.359 58.8349 184.06 59.6058 183.715 60.5631C183.328 61.6395 182.998 62.6768 182.424 63.6822C181.41 65.4612 180.974 66.0466 181.776 68.0112C180.604 68.1852 180.358 68.325 179.777 67.2847C179.178 66.2126 179.023 65.3234 179.06 64.0913C179.139 61.5144 178.37 59.2884 178.521 56.671ZM205.73 68.8639C206.957 71.0802 207.737 74.1644 207.724 76.6895C207.718 77.9423 207.644 79.4829 207.06 80.6194C206.499 81.7098 205.324 82.2557 204.242 82.7202C201.634 83.8405 198.696 83.8275 195.954 83.3281C194.531 83.0685 193.147 83.2362 191.929 82.3812C191.013 81.7371 189.907 81.1118 189.639 79.9315C189.526 79.4374 189.7 79.0234 189.664 78.5386C189.708 78.3078 189.692 78.083 189.614 77.8632C189.454 77.7713 189.293 77.6816 189.13 77.5943C189.002 77.2261 189.248 76.8157 189.184 76.4312C189.109 75.967 188.724 75.5892 188.543 75.1685C188.047 74.0084 188.401 73.3596 189.33 72.5717C189.552 72.3967 189.776 72.2237 190.001 72.052C190.203 71.7326 190.426 71.7313 190.67 72.0477C191.112 72.0537 191.099 72.1902 191.564 72.0547C192.583 71.7579 193.438 70.6738 194.436 70.2929C194.824 70.1448 195.402 70.2707 195.717 69.9978C195.998 69.7537 195.817 69.2417 196.065 69.0023C196.854 68.2367 198.096 68.9625 198.826 67.8495C199.422 66.9414 199.296 65.6531 199.357 64.6222C201.186 64.9718 201.979 66.7253 203.482 67.6071C203.779 66.4546 203.823 66.4892 204.97 66.1728C204.45 67.1347 205.291 68.0706 205.73 68.8639ZM207.131 56.6295C207.468 57.0638 207.725 58.1419 207.131 58.2458V56.6295ZM208.692 60.5508C211.486 60.5564 213.271 64.0879 214.086 66.2757C214.973 68.6547 215.907 71.8279 214.253 74.1448C213.618 75.0333 212.84 75.1147 211.819 74.9995C210.589 74.8607 209.958 74.6827 210.44 73.3682C211.342 70.9049 210.663 67.7731 209.065 65.7109C211.263 65.2862 209.87 63.2695 208.766 62.5148C207.477 61.6336 206.436 60.5458 208.692 60.5508ZM144.919 188.221C144.262 189.964 143.594 191.702 143.042 193.498C142.519 195.2 142.822 197.118 142.172 198.755C141.773 198.557 141.658 198.205 141.31 197.992C141.096 197.86 140.723 197.808 140.539 197.662C140.223 197.413 139.456 196.484 139.249 196.124C138.531 194.878 139.01 192.852 139.393 191.572C139.868 189.986 140.68 188.463 141.769 187.213C142.533 186.337 142.955 186.615 143.977 187.047C144.581 187.302 145.203 187.465 144.919 188.221ZM139.94 201.974C139.415 203.036 138.445 203.912 137.869 204.982C137.264 206.106 136.806 207.372 136.035 208.4C135.25 209.448 134.544 209.273 133.463 209.724C133.075 209.887 132.912 210.187 132.6 210.422C132.014 210.861 131.372 211.13 130.756 211.521C130.319 210.447 128.981 205.054 127.279 205.17C125.8 205.27 126.557 208.093 126.747 208.926C126.909 209.63 127.093 210.344 127.338 211.024C127.586 211.71 128.358 212.737 128.072 213.489C127.71 214.445 126.806 214.382 126.354 213.685C125.976 213.102 125.784 212.309 125.505 211.675C125.26 211.117 124.14 208.064 123.172 208.537C122.239 208.993 123.69 211.953 123.933 212.535C124.519 213.939 125.643 215.288 124.157 216.413C121.902 218.121 119.125 219.406 116.598 220.638C115.123 221.356 113.797 222.301 112.248 222.885C110.811 223.427 109.149 223.519 107.759 224.142C107.417 224.295 107.647 224.486 107.147 224.575C106.728 224.65 105.996 224.45 105.546 224.454C104.802 224.461 104.056 224.517 103.313 224.424C102.895 224.371 101.942 223.913 102.093 224.67C101.501 224.505 101.272 223.908 100.84 223.535C100.455 223.202 99.9636 223.021 99.534 222.76C98.6458 222.219 97.9817 221.604 97.7151 220.574C97.0896 218.155 98.4121 215.638 100.044 213.952C100.981 212.985 102.08 212.18 102.939 211.139C103.241 210.773 103.455 210.348 103.838 210.052C104.306 209.688 104.949 209.642 105.403 209.274C105.74 209 105.841 208.563 106.195 208.312C106.718 207.94 107.331 208.094 107.825 207.606C108.107 207.328 109.075 206.015 109.007 205.651C109.272 205.74 109.538 205.829 109.802 205.918C109.964 205.109 111.359 204.111 112.047 203.724C112.395 203.528 113.073 203.537 113.332 203.327C113.676 203.046 113.648 202.458 113.921 202.105C114.705 201.096 116.345 200.643 117.383 199.94C118.704 199.045 119.986 198.032 121.179 196.973C123.591 194.833 125.716 192.347 127.453 189.63C128.152 188.536 128.802 187.42 129.3 186.22C129.606 185.482 129.912 184.17 130.67 183.741C131.452 183.299 133.248 183.898 134.124 183.961C135.411 184.054 137.416 183.996 138.569 184.629C139.802 185.305 138.8 185.864 138.165 186.67C137.236 187.849 136.68 189.293 136.216 190.708C135.859 191.797 135.792 192.85 135.558 193.948C135.312 195.108 135.314 196.674 135.886 197.74C136.452 198.795 140.531 200.781 139.94 201.974ZM91.3096 223.362C88.5398 219.591 90.8328 214.07 93.5425 211.022C96.8117 207.345 101.464 205.277 105.286 202.287C109.706 198.829 114.245 195.617 118.161 191.561C120.145 189.506 121.874 187.29 123.441 184.901C124.771 182.873 125.737 180.171 128.425 179.878C126.839 181.854 126.747 184.702 125.521 186.903C124.223 189.233 122.309 191.171 120.361 192.963C116.246 196.745 111.802 200.21 107.358 203.59C105.09 205.315 102.884 207.119 100.623 208.852C98.5983 210.405 96.4717 211.734 95.3049 214.1C93.2918 218.183 93.1716 224.231 97.6295 226.746C95.3325 226.288 92.7489 225.321 91.3096 223.362ZM332.81 53.2913C331.991 51.6517 330.455 51.0677 328.913 50.4262C327.403 49.7983 326.024 49.025 324.35 48.8241C323.605 48.7348 321.506 48.9566 321.408 47.8778C321.326 46.9789 323.52 46.0767 324.025 45.3918C324.775 44.3767 325.284 42.7285 324.993 41.4463C324.718 40.2304 323.535 39.8463 322.431 39.6259C318.997 38.9411 315.346 39.4447 311.903 39.7262C312.324 39.1367 312.918 38.6533 313.256 37.9473L313.802 39.0823C314.113 38.4332 314.45 37.7962 314.836 37.1884C315.098 37.4822 315.36 37.7763 315.621 38.0702C315.186 36.5442 316.648 36.552 316.494 35.2657C316.435 34.7653 316.096 34.5461 316.013 34.144C315.849 33.3444 316.467 32.8444 315.764 32.1029C314.982 31.2771 313.703 31.6047 312.793 31.6817C312.679 31.6917 312.513 31.9178 312.365 31.9361C312.161 31.962 312.043 31.6803 311.79 31.6953C311.111 31.7353 310.513 32.2625 309.839 32.4226C306.713 33.165 303.585 34.489 300.585 35.725C297.531 36.9834 294.532 38.4485 291.869 40.4234C289.019 42.537 286.961 45.2542 284.684 47.9313C283.614 49.1894 282.507 50.3976 281.693 51.8469C281.272 52.596 280.892 54.9488 280.134 55.2908C279.311 55.662 277.243 54.6118 276.401 54.4179C274.421 53.962 272.45 53.7717 270.419 53.8634C268.804 53.9357 267.1 53.8926 265.498 54.0901C264.569 54.2047 262.252 55.2363 262.103 56.3901C262.037 56.9028 262.625 57.3291 262.756 57.8096C262.955 58.536 262.626 59.306 262.856 60.0342C263.324 61.519 265.495 62.0652 266.774 62.5327C270.346 63.8386 273.968 64.8513 277.577 66.02C279.145 66.5284 280.486 67.3372 281.906 68.1493C283.085 68.8224 284.159 69.4961 282.969 70.7601C281.842 71.9574 281.982 72.4408 282.319 74.0904C282.672 75.8312 282.795 77.5916 283.257 79.3155C283.716 81.0325 284.575 82.6724 284.408 84.4889C284.24 86.2995 283.491 88.1592 282.791 89.8187C282.083 91.4948 281.302 93.1513 280.533 94.8005C279.822 96.3262 279.052 97.8731 277.406 98.5242C274.264 99.767 270.25 99.5701 266.976 99.1186C263.259 98.6062 259.42 97.7376 255.905 96.4115C252.526 95.1365 248.809 93.1808 246.014 90.8702C244.52 89.6361 242.903 88.7217 241.319 87.617C239.713 86.4977 238.494 84.9883 237.087 83.6482C234.33 81.0215 230.935 79.2116 227.441 77.7676C223.514 76.1443 219.459 76.313 215.297 76.1373C215.952 74.8501 216.795 73.6199 217.105 72.1868C217.427 70.6944 217.194 69.0727 216.989 67.5816C216.593 64.6793 215.842 62.125 214.01 59.7808C213.172 58.709 212.194 57.8733 210.798 57.7176C209.953 57.623 208.391 58.2724 207.781 57.5562C207.512 57.2404 207.575 56.5764 207.405 56.1876C207.256 55.8423 206.954 55.4946 206.791 55.1198C206.092 53.5164 205.221 52.0993 204.35 50.5782C204.004 49.9733 203.736 49.0805 203.264 48.5714C203.007 48.2945 202.677 48.1687 202.533 47.9662C202.264 47.587 202.14 46.894 201.916 46.4662C201.532 45.7341 201.044 45.0537 200.48 44.4495C199.58 43.4838 198.421 42.6315 197.186 42.1505C196.5 41.8831 195.998 41.8199 195.282 41.8591C195.072 41.8705 194.838 41.9915 194.628 41.9756C194.126 41.9373 194.205 41.7573 193.802 41.6736C191.109 41.1128 187.498 41.8997 184.972 42.8658C182.311 43.8833 180.15 45.225 178.533 47.6361C174.56 53.5576 175.486 61.2032 177.171 67.7253C176.152 67.4577 175.137 67.1413 174.108 66.9145C173.478 66.7754 172.618 66.8016 172.055 66.4689C170.803 65.7288 171.822 63.8299 171.829 62.6031C171.848 59.4853 170.377 54.6101 167.169 53.2933C163.826 51.921 159.758 55.7725 157.692 57.9566C156.366 59.3578 155.161 60.8679 153.892 62.3192C153.005 63.3339 151.835 64.9512 150.28 64.6862C146.891 64.1082 147.925 57.6588 148.075 55.479C148.313 52.0332 148.82 48.5319 148.823 45.0772C148.825 42.9771 148.461 40.144 145.883 39.8978C142.333 39.5591 138.971 42.7875 136.902 45.2714C131.444 51.821 130.238 60.4784 131.698 68.6975C131.912 69.9025 132.595 71.389 131.291 72.137C129.579 73.1198 127.389 73.7148 125.548 74.4367C121.431 76.0497 117.62 78.2013 113.744 80.3043C109.907 82.3868 106.132 84.4537 102.67 87.1365C99.2192 89.8111 95.8033 92.6449 92.6596 95.6771C91.0931 97.1885 89.581 98.7653 88.1546 100.411C86.8125 101.959 85.7251 103.717 84.2662 105.164C83.2731 106.149 81.4463 107.469 81.2281 108.972C81.0518 110.185 83.0974 111.026 84.0205 111.587C84.6533 111.971 85.092 111.959 85.1378 112.645C85.1942 113.499 84.2934 114.869 83.9727 115.684C83.1556 117.762 82.0877 119.484 80.6836 121.214C77.5738 125.045 73.8158 128.294 70.2488 131.697C66.9348 134.86 63.6872 137.973 61.2578 141.897C60.6624 142.859 59.1811 144.833 60.5891 145.733C60.9533 145.966 62.0712 146.15 62.4421 145.9C62.902 145.59 62.6689 145.123 63.2121 144.812C63.076 145.857 67.8207 143.816 68.1899 143.626C69.187 143.115 70.0888 142.516 71.1081 142.058C71.7061 141.79 71.7785 141.415 72.2414 141.116C72.489 140.955 72.492 141.17 72.8231 141.071C73.1212 140.98 73.8212 140.946 74.0436 140.659C74.0496 140.651 74.2926 139.955 74.0861 140.099C74.8943 139.536 75.3721 140.388 74.887 141.188C73.4523 143.55 71.6384 145.288 71.0763 148.127C70.8721 149.159 70.5238 151.073 71.1533 152.013C71.1762 152.047 71.388 151.948 71.4139 151.984C71.4378 152.019 71.6689 152.34 71.7639 152.431C72.32 152.963 72.2842 153.2 73.2125 153.178C73.6243 153.168 74.4454 153.115 74.8222 152.93C75.1058 152.79 75.2442 152.445 75.4624 152.322C75.6829 152.197 75.657 152.133 75.8638 152.06C75.9063 152.045 75.9877 152.407 76.0683 152.392C76.5106 152.309 76.7012 152.045 77.0771 151.832C78.1598 151.219 79.2213 150.545 80.2523 149.928C81.2902 149.306 82.0655 148.44 83.0991 147.719C84.1975 146.952 85.0956 146.364 85.9403 145.3C86.525 144.564 87.2229 144.295 87.6154 143.933C88.0812 143.502 88.8844 141.84 89.6351 141.642C89.9771 141.552 90.2507 141.855 90.438 141.731C90.6488 141.591 90.4191 141.324 90.5247 141.167C90.7222 140.874 90.7468 140.825 91.0828 140.556C91.5128 140.212 92.0414 140.12 92.4023 139.672C92.8037 139.172 92.8588 138.613 93.3526 138.146C94.5406 137.022 95.5981 135.838 96.8568 134.748C96.3707 137.459 95.889 140.151 96.2658 142.908C96.6307 145.58 97.7646 146.777 99.9902 148.133C100.48 148.432 100.994 148.866 101.521 149.078C101.84 149.206 102.322 149.13 102.56 149.224C103.368 149.544 103.093 150.2 103.204 150.938C103.375 152.082 104.427 152.962 105.105 153.854C105.676 154.604 106.706 156.309 107.66 156.568C108.523 156.802 109.336 155.793 110.054 155.364C111.137 154.716 112.317 154.252 113.459 153.723C115.689 152.689 117.844 151.456 120.049 150.363C121.057 149.864 122.074 149.661 123.14 149.339C124.421 148.951 125.513 148.211 126.742 147.705C128.95 146.797 131.066 145.712 133.261 144.758C137.804 142.783 142.759 141.426 146.802 138.463C148.631 137.123 150.986 136.98 152.788 135.678C154.667 134.32 153.515 132.243 152.71 130.577C150.513 126.024 149.201 121.296 146.176 117.149C144.604 114.994 143.152 112.767 141.781 110.477C140.568 108.449 140.593 106.153 140.288 103.863C140.085 102.333 139.894 100.796 139.645 99.272C139.487 98.3034 138.977 97.0832 139.594 96.2057C140.256 95.2623 141.83 94.8609 142.824 94.3632C144.06 93.745 145.257 93.0796 146.539 92.556C149.469 91.36 152.555 90.5322 155.629 89.8014C156.546 89.5836 160.469 88.0254 161.216 88.9381C160.299 89.5514 160.031 90.6647 159.619 91.6193C159.007 93.0414 158.374 94.3964 157.927 95.8866C157.004 98.9681 156.218 102.099 155.465 105.226C154.717 108.33 153.826 111.459 153.597 114.658C153.48 116.29 153.56 117.924 153.557 119.558C153.554 121.302 153.193 123.013 153.257 124.761C153.3 125.924 153.398 127.321 154.079 128.313C154.71 129.232 155.783 129.334 156.718 129.826C157.952 130.474 158.435 130.751 158.446 132.162C158.46 133.807 158.353 135.422 158.507 137.065C159.043 142.788 160.965 149.58 164.803 153.999C165.058 154.293 172.503 163.684 173.327 162.309C173.895 162.982 174.744 163.227 175.442 163.814C176.54 164.735 177.618 165.471 178.526 166.612C180.178 168.688 181.583 171.122 181.996 173.776C182.351 176.061 182.138 178.793 180.849 180.773C179.557 182.76 176.794 184.063 174.708 185.041C171.966 186.326 169.184 186.471 166.207 186.149C164.738 185.99 163.28 185.741 161.822 185.507C161.215 185.409 160.508 185.409 159.933 185.18C159.318 184.935 159.109 184.664 158.494 184.634C158.035 184.612 157.784 184.713 157.298 184.612C156.697 184.486 156.045 184.258 155.446 184.104C154.779 183.932 154.233 183.688 153.619 183.373C153.05 183.082 152.41 183.026 151.863 182.75C150.92 182.273 150.629 181.478 149.353 181.919C148.007 182.384 148.288 183.549 147.429 184.348C146.665 185.058 145.718 184.402 144.958 183.98C143.839 183.358 142.677 182.841 141.485 182.371C140.199 181.863 138.884 181.421 137.545 181.071C136.08 180.688 134.471 180.613 133.06 180.055C131.819 179.566 131.286 178.62 130.387 177.736C129.442 176.806 128.16 176.451 126.851 176.534C124.465 176.685 122.836 179.264 121.576 181.055C118.055 186.059 114.164 190.322 109.458 194.253C107.21 196.13 104.675 197.727 102.501 199.676C101.584 200.498 100.918 201.269 99.8315 201.881C98.4048 202.685 97.1102 203.693 95.7462 204.6C90.4114 208.146 86.4984 213.311 87.9737 220.056C88.6377 223.091 89.9642 225.222 92.4425 227.049C93.5677 227.878 94.5974 228.568 96.0307 228.52C97.3841 228.475 98.5781 228.428 97.7809 226.817C98.7909 227.13 99.6363 227.902 100.739 228.297C102.009 228.752 103.662 229.036 105.011 229.064C107.171 229.108 109.711 227.969 111.602 227.486C112.131 227.352 113.15 227.131 113.752 226.633C114.231 226.238 114.127 225.771 114.853 225.583C115.803 225.337 116.165 225.624 117.075 225.049C118.395 224.213 119.827 223.716 121.196 222.946C123.041 221.908 124.815 220.738 126.643 219.669C126.887 220.341 128.319 224.333 129.203 222.408C129.973 220.733 127.474 219.299 128.993 217.602C130.442 215.985 130.745 217.686 132.151 218.436C134.103 219.479 133.81 217.532 133.242 216.378C133.016 215.917 132.539 215.222 132.679 214.684C132.95 213.645 133.79 214.254 134.451 214.36C135.492 214.528 136.333 214.241 137.114 213.543C137.765 212.961 138.843 212.458 139.237 211.691C139.434 211.307 139.468 210.779 139.632 210.371C139.848 209.833 140.002 209.964 140.081 209.297C140.005 208.952 139.975 208.603 139.991 208.249C140.162 208.215 140.332 208.18 140.502 208.145C140.508 208.121 140.52 207.448 140.451 207.548C140.61 207.317 140.953 207.219 141.149 206.898C141.33 206.602 141.162 206.036 141.235 205.687C141.382 204.98 141.784 204.41 142.112 203.781C142.807 206.72 142.606 209.786 143.27 212.727C143.815 215.142 145.056 217.306 146.505 219.286C147.176 220.204 148.065 220.855 148.768 221.727C149.362 222.465 149.66 223.115 150.537 223.551C151.121 223.84 151.778 223.99 152.38 224.24C152.765 224.4 153.64 225.137 154.001 225.124C153.687 225.136 154.592 225.164 154.383 225.128C154.398 225.13 154.275 224.734 154.385 224.74C155.697 225.983 157.068 225.986 158.587 226.759C159.283 227.113 159.544 227.091 160.285 227.222C161.247 227.391 162.055 227.939 162.976 227.998C164.393 228.088 165.988 228.278 167.466 228.226C167.867 228.211 168.623 227.953 168.938 228.304C169.146 228.536 168.751 230.214 168.726 230.598C168.467 234.627 169.005 238.857 170.705 242.543C172.114 245.6 173.617 249.216 176.109 251.55C178.873 254.137 182.743 255.961 186.439 256.659C190.53 257.431 194.586 256.853 198.69 256.613C202.854 256.369 206.707 255.778 210.723 254.571C214.458 253.448 217.995 251.985 221.569 250.442C224 249.392 227.081 247.882 225.807 244.696C225.499 243.926 224.304 241.784 223.247 242.841C222.312 243.776 223.875 245.545 224.583 246.139C219.25 249.859 212.778 251.089 206.537 252.407C203.11 253.13 199.733 253.1 196.247 253.11C193.293 253.118 190.34 253.203 187.405 252.791C184.749 252.417 181.658 251.717 179.682 249.776C177.615 247.744 175.659 245.319 174.248 242.785C172.7 240.004 172.325 236.998 172.2 233.861C172.134 232.21 172.06 230.539 172.233 228.892C172.358 227.696 172.968 227.554 173.271 226.609C173.971 227.589 174.431 227.227 175.29 226.654C175.845 228.205 175.598 229.816 175.502 231.414C175.41 232.972 175.617 234.551 175.808 236.098C176.131 238.727 177.391 241.469 178.989 243.586C179.712 244.543 180.794 244.947 181.774 245.608C183.023 246.451 184.318 247.235 185.621 247.992C188.076 249.416 190.755 250.633 193.522 250.848C194.491 250.923 195.196 251.428 196.351 251.358C197.036 251.316 197.727 251.081 198.411 251.1C199.097 251.118 199.686 251.338 200.39 251.286C203.317 251.075 206.334 250.116 209.232 249.589C212.37 249.019 215.527 248.405 218.522 247.279C219.82 246.791 220.892 246.162 221.616 244.936C222.134 244.06 221.998 242.49 222.962 241.966C222.331 241.151 222.566 241.007 223.111 240.279C223.366 239.939 224.188 239.04 223.191 239.056C223.494 237.744 222.987 236.474 222.771 235.19C222.678 234.636 222.703 233.796 222.36 233.319C222.16 233.04 221.827 233.035 221.648 232.83C221.463 232.826 221.318 232.749 221.214 232.599C221.202 232.38 221.305 232.246 221.522 232.198C221.472 231.764 221.793 231.92 221.472 231.242C221.034 230.315 220.203 229.509 219.416 228.879C218.745 228.342 218.252 227.39 217.478 227.103C216.471 226.73 215.415 226.326 214.356 225.98C211.957 225.195 209.579 224.895 207.062 225.33C205.909 225.529 204.773 225.774 203.66 226.13C203.008 226.339 202.012 226.902 201.435 226.295C201.236 226.087 200.823 224.317 200.849 224.126C200.952 223.358 202.519 223.048 203.091 222.78C203.965 222.371 205.583 221.933 206.138 221.121C206.37 220.78 206.107 219.333 206.146 219.308C206.512 219.061 208.051 222.573 208.47 222.813C209.076 223.159 210.778 222.702 211.405 222.633C213.274 222.427 215.174 222.311 217.004 221.865C220.514 221.01 223.961 219.687 227.377 218.519C233.875 216.296 240.149 213.366 245.991 209.726C248.719 208.026 251.43 205.854 253.506 203.385C254.442 202.272 255.104 200.952 256.06 199.86C257.163 198.601 256.815 197.465 257.31 195.887C258.311 192.695 259.526 189.795 260.071 186.449C260.632 183.004 260.864 179.487 260.708 175.999C260.401 169.106 260.066 162.571 257.038 156.237C254.262 150.433 250.665 144.762 246.389 139.956C245.395 138.84 244.344 137.776 243.123 136.907C241.809 135.971 240.362 135.238 239.172 134.133C238.195 133.226 237.378 132.158 236.357 131.297C235.103 130.241 233.612 129.774 232.143 129.099C230.735 128.453 229.452 127.612 228.012 127.024C227.136 126.667 226.248 126.336 225.335 126.086C224.66 125.902 223.763 125.89 223.146 125.54C222.17 124.985 221.171 123.37 220.533 122.458C219.602 121.128 219.098 119.58 218.655 118.033C218.116 116.151 217.616 114.258 217.089 112.372C216.909 111.728 216.236 109.486 217.578 110.03C217.97 110.189 218.338 110.896 218.641 111.199C219.214 111.772 219.922 112.285 220.632 112.675C221.779 113.304 222.974 114.062 224.073 114.496C225.042 114.878 226.039 115.627 226.943 116.166C227.08 116.248 227.12 116.529 227.297 116.608C227.713 116.793 227.991 116.283 228.384 116.408C228.921 116.578 229.01 117.085 229.308 117.488C229.74 118.072 229.964 118.118 230.624 118.419C231.359 118.753 231.898 119.414 232.614 119.741C233.484 120.139 235.399 119.83 235.529 121.201C236.881 120.318 238.577 122.033 239.421 122.923C240.27 121.619 241.775 123.146 243.06 122.713C242.349 123.701 242.478 123.603 243.6 123.725C244.547 123.829 245.114 124.458 246.051 124.824C246.699 125.077 247.416 125.502 248.09 125.681C248.727 125.849 249.21 125.471 249.765 125.566C250.147 125.631 250.511 125.962 250.875 126.052C251.336 126.167 251.993 126.307 252.515 126.43C253.15 126.581 253.781 126.443 254.414 126.563C255.152 126.702 255.79 127.142 256.54 127.285C257.376 127.444 258.245 127.338 259.076 127.541C259.833 127.725 260.294 127.938 261.078 127.946C262.249 127.957 263.555 128.112 264.711 127.98C265.326 127.909 265.667 127.597 266.363 127.902C266.828 128.106 267.106 128.734 267.739 128.447C267.071 128.179 267.658 127.135 268.394 127.935C268.569 127.486 268.681 127.236 269.166 127.089C269.142 127.528 269.07 127.968 269.629 128.06C269.672 127.755 269.715 127.45 269.758 127.144C270.974 128.07 271.262 128.397 272.409 127.267C272.378 127.637 272.222 128.055 272.598 128.317C272.838 127.917 273.079 127.518 273.32 127.118C273.726 128.408 275.666 127.963 276.607 127.734C276.971 127.645 277.979 127.505 278.217 127.206C278.382 126.999 278.362 126.837 278.423 126.709C278.477 126.596 277.859 126.319 278.385 126.157C278.781 126.034 279.09 126.903 279.555 126.869C279.97 126.838 280.138 126.135 280.436 125.993C280.465 125.98 280.667 126.276 280.808 126.211C281.026 126.11 281.15 125.844 281.391 125.75C281.913 125.546 282.587 125.597 283.172 125.355C283.913 125.048 284.659 124.901 285.416 124.648C286.375 124.328 286.81 123.698 287.588 123.183C287.77 123.062 287.96 123.132 288.14 123.047C288.381 122.932 288.634 122.662 288.922 122.535C289.823 122.135 290.593 121.863 291.448 121.312C292.21 120.819 293.216 120.456 293.895 119.866C294.46 119.374 294.765 118.657 295.333 118.157C296.149 117.439 298.257 116.539 297.915 115.137C299.279 115.345 299.613 114.462 300.114 113.487C300.591 112.56 301.567 112.282 302.206 111.437C302.481 111.072 302.926 110.565 303.078 110.148C303.169 109.9 302.941 109.641 303.003 109.472C303.286 108.693 304.378 108.353 304.884 107.65C305.527 106.756 305.733 105.626 306.27 104.708C306.376 104.527 306.635 104.42 306.736 104.228C306.801 104.104 306.666 103.797 306.744 103.675C306.932 103.387 307.226 103.287 307.414 103.02C307.869 102.373 307.952 101.453 308.36 100.719C308.461 100.538 308.812 100.034 308.856 99.9261C309.004 99.5648 308.959 99.3274 309.035 98.9253C309.058 98.8045 309.291 98.1049 309.339 98.0049C309.489 97.6928 309.634 97.6467 309.864 97.304C310.438 96.4464 310.794 95.0993 310.841 94.0581C310.862 93.6165 310.714 93.1599 310.875 92.7386C311.012 92.3743 311.437 92.1496 311.598 91.768C312.018 90.7676 311.949 89.3532 312.065 88.2831C312.191 87.1166 312.564 85.9668 312.667 84.809C312.717 84.2485 312.454 83.7522 312.473 83.2242C312.496 82.6196 312.809 82.5067 312.93 82.0037C313.068 81.4293 312.866 80.7675 312.989 80.1516C313.104 79.5785 313.271 79.0483 313.318 78.4606C313.442 76.9299 313.267 75.3285 313.201 73.7972C313.175 73.2029 313.096 72.583 313.253 72.0012C313.38 71.5331 313.896 71.0095 313.879 70.5018C313.827 68.9326 312.572 70.2906 311.85 70.183C311.012 70.0579 310.857 68.1759 310.636 67.462C310.096 65.7182 309.556 63.9744 309.016 62.2309C311.59 61.5605 314.267 61.7537 316.896 61.5728C319.478 61.3952 322 60.8347 324.504 60.2035C326.618 59.6709 328.931 59.3618 330.831 58.2243C332.427 57.2693 333.743 55.156 332.81 53.2913Z" fill="black"/>
<path fill-rule="evenodd" clip-rule="evenodd" d="M82.8169 87.0479C83.8465 86.5127 83.5869 85.7729 84.3433 85.0856C88.5753 81.2393 93.5422 77.8808 98.52 75.1077C103.764 72.1858 109.649 70.9487 115.009 68.3595C115.731 68.0112 116.667 67.4667 116.398 66.4965C116.084 65.3629 115.004 65.8846 114.235 66.1522C111.671 67.0437 108.942 67.3794 106.342 68.1626C100.791 69.8344 95.5928 72.7174 90.8906 76.0919C88.155 78.0545 85.5343 80.2247 83.1981 82.6624C82.3378 83.5596 81.1906 84.6065 80.9668 85.8991C80.6896 87.4988 81.6352 87.6622 82.8169 87.0479Z" fill="black"/>
<path fill-rule="evenodd" clip-rule="evenodd" d="M98.8474 187.615C98.8228 186.201 97.2832 186.715 96.4913 186.905C93.2712 187.678 90.3928 188.27 87.5434 190.06C82.2548 193.381 78.2478 198.427 75.6553 204.012C75.31 204.755 73.9201 207.11 75.0341 207.811C75.7685 208.274 76.2141 206.927 76.4884 206.427C77.8846 203.883 79.7542 201.631 81.6342 199.42C85.8078 194.512 90.8252 191.397 96.828 189.123C97.5644 188.844 98.866 188.643 98.8474 187.615Z" fill="black"/>
<path fill-rule="evenodd" clip-rule="evenodd" d="M276.81 152.892C275.696 150.651 273.895 147.886 271.403 146.963C270.024 146.452 269.208 147.297 269.618 148.709C269.943 149.832 271.029 150.381 271.841 151.125C273.928 153.042 275.214 155.903 275.976 158.56C276.782 161.368 276.943 164.416 276.928 167.324C276.921 168.859 276.511 170.193 276.288 171.687C276.201 172.275 276.052 173.57 276.727 173.936C278.223 174.749 278.914 170.505 279.067 169.689C279.629 166.679 279.575 163.908 279.101 160.903C278.667 158.155 278.059 155.405 276.81 152.892Z" fill="black"/>
<path fill-rule="evenodd" clip-rule="evenodd" d="M272.531 45.208C273.14 44.3874 272.696 43.2386 272.877 42.303C273.066 41.3223 273.633 40.3303 274.111 39.4724C275.146 37.6204 276.299 35.8017 277.528 34.0743C278.798 32.2905 280.346 30.7706 281.695 29.0567C282.151 28.4769 282.96 27.6482 282.762 26.9503C282.443 25.8205 281.748 26.3712 281.191 26.8447C278.147 29.4338 275.465 32.6262 273.3 35.9792C272.272 37.5706 271.301 39.3133 270.961 41.201C270.785 42.176 270.783 43.1932 271.073 44.1478C271.254 44.7477 271.8 46.1941 272.531 45.208Z" fill="black"/>
<path fill-rule="evenodd" clip-rule="evenodd" d="M84.8974 183.316C86.4231 183.175 87.9574 183.125 89.4868 183.046C90.6186 182.988 91.892 183.058 92.9309 182.513C93.9765 181.965 93.5219 181.143 92.6527 181.021C92.153 180.951 91.3096 181.289 90.774 181.312C90.194 181.337 89.6109 181.319 89.0305 181.321C87.3342 181.328 85.5064 181.315 83.8708 181.878C83.3365 182.063 82.5274 182.347 82.3076 182.958C81.8377 184.264 84.1899 183.382 84.8974 183.316Z" fill="black"/>
<path fill-rule="evenodd" clip-rule="evenodd" d="M98.2567 63.8047C100.472 63.5391 102.614 62.875 104.797 62.4517C106.872 62.0496 107.226 60.4134 104.768 60.4867C103.943 60.5113 95.9893 62.0204 98.2567 63.8047Z" fill="black"/>
<path fill-rule="evenodd" clip-rule="evenodd" d="M281.341 145.871C279.852 145.498 280.622 147.149 281.083 147.66C281.935 148.604 282.4 149.311 282.653 150.569C282.801 151.302 282.663 152.957 283.284 153.517C283.897 154.069 283.939 153.703 284.048 153.022C284.355 151.102 283.742 146.472 281.341 145.871Z" fill="black"/>
<path fill-rule="evenodd" clip-rule="evenodd" d="M264.999 41.3828C265.421 40.9358 264.969 38.992 265.018 38.4223C265.079 37.7321 265.243 37.148 265.448 36.5003C265.548 36.1862 266.051 35.0776 265.78 34.7334C265.405 34.2563 264.781 35.0625 264.584 35.3799C263.942 36.4128 263.792 38.1351 263.899 39.2982C263.937 39.7193 264.192 42.2379 264.999 41.3828Z" fill="black"/>
<path fill-rule="evenodd" clip-rule="evenodd" d="M177.354 205.295C177.424 204.194 178.484 203.431 178.487 202.26C178.491 200.944 177.606 200.374 176.503 201.229C175.838 201.745 175.321 203.001 174.422 203.166C172.618 203.496 171.911 200.257 170.135 200.632C168.597 200.956 169.405 203.598 169.869 204.489C170.361 205.434 171.254 206.096 170.963 207.258C170.618 208.638 169.434 209.434 169.894 211.009C170.75 213.936 172.608 211.199 173.726 210.28C174.522 209.624 175.003 209.74 175.777 210.383C176.836 211.264 177.645 211.862 178.93 212.455C180.063 212.978 181.156 213.343 181.191 211.588C181.219 210.207 180.176 208.833 179.261 207.896C178.501 207.119 177.276 206.52 177.354 205.295Z" fill="black"/>
<path fill-rule="evenodd" clip-rule="evenodd" d="M157.503 200.928C156.178 199.515 154.504 203.12 153.433 203.518C151.696 204.165 151.297 200.7 149.698 200.809C148.454 200.894 148.552 202.677 148.823 203.49C149.115 204.365 149.988 205.081 150.134 205.978C150.358 207.353 147.758 210.101 149.572 211.429C151.122 212.563 151.699 208.732 153.636 210.295C154.587 211.062 157.248 213.917 158.567 212.496C160.124 210.817 156.419 207.95 155.743 206.673C154.828 204.944 159.446 202.999 157.503 200.928Z" fill="black"/>
<path fill-rule="evenodd" clip-rule="evenodd" d="M189.614 151.829C189.234 151.661 188.62 151.938 188.208 151.92C187.767 151.902 187.307 151.701 186.871 151.627C185.925 151.465 184.26 151.699 183.588 150.855C182.903 149.995 183.424 148.267 183.131 147.22C182.972 146.65 182.788 145.948 182.021 146.202C181.131 146.496 181.153 148.13 181.046 148.847C180.89 149.904 180.764 150.711 179.701 151.087C178.914 151.365 178.086 151.225 177.45 151.872C176.984 152.345 176.67 153.21 177.034 153.829C177.582 154.759 178.769 154.277 179.592 154.571C180.848 155.019 180.549 157.07 180.806 158.248C180.971 159.005 181.333 161.124 182.42 161.09C183.902 161.043 183.326 158.066 183.244 157.197C183.161 156.316 182.963 155.568 183.946 155.294C184.777 155.063 185.938 155.492 186.797 155.487C187.881 155.48 189.158 155.208 189.812 154.236C190.186 153.681 190.422 152.185 189.614 151.829Z" fill="black"/>
<path fill-rule="evenodd" clip-rule="evenodd" d="M244.059 188.468C246.414 188.671 244.987 191.574 246.55 192.727C248.041 193.828 248.242 190.79 248.242 189.922C248.241 187.82 250.797 188.597 252.353 188.249C253.681 187.953 255.131 186.574 253.545 185.399C252.4 184.551 250.502 184.944 249.174 184.72C247.373 184.415 247.908 183.213 247.868 181.828C247.854 181.32 247.679 179.509 247.023 179.366C245.821 179.105 245.75 182.478 245.669 183.119C245.326 185.835 243.461 184.181 241.979 185.542C240.042 187.322 242.655 188.346 244.059 188.468Z" fill="black"/>
<path fill-rule="evenodd" clip-rule="evenodd" d="M132.023 137.836C128.342 140.853 124.163 140.42 120.795 137.173C119.371 135.8 118.51 134.416 118.637 132.406C118.752 130.598 119.283 128.6 120.731 127.379C121.95 126.349 124.249 125.98 125.793 125.836C127.957 125.635 129.893 126.813 131.39 128.285C132.694 129.567 134.217 131.2 134.418 133.104C134.63 135.106 133.489 136.634 132.023 137.836ZM132.582 125.832C129.281 122.653 123.427 122.972 120.019 125.871C116.193 129.126 115.539 135.239 119.216 138.804C123.09 142.562 128.205 142.156 132.306 139.039C134.506 137.368 135.7 135.223 136.006 132.47C136.295 129.869 134.388 127.57 132.582 125.832Z" fill="black"/>
<path fill-rule="evenodd" clip-rule="evenodd" d="M196.417 71.1094C196.046 72.3134 196.303 73.596 196.369 74.8225C195.322 74.1677 194.671 73.0003 193.547 72.4578C193.008 73.9466 195.693 78.2049 197.383 76.8091C198.93 75.5317 197.788 71.9674 196.417 71.1094Z" fill="black"/>
<path fill-rule="evenodd" clip-rule="evenodd" d="M201.908 78.451C201.075 78.7614 200.301 78.6754 199.479 78.8345C198.937 78.9394 198.867 78.6312 198.796 79.2518C198.647 80.5763 200.784 81.0886 201.746 81.07C202.921 81.0471 204.208 80.2572 204.095 78.9712C203.977 77.6315 202.814 78.1136 201.908 78.451Z" fill="black"/>
<path fill-rule="evenodd" clip-rule="evenodd" d="M202.591 72.8844C202.213 72.5411 201.342 71.2449 200.703 71.4667C200.213 71.6367 200.559 72.222 200.703 72.5149C201.241 73.6132 202.296 74.5479 203.14 75.4291C202.515 75.6509 201.312 75.7937 201.63 76.7553C201.922 77.6385 203.246 77.5027 203.88 77.1308C206.053 75.8568 203.678 73.8716 202.591 72.8844Z" fill="black"/>
<path fill-rule="evenodd" clip-rule="evenodd" d="M204.785 70.7993C204.933 71.4059 205.013 71.9783 204.685 72.5471L202.875 69.3008C201.419 69.8985 203.973 74.5755 205.46 74.0578C206.489 73.6999 205.994 71.5015 205.832 70.8099C205.745 70.4397 205.538 69.2623 205.025 69.1428C204.015 68.9077 204.674 70.352 204.785 70.7993Z" fill="black"/>
<path fill-rule="evenodd" clip-rule="evenodd" d="M130.115 136.276C129.275 135.657 127.884 137.107 126.997 137.112C125.203 137.122 126.18 135.017 125.057 134.335C124.472 133.98 122.02 134.338 122.408 132.866C122.64 131.98 123.551 132.619 124.05 132.078C124.676 131.4 123.784 130.858 123.228 130.58C123.472 130.255 124.877 130.112 125.23 130.337C125.839 130.726 125.803 131.892 126.362 132.492C127.087 131.566 126.694 130.403 127.466 129.572C127.766 129.249 128.643 129.006 128.302 128.43C128.104 128.096 127.238 128.206 126.942 127.94C126.683 127.708 126.696 126.96 126.278 126.898C125.596 126.796 125.612 127.839 125.408 128.14C124.791 129.045 122.082 128.732 123.205 130.568C122.457 130.195 120.416 129.9 120.812 131.203C120.913 131.536 121.299 131.74 121.395 132.12C121.478 132.449 121.295 132.918 121.278 133.248C121.246 133.875 121.195 134.607 121.659 135.111C122.296 135.804 123.147 135.3 123.831 135.601C124.762 136.012 124.426 136.865 124.917 137.611C125.561 138.586 126.549 138.287 127.46 137.991C128.546 137.639 128.717 137.607 129.511 138.512C129.875 138.042 130.87 136.833 130.115 136.276Z" fill="black"/>
<path fill-rule="evenodd" clip-rule="evenodd" d="M131.575 132.466C130.699 132.304 131.044 129.693 129.978 130.828C129.578 131.253 129.988 132.082 129.542 132.537C129.242 132.844 128.862 132.663 128.563 132.864C128.293 133.044 128.225 133.389 128.066 133.652C128.63 133.906 129.066 133.939 129.667 133.828C129.667 134.282 129.366 135.616 130.139 135.518C130.859 135.427 130.655 134.088 131.022 133.672C131.393 133.249 132.891 133.445 133.031 132.851C133.203 132.114 131.958 132.537 131.575 132.466Z" fill="black"/>
</svg>
