<svg width="319" height="296" viewBox="0 0 319 296" fill="none" xmlns="http://www.w3.org/2000/svg">
<path fill-rule="evenodd" clip-rule="evenodd" d="M140.467 1.08613C169.905 6.30217 181.489 41.819 204.917 60.451C226.83 77.8786 259.567 81.5994 272.788 106.322C286.871 132.653 282.115 164.427 276.186 193.712C269.581 226.328 263.821 263.205 237.044 282.847C210.25 302.501 173.626 294.71 140.467 293.265C108.876 291.889 71.4379 297.824 49.7955 274.69C28.2463 251.656 38.7434 214.637 37.3776 183.074C36.408 160.669 40.0631 139.917 43.0013 117.686C46.7894 89.0235 38.5294 56.403 57.0466 34.2506C76.75 10.6792 110.274 -4.26362 140.467 1.08613Z" fill="#EDEDED"/>
<path fill-rule="evenodd" clip-rule="evenodd" d="M167.04 127.208C166.792 126.851 166.351 127.276 166.536 127.534C166.704 127.425 166.872 127.317 167.04 127.208ZM173.867 129.192C173.589 129.054 173.495 129.272 173.386 129.522C173.354 129.596 173.32 129.672 173.281 129.743C173.53 129.88 173.645 129.64 173.761 129.396C173.795 129.326 173.83 129.254 173.867 129.192ZM169.059 120.624C168.502 119.914 168.461 120.152 168.415 120.962C168.523 120.906 168.63 120.85 168.738 120.793C168.845 120.737 168.952 120.681 169.059 120.624ZM245.23 82.1828C244.528 82.5113 244.453 82.7499 245.021 83.1517C245.088 82.8391 245.137 82.6099 245.23 82.1828ZM166.793 115.324C166.959 115.868 167.638 115.985 167.638 115.324H166.793ZM219.386 87.3371C219.791 87.4659 219.997 87.5318 220.179 87.4901C220.369 87.4469 220.532 87.287 220.866 86.9604C220.701 87.0024 220.554 87.04 220.413 87.0758C220.3 87.1047 220.19 87.1324 220.079 87.1607C219.867 87.2148 219.649 87.2702 219.386 87.3371ZM200.612 143.007C200.373 142.669 200.133 142.331 199.894 141.994C199.813 142.242 199.733 142.49 199.652 142.739L199.651 142.74L199.592 142.923C199.932 142.951 200.272 142.979 200.612 143.007ZM249.121 73.8803C249.026 74.3313 248.979 74.5543 249.068 74.6819C249.155 74.8066 249.373 74.8399 249.803 74.9061L249.48 74.4206L249.44 74.3596C249.341 74.2115 249.238 74.0566 249.121 73.8803ZM245.323 75.2912C245.294 75.1444 245.264 74.9973 245.234 74.8505L245.229 74.8281C245.201 74.6887 245.173 74.5494 245.144 74.4097C245.093 74.634 244.899 74.6218 244.71 74.6097C244.547 74.5994 244.389 74.5895 244.328 74.7304C244.029 75.4278 244.98 75.3332 245.323 75.2912ZM172.996 127.329C172.787 126.916 172.741 126.884 172.286 126.797C172.403 127.209 172.403 127.531 172.402 127.943V128.029C173.146 127.923 173.379 127.869 173.393 127.079L172.996 127.329ZM170.828 128.787C170.73 129.152 170.452 129.064 170.215 128.988C170 128.92 169.819 128.862 169.836 129.162C169.826 128.989 170.688 130.129 170.639 130.092C171.073 130.419 171.326 130.389 171.818 130.013C171.116 129.987 171.036 129.637 170.927 129.166C170.899 129.047 170.87 128.919 170.828 128.787ZM250.736 74.9497C250.583 75.3012 250.43 75.653 250.277 76.0045L250.244 76.0823C250.102 76.4079 249.96 76.7336 249.818 77.059C249.754 77.2068 249.704 77.3371 249.661 77.4497C249.458 77.9828 249.403 78.1275 248.66 77.8939C248.685 77.8503 248.746 77.7642 248.822 77.6562V77.6559C249.052 77.3309 249.421 76.808 249.38 76.6496C249.341 76.5006 248.975 76.3165 248.643 76.1498C248.438 76.0465 248.246 75.9501 248.153 75.8726C247.884 75.6487 247.786 75.4446 247.682 75.2287C247.621 75.1018 247.558 74.9702 247.457 74.8284C247.565 74.4725 247.481 74.3061 247.203 74.3301C247.124 74.545 247.044 74.7596 246.964 74.9743L246.959 74.988L246.897 75.1547C246.911 75.4853 247.075 75.6116 247.268 75.76C247.416 75.8742 247.581 76.0011 247.708 76.244L247.732 76.2904C247.916 76.6422 247.969 76.7436 247.94 76.8077C247.928 76.8335 247.902 76.8531 247.866 76.8808C247.792 76.9383 247.674 77.0301 247.539 77.283C247.416 77.5159 247.33 77.7713 247.247 78.0196C247.088 78.4921 246.938 78.9397 246.552 79.1624C246.869 79.3014 247.185 79.4405 247.502 79.5792C246.762 80.3905 248.3 79.9954 248.554 79.9167L248.553 79.9183L248.553 79.9198C248.293 80.471 248.033 81.0219 247.774 81.5731C247.198 81.2505 246.837 80.714 246.478 80.1802C246.352 79.9926 246.227 79.805 246.091 79.6274C245.696 80.3615 245.301 81.096 244.906 81.8304C245.086 81.8139 245.266 81.7971 245.446 81.7806C245.659 81.761 245.873 81.7414 246.085 81.7215C246.073 81.7451 246.038 81.7996 245.991 81.8714L245.991 81.8717C245.831 82.1184 245.537 82.5713 245.57 82.6936C245.649 82.9844 245.965 83.0699 246.274 83.1536C246.65 83.2556 247.017 83.3549 246.936 83.8171C246.916 83.925 245.718 85.1341 245.512 85.2508C245.639 85.3077 245.751 85.3475 245.847 85.3821C246.208 85.5105 246.342 85.5584 246.171 86.1199C245.891 85.951 245.612 85.7818 245.332 85.6126C245.279 85.7068 245.225 85.8004 245.171 85.8944L245.17 85.8947C244.978 86.2269 244.784 86.5613 244.666 86.9265C244.695 87.2329 244.64 87.5231 244.502 87.7974C244.337 88.0429 244.151 88.2718 243.945 88.484C243.781 88.9148 243.728 91.2664 243.926 91.6499C244.365 91.0816 245.349 92.0848 243.689 92.0848C243.551 92.0848 243.44 92.0795 243.35 92.0748C242.969 92.0559 242.958 92.0552 242.734 92.5719C242.515 93.0743 242.397 93.5126 243.016 93.5608C242.642 94.298 242.633 94.8993 242.622 95.6141C242.619 95.7889 242.617 95.9706 242.608 96.1625C242.582 96.7756 242.443 97.3856 242.305 97.9903C242.265 98.167 242.225 98.343 242.187 98.5188C242.261 98.413 242.335 98.3073 242.409 98.2012C242.482 98.0954 242.556 97.9897 242.63 97.8836C242.956 98.5788 242.81 99.1841 242.643 99.8797C242.607 100.032 242.569 100.189 242.535 100.351C242.299 100.039 242.181 100.226 242.057 100.423C241.966 100.569 241.87 100.721 241.72 100.678C241.295 100.557 241.309 100.454 241.331 100.293C241.347 100.182 241.366 100.043 241.247 99.8495C241.191 99.7605 241.149 99.6853 241.113 99.6193C240.981 99.3835 240.918 99.2691 240.551 99.0737C240.106 98.8364 239.42 98.7627 238.809 98.697C238.567 98.6709 238.337 98.6463 238.137 98.613C236.971 98.4186 235.803 98.3679 234.623 98.3166L234.576 98.3144C230.1 98.1203 225.639 98.0705 221.164 98.3166C217.046 98.543 212.829 99.1204 208.791 99.9024C208.504 99.9581 208.216 100.014 207.929 100.069C203.93 100.841 200.01 101.597 196.125 102.911C195.767 103.032 195.409 103.212 195.05 103.391V103.392C194.604 103.616 194.157 103.839 193.711 103.95C193.397 104.028 193.082 104.073 192.765 104.119C192.313 104.185 191.856 104.251 191.388 104.413C190.335 104.779 189.261 105.096 188.187 105.413C187.319 105.669 186.451 105.925 185.594 106.207C185.045 106.388 184.484 106.56 183.919 106.734C182.356 107.215 180.765 107.705 179.319 108.396C178.886 108.604 178.472 108.848 178.059 109.093C177.657 109.332 177.255 109.57 176.833 109.774C176.656 109.86 176.454 109.944 176.24 110.032C175.479 110.347 174.581 110.719 174.249 111.422C174.083 111.774 174.112 112.028 174.215 112.393C174.405 113.067 174.559 113.052 175.022 113.007C175.061 113.003 175.102 112.999 175.145 112.995C175.637 112.952 176.219 112.695 176.773 112.451C177.098 112.307 177.414 112.168 177.694 112.08C179.77 111.426 181.87 110.902 183.981 110.379C185.574 109.983 187.17 109.459 188.763 108.937C190.959 108.216 193.149 107.498 195.316 107.12C196.431 106.926 197.516 106.564 198.602 106.202C199.678 105.843 200.757 105.483 201.866 105.286C202.026 105.258 202.283 105.165 202.572 105.06C203.17 104.844 203.903 104.579 204.174 104.742C204.245 104.785 204.385 105.143 204.498 105.429C204.554 105.571 204.603 105.695 204.633 105.756C204.962 106.414 205.34 107.049 205.782 107.639C206.761 108.944 207.985 110.062 209.198 111.171L209.198 111.171C209.638 111.572 210.075 111.972 210.5 112.379C211.838 113.664 213.048 115.045 214.262 116.432V116.432C214.702 116.935 215.142 117.438 215.589 117.937C215.669 117.846 215.748 117.754 215.827 117.662L216.027 117.429C215.886 118.521 216.627 119.332 217.312 120.082C217.341 120.114 217.37 120.146 217.399 120.177C217.429 120.21 217.459 120.243 217.488 120.276C218.35 121.233 219.044 122.132 219.723 123.223C220.11 123.843 220.571 124.41 221.028 124.97C221.23 125.218 221.431 125.466 221.625 125.716C221.985 126.182 222.275 126.705 222.568 127.23C222.777 127.609 222.988 127.988 223.227 128.35C223.726 129.106 224.221 129.867 224.717 130.629C225.522 131.866 226.327 133.103 227.144 134.316C227.766 135.237 228.257 136.274 228.748 137.324C228.866 137.575 229.055 137.905 229.262 138.266V138.266C229.741 139.102 230.313 140.103 230.313 140.667C230.285 140.799 230.362 141.155 230.444 141.526C230.605 142.265 230.78 143.067 230.17 142.321C230.128 142.385 230.087 142.449 230.046 142.513L229.985 142.607C229.945 142.67 229.904 142.732 229.864 142.795C229.819 142.863 229.775 142.932 229.73 143C229.981 142.895 230.232 142.79 230.483 142.685C230.003 143.12 230.39 143.316 230.751 143.498C230.962 143.605 231.163 143.706 231.175 143.849C231.117 143.905 231.059 143.96 231.001 144.016L230.795 144.215C230.578 144.662 230.296 144.719 229.95 144.389C229.792 144.399 229.686 144.368 229.585 144.338C229.445 144.296 229.315 144.258 229.067 144.341C229.244 144.617 229.443 144.697 229.628 144.772C229.868 144.868 230.086 144.956 230.203 145.451C230.348 146.073 230.005 146.301 229.55 146.605C229.428 146.686 229.297 146.773 229.166 146.874V146.874L229.15 146.871C229.183 146.384 228.946 146.026 228.518 145.799V146.756C228.636 146.777 228.753 146.799 228.871 146.82L228.874 146.821L229.15 146.871C229.149 146.877 229.149 146.883 229.148 146.888L229.166 146.874C229.065 147.26 228.77 147.189 228.418 147.104C228.356 147.089 228.293 147.074 228.228 147.061C227.468 146.904 226.646 146.638 225.869 146.387C225.625 146.308 225.386 146.23 225.154 146.158C223.052 145.502 220.934 144.95 218.761 144.502C215.071 143.741 211.404 143.573 207.707 143.403H207.707C206.436 143.345 205.161 143.286 203.881 143.203C203.887 143.176 203.893 143.15 203.9 143.126C203.962 142.864 203.988 142.758 203.972 142.658C203.961 142.59 203.931 142.525 203.88 142.414C203.873 142.399 203.865 142.382 203.857 142.364C203.936 142.536 203.794 142.551 203.651 142.566C203.432 142.589 203.21 142.612 203.76 143.193C202.323 143.428 200.816 143.408 199.317 143.389C198.39 143.377 197.467 143.365 196.566 143.414C196.59 143.36 196.621 143.304 196.652 143.248C196.763 143.05 196.876 142.849 196.692 142.711C195.892 143.867 193.75 143.84 191.921 143.816C191.198 143.807 190.524 143.799 190.001 143.864C189.37 143.943 188.744 144.065 188.117 144.186C187.668 144.273 187.22 144.36 186.77 144.432C186.695 144.444 186.619 144.456 186.544 144.467C186.089 144.538 185.632 144.609 185.188 144.729C185.026 144.773 184.826 144.863 184.617 144.958C184.21 145.142 183.763 145.344 183.465 145.263C183.922 144.342 183.699 144.608 183.483 144.866C183.387 144.981 183.291 145.095 183.259 145.099C183.197 145.109 183.125 145.12 183.047 145.133C182.733 145.184 182.314 145.251 181.953 145.251C182.165 144.4 182.44 143.576 182.714 142.752C183.106 141.578 183.496 140.405 183.705 139.155C183.733 138.993 183.765 138.82 183.799 138.639V138.639C184.047 137.327 184.377 135.578 183.225 134.752C182.654 134.342 181.793 134.188 181.046 134.054H181.046C180.853 134.019 180.667 133.986 180.497 133.95C180.213 133.89 179.863 133.85 179.491 133.807C178.67 133.712 177.744 133.605 177.197 133.25C176.964 133.099 176.801 132.952 176.643 132.811C176.383 132.578 176.142 132.362 175.635 132.169C175.45 132.099 175.285 132.029 175.131 131.964C174.508 131.7 174.08 131.518 173.321 131.748C173.383 131.672 173.448 131.598 173.512 131.526C173.845 131.151 174.124 130.836 173.49 130.423C173.367 130.342 173.196 130.338 173.029 130.332C172.776 130.324 172.531 130.317 172.465 130.052C172.054 130.342 172.016 130.592 171.966 130.918C171.948 131.036 171.928 131.166 171.888 131.311C171.901 131.54 171.962 131.759 172.069 131.967L171.689 132.12L171.179 132.325C171.292 132.023 171.14 132.009 170.976 131.993C170.865 131.983 170.749 131.972 170.704 131.871C170.582 131.596 170.604 131.213 170.624 130.869C170.631 130.748 170.637 130.632 170.637 130.527C170.026 130.72 169.386 130.959 169.119 131.595C168.526 131.242 168.589 131.149 168.831 130.793C168.895 130.7 168.971 130.588 169.051 130.449C168.422 130.3 168.289 130.623 168.194 131.144C167.956 131.07 167.717 130.997 167.479 130.924L167.472 130.921L167.198 130.837C167.946 130.831 168.126 130.247 168.143 129.613C168.018 129.653 167.893 129.694 167.768 129.735L167.764 129.736C167.6 129.79 167.435 129.843 167.271 129.897L167.091 130.818C166.675 131.171 165.651 130.623 165.179 130.37L165.178 130.37C165.131 130.345 165.09 130.323 165.055 130.304L164.934 130.242C163.677 129.592 163.219 129.355 163.403 127.815C163.469 127.267 163.567 126.717 163.665 126.167C163.805 125.382 163.946 124.595 163.992 123.807C164.068 122.496 163.942 121.104 163.822 119.776C163.806 119.599 163.79 119.424 163.775 119.249C163.682 118.188 163.567 117.133 163.453 116.079V116.078C163.258 114.283 163.063 112.49 162.973 110.676C162.953 110.259 162.932 109.841 162.91 109.423L162.91 109.423C162.852 108.281 162.794 107.14 162.749 105.998C162.741 105.793 162.723 105.585 162.705 105.38C162.613 104.342 162.528 103.375 163.82 103.283C163.63 102.683 164.197 101.989 164.781 101.66C164.986 101.194 165.209 101.153 165.452 101.535C165.663 101.602 165.859 101.571 166.04 101.442C166.561 101.324 167.145 100.826 167.695 100.358C168.045 100.06 168.381 99.7736 168.678 99.6041C168.882 99.4884 169.15 99.358 169.444 99.2156H169.445C170.234 98.833 171.208 98.3611 171.598 97.8369C171.887 97.4478 171.77 97.301 171.638 97.1355C171.534 97.0048 171.421 96.863 171.491 96.5818C171.693 95.7656 172.396 96.812 172.583 97.091C172.596 97.1097 172.606 97.1252 172.614 97.1361C172.698 97.0518 172.858 96.9439 173.035 96.8235C173.415 96.5672 173.877 96.2543 173.869 95.993L173.131 95.8614C173.21 95.816 173.317 95.7438 173.437 95.6632C173.726 95.4688 174.088 95.2246 174.309 95.1814C174.422 95.1593 174.503 95.1357 174.563 95.118C174.636 95.0962 174.68 95.0831 174.717 95.0931C174.771 95.1068 174.813 95.1668 174.914 95.3121C174.954 95.3699 175.003 95.4411 175.067 95.5282C175.108 95.4639 175.167 95.3578 175.234 95.2355V95.2352C175.407 94.9223 175.638 94.5014 175.8 94.3916C175.864 94.3487 176.111 94.3142 176.331 94.2837C176.485 94.2619 176.626 94.2423 176.682 94.2227C177.068 94.0862 177.219 93.8582 177.364 93.6385C177.479 93.4628 177.592 93.292 177.819 93.1776C177.952 93.111 178.101 93.1346 178.243 93.1573C178.367 93.1772 178.485 93.1959 178.581 93.1536C178.756 93.0774 178.839 92.9041 178.923 92.7309C178.998 92.5738 179.074 92.4167 179.217 92.3312C179.358 92.2469 179.617 92.2459 179.873 92.245C180.092 92.2444 180.31 92.2434 180.453 92.1912C180.799 92.0649 180.903 91.9445 181.05 91.7756C181.122 91.6919 181.205 91.5964 181.333 91.482C181.643 91.2054 181.939 91.1102 182.248 91.0104C182.479 90.9361 182.717 90.8592 182.974 90.7028C183.281 90.5171 183.414 90.2169 183.537 89.94C183.664 89.652 183.781 89.3891 184.07 89.3058C184.396 89.2122 184.617 89.2918 184.797 89.3562C185.034 89.4414 185.198 89.5002 185.432 89.0971C185.469 89.0333 185.424 88.9568 185.373 88.8715C185.298 88.7443 185.211 88.5981 185.368 88.4454C185.65 88.1729 185.789 88.4189 185.918 88.6485C185.937 88.6833 185.957 88.7179 185.976 88.7502L185.977 88.7484L185.979 88.7465C186.149 88.4245 186.32 88.1026 186.49 87.7806C186.994 88.0566 187.061 87.9461 187.18 87.748C187.256 87.622 187.353 87.4606 187.597 87.3402C187.731 87.2742 187.853 87.3025 187.978 87.3315C188.114 87.3626 188.253 87.3946 188.411 87.3081C188.546 87.2354 188.614 87.1109 188.681 86.9878C188.727 86.9047 188.772 86.8223 188.837 86.756C188.931 86.6602 189.012 86.5535 189.093 86.4471C189.28 86.2026 189.465 85.96 189.8 85.8549C189.626 85.909 191.051 85.8679 190.923 85.807C190.785 85.6035 190.646 85.4001 190.507 85.1967C190.658 85.1967 190.805 85.1998 190.95 85.2029H190.95C191.52 85.2144 192.05 85.2256 192.625 85.0467L192.637 85.0433C192.893 84.964 193.283 84.8433 193.492 84.6834L193.51 84.6703C193.768 84.4728 193.881 84.3867 193.928 84.2731C193.964 84.1848 193.96 84.08 193.953 83.8939C193.949 83.7966 193.945 83.6771 193.945 83.526C194.75 84.0386 195.775 83.8594 196.57 83.265C196.748 83.1322 196.898 82.9881 197.048 82.8447C197.247 82.6531 197.446 82.4631 197.706 82.3026C197.901 82.2015 198.1 82.1069 198.302 82.0192C198.554 81.7579 198.807 81.7554 199.061 82.012C199.313 81.9442 199.386 81.8913 199.504 81.8052C199.553 81.7691 199.611 81.7271 199.693 81.6758C199.772 81.5184 199.857 81.3638 199.948 81.2123C200.246 81.1812 200.539 81.1274 200.829 81.0508C201.155 80.9634 201.444 80.8381 201.714 80.7205C202.378 80.4321 202.936 80.1901 203.678 80.6626L203.76 80.4962L203.763 80.4903C203.868 80.2754 203.974 80.0604 204.078 79.8455C204.393 80.3373 204.638 80.1481 204.963 79.8959C205.097 79.792 205.245 79.6775 205.417 79.5954C205.543 79.5354 205.688 79.4983 205.83 79.4623C205.966 79.4274 206.099 79.3935 206.208 79.3406C206.334 79.3702 206.46 79.4 206.586 79.4299C206.693 79.1002 206.799 78.7705 206.905 78.4407C206.962 78.4628 207.062 78.5107 207.185 78.5689C207.527 78.7319 208.04 78.9758 208.228 78.9577C208.429 78.9387 208.653 78.7434 208.872 78.5515C209.052 78.3935 209.229 78.2376 209.389 78.1847C209.699 78.083 209.769 78.1157 209.87 78.1636C209.947 78.2 210.041 78.2445 210.27 78.246C210.324 78.2463 210.374 78.2479 210.421 78.2491C210.733 78.2572 210.92 78.2622 211.227 77.9629C210.234 77.7051 211.105 77.5604 211.719 77.4584C211.844 77.4376 211.959 77.4186 212.044 77.4005C212.262 77.3554 212.45 77.3358 212.621 77.3184C213.065 77.2727 213.386 77.2397 213.78 76.7912H213.214C213.628 76.4145 213.632 76.4154 213.845 76.4614C213.92 76.4773 214.02 76.4991 214.173 76.5118C214.214 76.5153 214.286 76.5395 214.372 76.5691C214.676 76.6727 215.165 76.8391 215.166 76.3793C215.927 76.8276 215.935 76.8285 216.719 76.6263C216.861 76.5896 216.995 76.519 217.13 76.4481C217.323 76.3457 217.518 76.2425 217.744 76.2384C217.921 76.2353 218.074 76.272 218.222 76.3072C218.385 76.346 218.541 76.3831 218.715 76.3641C218.894 76.3451 219.473 76.133 219.759 76.0278C219.792 76.0157 219.821 76.0051 219.845 75.9964C220.026 75.9302 220.178 75.8275 220.327 75.7264C220.484 75.62 220.637 75.5155 220.82 75.458C221.029 75.392 221.269 75.4029 221.509 75.4138C221.721 75.4234 221.932 75.4331 222.125 75.3908C222.525 75.3027 222.872 75.1653 223.203 75.0337C223.886 74.7621 224.505 74.5164 225.399 74.7842C225.537 73.6289 226.94 73.8464 227.751 73.972L227.819 73.9826C227.968 74.0056 228.097 74.0383 228.217 74.0691C228.546 74.1528 228.811 74.2203 229.232 74.0209C229.435 73.9247 229.601 73.8041 229.765 73.684C229.979 73.5275 230.193 73.372 230.487 73.2721C230.822 73.1583 231.256 73.0706 231.633 72.9941C231.705 72.9794 231.775 72.9654 231.841 72.9514C232.099 72.8699 232.363 72.8438 232.632 72.8734C232.919 72.9138 233.157 73.0441 233.346 73.2641C233.341 73.2762 233.345 73.2827 233.36 73.2815C233.356 73.2756 233.351 73.27 233.346 73.2641C233.387 73.167 234.015 72.701 233.943 72.7586C234.09 72.6407 234.213 72.5741 234.321 72.5153C234.557 72.3872 234.723 72.297 234.92 71.7955C234.753 71.7604 234.585 71.7249 234.418 71.6895C234.25 71.6543 234.083 71.6189 233.915 71.5834C233.974 71.5793 234.032 71.5753 234.089 71.5709C234.523 71.5383 234.874 71.5122 235.282 71.6901C235.417 71.7492 235.591 71.9159 235.771 72.0882C236.015 72.3222 236.27 72.5663 236.454 72.5667C237.03 72.5673 237.232 71.7551 237.174 71.3324C237.658 72.4587 238.071 72.6463 239.157 72.0705C239.221 72.0366 239.285 72.003 239.349 71.9691L239.356 71.9648C239.418 71.9324 239.479 71.9001 239.54 71.8674C239.798 71.5965 240.055 71.6014 240.311 71.8826C240.463 71.9654 240.614 72.0478 240.766 72.1305L240.882 71.9389C241.026 71.6991 241.17 71.4593 241.314 71.2191C241.702 71.7529 242.07 71.7791 242.702 71.6543C242.917 71.612 243.243 71.3986 243.558 71.193C243.881 70.9815 244.191 70.7787 244.354 70.7787C244.443 70.7787 244.543 70.8819 244.658 70.9995C244.784 71.1286 244.926 71.2751 245.089 71.3215C245.603 71.4689 246.402 71.0981 246.585 70.606C246.683 70.8113 246.78 71.017 246.877 71.2226C246.938 71.1663 246.998 71.1096 247.059 71.0533C247.241 70.8829 247.424 70.7121 247.605 70.5404C247.67 71.1006 248.098 71.0919 248.471 71.0845C248.746 71.0789 248.991 71.0739 249.038 71.2975C249.095 71.5594 248.331 72.1277 247.875 72.4662C247.754 72.5561 247.655 72.6301 247.599 72.6774C248.319 73.1116 249.204 72.3533 249.856 71.7955C249.988 71.6826 250.11 71.5778 250.219 71.4929C250.554 71.8559 250.667 72.0466 250.36 72.4618C250.078 72.8432 249.949 72.7636 249.8 72.6709C249.662 72.5853 249.507 72.4889 249.198 72.7337C249.411 73.0927 249.604 73.0025 249.846 72.8895C249.908 72.8603 249.973 72.8298 250.043 72.8049C249.956 73.311 250.033 73.3353 250.164 73.3763C250.258 73.4059 250.379 73.4442 250.487 73.6731C250.647 74.0106 250.672 74.2815 250.701 74.6088C250.711 74.7152 250.721 74.8274 250.736 74.9497ZM151.493 118.711C151.783 118.686 151.866 118.82 151.939 118.941C152.002 119.043 152.058 119.135 152.229 119.113C152.374 119.094 152.491 118.94 152.611 118.783C152.715 118.646 152.822 118.506 152.951 118.449C153.538 118.193 154.389 118.153 155.171 118.117C155.538 118.1 155.889 118.084 156.191 118.046C156.688 117.984 157.155 117.839 157.618 117.695V117.694C158.053 117.559 158.482 117.425 158.929 117.363C159.309 117.31 159.586 117.379 159.946 117.484C159.972 117.492 159.997 117.499 160.021 117.506C160.358 117.604 160.523 117.652 160.623 117.761C160.721 117.866 160.756 118.029 160.826 118.35L160.828 118.363C161.196 120.058 160.912 121.861 160.628 123.663C160.256 126.024 159.885 128.382 160.979 130.493C155.338 130.448 149.685 130.56 144.077 131.221C144.077 130.725 144.08 130.23 144.084 129.734C144.096 128.099 144.109 126.466 143.985 124.831C143.929 124.084 143.851 123.339 143.773 122.593V122.593C143.75 122.375 143.727 122.156 143.705 121.938C143.587 120.788 143.615 120.782 144.451 120.611C144.504 120.6 144.561 120.588 144.621 120.575C144.919 120.513 145.108 120.379 145.308 120.237C145.461 120.129 145.62 120.016 145.837 119.928C146.09 119.826 146.25 119.877 146.439 119.937C146.533 119.966 146.633 119.998 146.756 120.016C147.235 120.083 147.374 120.044 147.642 119.969C147.746 119.939 147.869 119.904 148.039 119.868C148.357 119.8 148.663 119.755 148.96 119.711C149.883 119.574 150.711 119.451 151.493 118.711ZM250.656 83.8687C250.575 83.8212 250.494 83.7739 250.412 83.7263C249.448 85.7684 248.816 87.8967 248.176 90.0529C248.083 90.3671 247.99 90.6819 247.895 90.9973C247.509 92.2836 247.125 93.5701 246.742 94.8573C246.672 95.094 246.586 95.3394 246.499 95.5901C246.208 96.4229 245.898 97.3134 246.056 98.1281C247.274 96.2512 248.433 94.3359 249.533 92.3884C250.07 91.4387 250.593 90.4816 251.105 89.5182C251.171 89.3935 251.254 89.2607 251.339 89.1238C251.524 88.8264 251.721 88.5092 251.792 88.2068C251.884 87.8189 251.977 87.7041 251.951 87.6341C251.926 87.5691 251.799 87.543 251.471 87.3732C251.732 87.077 251.902 87.1588 252.044 87.227C252.125 87.2655 252.196 87.3001 252.27 87.2571C252.452 87.1517 252.699 86.8244 252.895 86.5653C252.976 86.4586 253.048 86.3631 253.103 86.3C252.951 86.2568 252.7 86.2098 252.409 86.155C251.659 86.0141 250.641 85.8235 250.362 85.5171C249.915 85.0271 250.393 84.6 250.861 84.1811C250.905 84.1419 250.948 84.103 250.991 84.0638C250.88 83.9988 250.768 83.9338 250.656 83.8687Z" fill="#0075FF"/>
<path fill-rule="evenodd" clip-rule="evenodd" d="M123.367 166.674C123.236 167.353 122.906 167.673 123.251 168.296C123.545 168.826 124.386 169.173 124.95 169.039L123.367 166.674ZM108.071 142.521L105.286 143.476C106.048 144.223 106.773 145.008 107.612 145.671L108.071 142.521ZM154.008 144.966C152.68 144.297 151.192 144.221 149.736 144.135C149.958 145.331 150.179 146.526 150.401 147.722C151.603 146.803 152.806 145.885 154.008 144.966ZM122.114 237.505C121.849 237.036 120.042 233.409 119.666 233.595C119.466 233.694 119.451 235.713 119.422 236C119.318 237.022 119.214 238.043 119.111 239.064C120.18 238.687 121.322 238.374 122.114 237.505ZM109.483 208.186C109.756 208.988 110.03 209.789 110.303 210.591C110.433 210.972 110.51 211.534 110.74 211.87C111.039 212.306 110.813 212.563 111.212 212.086C111.641 211.573 111.769 210.205 111.955 209.576C112.238 208.622 112.52 207.668 112.803 206.713C111.471 206.702 110.664 207.799 109.483 208.186ZM81.4992 160.986C79.8618 162.105 78.2042 163.215 76.7795 164.606C78.0328 164.528 79.7778 165.391 80.9583 164.986C81.5033 165.102 81.6834 164.895 81.4992 164.364V163.262V160.986ZM105.778 168.903V175.438C107.307 174.135 108.916 172.925 110.387 171.555C108.851 170.671 107.315 169.787 105.778 168.903ZM160.432 185.835C159.949 188.744 159.923 191.737 159.79 194.681C159.767 195.204 159.566 195.99 159.914 196.448C160.263 196.907 161.258 197.161 161.764 197.406C163.187 198.096 164.601 198.805 166.02 199.504C164.157 194.947 162.295 190.391 160.432 185.835ZM196.562 167.944C200.073 166.219 203.583 164.493 207.094 162.767C203.652 161.31 200.21 159.853 196.768 158.395C196.699 161.578 196.63 164.762 196.562 167.944ZM160.424 176.07C161.066 176.116 161.168 173.672 161.274 173.025C161.476 171.799 161.683 170.573 161.895 169.347C162.321 166.898 162.767 164.452 163.238 162.012C164.178 157.13 165.216 152.268 166.365 147.432C165.13 147.209 163.995 147.049 162.788 146.689C161.814 146.399 160.653 146.557 159.783 145.952C159.67 148.219 160.236 150.628 160.445 152.894C160.688 155.516 160.818 158.124 160.797 160.758C160.754 165.862 160.561 170.967 160.424 176.07ZM79.6164 245.224C80.2248 245.062 79.3965 236.722 79.3594 235.519C79.2537 232.037 79.2331 228.552 79.2954 225.069C76.0174 227.124 72.6632 229.017 69.2005 230.725C70.0904 231.879 70.9244 233.124 71.9092 234.198C72.9239 235.305 74.0879 236.211 75.0282 237.403C76.9213 239.803 78.2182 242.527 79.6164 245.224ZM158.497 195.885C158.65 193.376 158.791 190.872 159.044 188.371C159.152 187.307 160.181 181.651 158.534 181.784C157.597 181.859 155.954 183.23 155.094 183.711C153.96 184.345 152.823 184.978 151.683 185.603C149.433 186.836 147.168 188.042 144.909 189.26C149.439 191.468 153.968 193.677 158.497 195.885ZM148.718 143.72C146.842 143.58 145.029 143.441 143.178 143.091C142.18 142.903 141.182 142.929 140.179 142.802C139.461 142.711 138.056 142.12 137.387 142.314C136.546 142.556 136.24 146.771 136.125 147.829C135.938 149.533 135.813 151.601 136.574 153.201C138.041 156.287 141.993 153.879 143.916 152.584C145.565 151.474 147.432 150.351 148.894 149.003C150.189 147.81 149.027 145.262 148.718 143.72ZM158.447 177.276C159.861 176.704 159.838 175.986 159.9 174.507C159.975 172.711 160.018 170.912 160.069 169.114C160.161 165.911 160.247 162.706 160.219 159.501C160.191 156.37 160.038 153.244 159.679 150.132C159.553 149.032 159.679 147.153 159.099 146.215C158.57 145.359 156.927 145.35 156.031 145.402C155.021 145.462 154.203 146.422 153.457 147.028C152.631 147.7 150.934 148.647 150.799 149.649C150.647 150.768 151.262 152.365 151.5 153.451C152.372 157.413 153.432 161.336 154.548 165.235C155.707 169.28 156.881 173.365 158.447 177.276ZM122.536 167.792C122.627 166.902 122.958 166.158 122.51 165.31C122.126 164.581 121.499 163.849 121.029 163.158C119.682 161.181 118.171 159.288 116.704 157.399C115.36 155.669 113.983 153.958 112.575 152.28C111.79 151.346 110.982 150.432 110.178 149.514C109.589 148.843 109.031 147.899 108.198 147.548C107.584 151.404 107.077 155.277 106.682 159.162C106.491 161.04 106.326 162.92 106.188 164.803C106.148 165.334 105.736 167.129 106 167.623C106.277 168.143 107.971 168.839 108.489 169.157C109.939 170.048 111.065 171.39 112.444 169.926C113.393 168.917 114.157 167.496 115.218 166.616C115.77 166.157 116.291 166.179 116.911 165.907C117.631 165.591 117.654 165.286 118.515 165.716C119.967 166.441 120.848 167.511 122.536 167.792ZM49.888 187.633C49.888 190.303 49.7054 192.498 51.5151 194.659C53.0966 196.548 54.7399 196.985 56.9643 197.73C58.2742 198.169 58.3656 197.764 59.427 197.023C60.4357 196.32 61.5341 195.755 62.5289 195.029C64.673 193.465 66.8156 191.851 68.8994 190.205C69.5999 189.652 69.4966 189.84 69.3903 189.176C69.2929 188.571 68.8586 187.801 68.6213 187.226C68.192 186.184 67.6863 185.177 67.1802 184.171C66.6056 183.03 66.1051 181.791 65.3916 180.727C65.0954 180.286 64.7439 179.886 64.3983 179.484C63.6708 178.636 63.6966 178.668 62.8266 179.36C60.9897 180.823 59.2808 182.407 57.2135 183.551C54.7676 184.904 52.3276 186.267 49.888 187.633ZM105.272 166.952C105.537 163.119 105.837 159.308 106.296 155.492C106.532 153.533 106.807 151.579 107.074 149.624C107.183 148.828 107.603 147.492 107.369 146.719C107.139 145.958 106.124 145.233 105.568 144.683C105.418 144.535 104.958 143.913 104.76 143.885C104.548 143.856 103.751 144.44 103.521 144.571C102.708 145.038 101.909 145.528 101.123 146.038C99.6412 146.999 98.2054 148.031 96.8003 149.102C93.8539 151.346 91.0441 153.761 88.1603 156.084C90.8024 158.4 94.0546 160.198 97.0087 162.073C98.7553 163.182 100.511 164.279 102.289 165.336C103.191 165.872 104.237 166.691 105.272 166.952ZM69.1535 235.492C67.02 236.903 64.9825 238.392 62.5696 239.297C60.1676 240.198 57.7936 240.545 55.311 241.081C54.059 241.351 52.8822 241.647 51.6044 241.836C50.8883 241.941 49.78 241.901 49.1271 242.203C48.5457 242.079 48.3386 242.277 48.5062 242.798C48.5125 242.96 48.5187 243.121 48.5249 243.283C48.6895 245.533 50.1356 248.24 51.3969 250.07C52.1332 251.138 53.0714 252.132 54.0036 253.029C55.0562 254.043 55.6631 254.758 57.1304 254.333C59.6036 253.617 61.7864 252.176 64.2932 251.541C66.2762 251.038 67.9233 249.984 69.8571 249.439C72.2421 248.766 74.6021 248 77.02 247.438C75.9399 245.354 74.9741 243.183 73.5914 241.273C72.1733 239.314 70.6096 237.43 69.1535 235.492ZM82.2389 165.342C86.7008 166.23 91.5368 167.052 95.5303 169.356C97.0887 170.255 99.0642 171.644 99.5205 173.503C100.066 175.726 97.9211 177.102 96.1293 177.796C93.9781 178.628 91.6364 178.948 89.3569 179.21C88.1503 179.349 86.9381 179.425 85.7259 179.494C84.7448 179.55 83.081 179.334 82.1842 179.723C81.6224 179.611 81.4277 179.839 81.6 180.406C81.5894 180.61 81.5792 180.814 81.5689 181.018L81.4759 182.85C81.414 184.07 81.3521 185.29 81.2899 186.51C81.1552 189.168 81.0202 191.826 80.8855 194.484C83.2225 193.036 85.106 190.963 87.3901 189.418C88.476 188.684 89.5542 187.948 90.6357 187.216C91.0892 186.909 91.3664 186.479 91.8128 186.193C92.4047 185.814 92.9295 185.586 93.4847 185.089C95.7523 183.061 98.2741 181.308 100.679 179.446C101.772 178.6 102.968 177.822 104.007 176.915C105.096 175.964 104.945 175.182 104.919 173.815C104.891 172.368 105.422 170.572 105.175 169.177C105.382 168.703 105.223 168.409 104.699 168.293C104.349 168.069 103.999 167.845 103.649 167.621C102.95 167.175 102.252 166.728 101.554 166.282C98.7756 164.505 95.9978 162.728 93.2197 160.952C91.8321 160.064 90.4444 159.177 89.0565 158.289C88.6689 158.042 87.4047 156.922 86.9699 156.955C86.5263 156.989 85.7567 157.855 85.4242 158.13C84.9141 158.553 84.4188 158.997 83.8676 159.367C83.593 159.557 83.3062 159.727 83.0076 159.877C82.5301 159.923 82.3643 160.185 82.5096 160.663C82.0902 162.008 82.3207 163.929 82.2389 165.342ZM144.113 228.751C143.102 224.027 141.799 218.434 137.858 215.221C133.862 211.962 128.018 213.222 124.892 217.048C123.326 218.965 122.355 221.231 121.634 223.579C120.894 225.989 119.803 229.13 120.003 231.678C120.09 232.796 121.048 233.997 121.595 234.972C122.159 235.978 122.534 237.422 123.865 237.073C125.928 236.532 128.026 235.291 129.957 234.402C131.91 233.503 133.966 232.763 135.991 231.895C137.336 231.318 138.731 230.88 140.072 230.295C141.344 229.741 143.022 229.607 144.113 228.751ZM203.815 200.617C206.633 201.626 208.098 200.011 210.081 198.194C211.959 196.472 213.995 194.815 215.725 192.944C217.509 191.014 218.919 188.733 220.291 186.504C221.678 184.252 223.552 181.818 224.406 179.309C224.84 178.033 225.026 176.619 225.299 175.3C225.365 174.982 225.807 173.8 225.667 173.533C225.473 173.166 224.243 173.127 223.905 173.074C221.216 172.648 218.366 172.627 215.669 173.007C210.45 173.743 206.086 176.669 204.436 181.787C202.503 187.786 203.432 194.454 203.815 200.617ZM185.542 148.582C185.499 149.621 187.988 149.91 188.634 150.152C190.125 150.711 191.608 151.302 193.056 151.964C196.038 153.327 199.218 154.215 202.074 155.863C208.229 159.416 214.912 161.92 221.13 165.318C222.099 165.848 223.993 167.124 225.1 167.016C225.688 166.958 225.249 167.432 225.631 166.497C225.768 166.16 225.814 165.723 225.891 165.362C226.121 164.282 226.3 163.191 226.558 162.117C226.984 160.349 227.419 158.708 227.599 156.891C227.675 156.12 227.758 155.351 227.767 154.577C227.777 153.792 227.957 151.824 227.603 151.145C227.368 150.694 227.321 150.849 226.734 150.721C226.397 150.649 226.044 150.497 225.719 150.396C224.958 150.159 224.195 149.931 223.397 149.862C222.607 149.792 222.104 149.552 221.364 149.413C220.587 149.267 219.79 149.444 218.999 149.24C218.145 149.02 217.737 148.818 216.845 148.903C215.98 148.984 215.731 148.792 214.884 148.557C214.177 148.36 213.335 148.498 212.598 148.438C211.706 148.365 210.817 148.254 209.925 148.183C205.912 147.865 201.852 148.336 197.83 148.299C195.643 148.279 193.503 148.602 191.319 148.502C189.41 148.415 187.437 148.435 185.542 148.582ZM195.981 169.731C194.029 170.475 192.219 171.682 190.409 172.722C188.323 173.921 186.325 175.195 184.394 176.633C181.147 179.052 177.357 181.951 176.503 186.17C175.626 190.501 179.386 194.049 182.912 195.821C186.933 197.841 191.611 198.886 196.016 199.658C195.545 189.689 195.656 179.703 195.981 169.731ZM137.585 193.201C136.401 193.529 135.398 194.229 134.3 194.748C133.316 195.212 132.364 195.563 131.444 196.16C129.947 197.135 128.21 197.969 126.644 198.723C122.77 200.587 119.008 202.902 115.172 204.968C114.156 205.516 113.822 205.862 113.478 206.989C113.104 208.214 112.752 209.447 112.392 210.675C112.056 211.821 111.519 213.046 111.661 214.256C111.784 215.308 112.328 216.301 112.738 217.261C113.772 219.677 114.892 222.054 116.049 224.412C117.088 226.529 118.036 228.775 119.369 230.721C120.405 225.317 121.335 219.261 125.352 215.143C129.365 211.028 135.768 210.97 139.636 215.218C141.474 217.236 142.592 219.777 143.471 222.331C143.933 223.672 144.243 225.039 144.54 226.425C144.857 227.905 144.779 228.69 146.412 228.242C147.709 227.886 149.084 227.601 150.355 227.195C151.014 226.984 151.658 226.748 151.688 226.227C151.726 225.569 150.84 224.222 150.578 223.603C149.227 220.408 147.876 217.212 146.525 214.018C145.057 210.548 143.59 207.079 142.122 203.61C141.39 201.879 140.657 200.148 139.925 198.418C139.256 196.84 138.7 194.497 137.585 193.201ZM196.091 166.222C196.113 164.645 196.139 163.067 196.159 161.49C196.172 160.55 196.591 158.732 195.772 158.06C195.264 157.644 193.759 157.325 193.117 157.04C191.85 156.478 190.478 156.227 189.203 155.669C184.212 153.483 179.018 151.662 173.879 149.9C172.771 149.52 171.638 149.209 170.523 148.834C169.92 148.633 167.69 147.446 167.133 147.757C166.645 148.028 166.277 151.263 166.121 151.935C165.751 153.525 165.397 155.119 165.057 156.716C163.738 162.916 162.632 169.16 161.603 175.414C164.336 174.376 166.956 172.577 169.539 171.187C172.222 169.743 174.896 168.302 177.597 166.891C178.359 166.492 181.042 164.662 181.669 165.38C182.676 166.533 180.277 167.886 179.647 168.38C177.211 170.29 174.637 171.956 172.032 173.623C169.332 175.351 166.522 176.877 163.809 178.572C162.829 179.185 161.266 179.93 160.88 180.964C160.385 182.294 160.743 183.911 161.194 185.181C162.301 188.304 163.514 191.388 164.796 194.443C165.38 195.832 165.978 197.214 166.587 198.592C167.313 200.232 168.265 200.579 169.846 201.334C176.582 204.55 183.578 207.603 190.048 211.325C188.965 212.573 186.326 210.523 185.258 210.005C183.279 209.043 181.298 208.085 179.32 207.121C175.637 205.326 171.971 203.494 168.267 201.742C170.641 207.142 173.443 212.345 176.55 217.358C175.765 217.623 175.957 217.637 175.464 217.165C175.05 216.768 174.771 215.99 174.49 215.491C173.91 214.461 173.337 213.426 172.751 212.398C171.538 210.264 170.28 208.163 169.171 205.971C168.338 204.323 167.692 201.442 165.979 200.611C163.844 199.576 161.681 198.567 159.546 197.517C159.546 205.727 160.136 213.756 161.002 221.915C161.046 222.327 161.44 223.541 160.645 223.422C160.286 223.369 160.165 221.117 160.102 220.647C159.813 218.492 159.568 216.331 159.367 214.166C158.967 209.846 158.75 205.508 158.722 201.169C158.21 205.388 157.697 209.606 157.185 213.824L156.457 219.821C156.329 220.871 156.202 221.92 156.074 222.97C156.016 223.453 156.053 224.083 155.883 224.543C155.617 225.267 155.706 225.212 154.87 225.542C155.67 220.049 156.408 214.546 157.061 209.034C157.379 206.344 157.678 203.652 157.953 200.958C158.027 200.234 158.1 199.508 158.171 198.784C158.207 198.414 158.525 197.226 158.348 196.919C158.173 196.615 157.012 196.297 156.678 196.142C155.946 195.802 155.214 195.463 154.483 195.122C152.109 194.012 149.736 192.893 147.388 191.73C146.361 191.221 145.284 190.434 144.167 190.162C143.055 189.892 142.246 190.666 141.295 191.158C140.555 191.541 138.812 192.051 138.318 192.701C137.858 193.307 139.286 195.729 139.662 196.622C140.72 199.142 141.779 201.662 142.838 204.181C144.985 209.29 147.132 214.399 149.278 219.508C149.803 220.757 150.328 222.006 150.853 223.255C151.189 224.055 151.75 226.336 152.566 226.425C152.928 226.464 153.52 226.071 153.869 225.959C154.39 225.79 154.871 225.793 155.394 225.704C156.351 225.542 157.345 225.048 158.286 224.701C160.702 223.81 163.207 223.235 165.644 222.403C168.091 221.567 170.499 220.628 172.937 219.792C175.151 219.033 177.385 218.168 179.512 217.179C181.758 216.135 184.062 215.215 186.25 214.057C190.237 211.948 194.18 209.979 197.703 207.393C198.531 206.784 199.413 206.174 200.232 205.523C200.95 204.951 202.321 204.246 202.81 203.495C202.996 203.208 203.156 202.646 202.939 202.306C202.705 201.941 201.67 201.975 201.187 201.91C199.663 201.705 198.138 201.5 196.614 201.295C196.731 202.298 196.849 203.299 196.934 204.306C196.994 205.016 197.414 206.893 196.847 207.449C196.069 206.709 196.319 204.498 196.25 203.512C196.212 202.985 196.346 201.955 196.111 201.487C195.852 200.975 195.138 200.982 194.491 200.842C191.746 200.248 189.026 199.75 186.37 198.809C181.883 197.22 176.519 194.536 175.517 189.36C174.472 183.964 179.063 179.289 182.929 176.28C185.243 174.478 187.706 172.918 190.252 171.47C191.443 170.793 192.632 170.116 193.83 169.454C194.266 169.213 195.697 168.717 195.926 168.296C196.162 167.865 196.041 166.713 196.091 166.222ZM100.092 249.09C99.8739 249.197 99.6558 249.303 99.4384 249.409C101.86 242.509 104.259 235.639 106.284 228.608C107.261 225.215 108.251 221.825 109.262 218.441C109.698 216.982 110.77 214.972 110.472 213.46C110.15 211.823 109.377 210.082 108.78 208.526C104.953 210.932 101.045 213.214 97.1546 215.511C93.6667 217.57 90.1197 219.402 86.6072 221.439C84.8074 222.483 82.9506 223.189 81.0721 224.041C79.5458 224.735 80.1383 226.854 80.1604 228.27C80.2376 233.268 80.2338 238.284 80.5371 243.275C80.6475 245.093 80.5051 247.18 81.6625 248.694C83.1429 250.628 84.5159 252.601 85.8659 254.638C86.3717 255.401 88.4965 259.532 89.2888 259.441C89.8061 259.383 90.2823 257.71 90.5411 257.313C91.0989 256.458 91.9142 255.722 92.6564 255.034C95.8615 252.06 99.4182 249.966 103.115 247.792C106.87 245.584 110.713 243.529 114.539 241.435C115.404 240.962 116.335 240.621 117.194 240.138C117.533 239.947 118.206 239.643 118.42 239.302C118.739 238.791 118.631 237.376 118.697 236.766C118.834 235.518 119.078 234.223 119.092 232.966C119.104 231.725 118.358 230.658 117.817 229.576C115.443 224.823 113.135 220.06 111.069 215.163C109.44 220.849 107.73 226.508 106.132 232.202C105.298 235.175 104.292 238.099 103.313 241.027C102.813 242.522 102.31 244.016 101.811 245.512C101.422 246.676 101.22 248.381 100.092 249.09ZM134.197 141.94C132.938 141.954 131.797 141.769 130.566 141.506C130.114 141.41 129.717 141.369 129.259 141.329C128.74 141.283 128.268 141.002 127.813 140.947C127.469 140.905 126.869 141.05 126.54 141.16C125.779 141.415 125.803 141.286 125.771 142.17C125.722 143.536 125.684 144.902 125.609 146.267C125.314 151.639 124.744 156.958 123.962 162.278C123.804 163.353 123.361 164.764 123.604 165.831C123.824 166.794 124.656 167.823 125.205 168.63C126.335 170.291 128.996 171.111 130.869 171.582C132.843 172.079 134.893 172.262 136.769 172.705C137.288 172.828 137.885 172.611 138.439 172.734C138.951 172.848 139.349 173.13 139.823 173.333C140.982 173.831 142.278 173.923 143.476 174.307C145.852 175.07 148.395 175.024 150.772 175.756C151.38 175.943 151.905 176.415 152.49 176.576C153.025 176.724 153.575 176.55 154.135 176.632C155.321 176.807 156.426 177.212 156.699 178.485C157.425 177.911 157.525 178.062 157.4 177.174C157.32 176.605 157.003 175.912 156.829 175.363C156.387 173.964 155.942 172.566 155.5 171.167C154.626 168.398 153.757 165.627 152.951 162.838C152.229 160.343 151.573 157.829 151.001 155.295C150.709 154.007 150.465 152.714 150.216 151.419C150.143 151.043 150.215 150.446 149.837 150.196C149.495 149.969 148.696 150.783 148.334 151.045C145.807 152.875 140.012 158.289 136.853 155.095C135.151 153.376 135.251 150.352 135.436 148.131C135.549 146.765 135.789 145.417 136.057 144.075C136.124 143.74 136.533 142.664 136.383 142.425C136.221 142.168 134.535 142.015 134.197 141.94ZM222.979 171.819C223.652 171.894 224.324 171.97 224.997 172.045C224.935 171.502 224.991 170.685 224.785 170.179C224.5 169.479 223.804 169.401 223.038 169.111C221.826 168.653 220.59 168.255 219.392 167.761C216.791 166.691 214.202 165.605 211.599 164.535C210.458 164.066 209.118 163.298 207.879 163.681C206.544 164.094 205.225 164.937 203.977 165.554C202.563 166.252 201.15 166.952 199.737 167.653C199.074 167.981 198.411 168.309 197.749 168.638C196.708 169.154 196.569 169.206 196.487 170.384C196.069 176.41 196.1 182.669 196.282 188.703C196.376 191.783 196.271 194.879 196.492 197.953C196.509 198.189 196.491 199.523 196.639 199.705C196.848 199.961 198.315 200.048 198.666 200.112C200.032 200.362 201.409 200.445 202.79 200.569C202.465 193.56 201.269 185.274 204.869 178.863C208.484 172.422 216.212 171.027 222.979 171.819ZM160.128 102.866C160.533 101.943 161.231 101.163 161.828 100.353C162.15 99.9154 162.708 99.3919 162.915 98.8796C163.209 98.1505 163.207 98.3066 162.768 97.668C162.353 97.0646 162.361 97.0191 161.719 96.9112C161.178 96.8204 160.603 96.9747 160.051 96.8757C159.492 96.7756 157.958 96.3053 158.309 95.4169C158.294 95.4558 159.182 95.0181 159.251 94.9422C159.474 94.6993 159.545 94.1813 159.655 93.8877C160.009 92.9464 160.134 92.3371 159.739 91.3348C159.148 89.8383 156.815 89.3954 155.362 89.899C154.636 90.1503 154.222 90.6835 153.896 91.3535C153.688 91.779 153.64 92.394 153.372 92.7645C152.967 93.3222 152.942 93.2603 152.104 93.1617C151.037 93.0363 150.162 92.6263 149.15 92.3405C148.049 92.0288 147.332 92.6627 146.37 93.1738C144.632 94.097 142.954 94.4174 141.008 94.5639C138.84 94.7272 136.832 94.2047 134.686 94.07C135.242 96.6347 136.682 98.7169 137.833 101.039C138.035 101.448 138.362 101.865 138.37 102.338C138.378 102.783 137.734 103.388 137.806 103.757C137.961 104.542 139.691 105.171 140.346 105.393C142.199 106.018 144.309 107.241 146.348 106.749C147.466 106.48 148.068 104.714 149.12 104.585C150.532 104.41 149.476 106.228 149.213 106.853C151.217 107.158 153.757 106.899 155.674 106.22C156.635 105.88 157.45 105.372 158.327 104.868C159.419 104.241 159.646 104.069 160.128 102.866ZM125.066 141.036C121.495 141.096 117.87 140.582 114.29 141.054C113.461 141.163 112.643 141.339 111.828 141.527C111.242 141.661 109.381 141.775 108.991 142.211C108.635 142.608 108.632 144.437 108.559 144.952C108.396 146.1 108.439 146.496 109.171 147.384C111.579 150.304 114.088 153.137 116.461 156.09C118.74 158.926 120.611 162.095 122.915 164.891C124.146 161.309 124.219 157.011 124.557 153.255C124.737 151.252 124.901 149.248 125.055 147.244C125.202 145.334 125.7 142.857 125.066 141.036ZM78.8337 178.786C79.2468 178.786 79.9057 178.915 80.3072 178.786C80.8594 178.962 81.0438 178.754 80.8612 178.165C80.8699 177.958 80.8787 177.752 80.8877 177.545C80.9452 176.215 81.0087 174.885 81.0703 173.554C81.1269 172.338 81.1819 171.122 81.2299 169.905C81.2628 169.075 81.6824 167.016 81.3468 166.266C81.1213 165.761 80.5872 165.876 79.9374 165.802C79.3193 165.732 78.6994 165.667 78.0847 165.572C77.3046 165.45 76.4398 165.171 75.646 165.346C74.8484 165.521 74.2686 166.258 73.6428 166.726C72.6523 167.467 71.6405 168.18 70.6416 168.909C68.8263 170.235 67.0293 171.585 65.2292 172.931C64.4858 173.486 64.343 173.293 64.7054 174.092C64.9296 174.586 65.4395 175.144 65.7499 175.59C66.368 176.477 66.9836 177.823 67.7765 178.544C68.9302 179.592 72.1313 178.926 73.6639 178.919C75.4115 178.91 77.0962 178.937 78.8337 178.786ZM83.3572 178.699C84.8727 178.551 86.4037 178.615 87.9099 178.411C89.5473 178.189 91.1729 177.861 92.8072 177.615C94.4366 177.37 99.3933 176.38 98.904 173.948C98.387 171.377 94.5924 169.837 92.4927 168.973C89.2135 167.623 85.79 166.901 82.3407 166.138C81.908 168.442 81.9702 170.916 81.8912 173.251C81.8482 174.519 81.8106 175.789 81.8112 177.059C81.8112 177.364 81.7064 177.998 81.8311 178.282C82.1242 178.95 82.4651 178.699 83.3572 178.699ZM78.3734 179.803H68.7006C70.1321 182.767 71.4852 185.785 73.0284 188.692C74.5654 191.588 76.5443 194.317 78.2881 197.096C78.7299 196.616 79.4344 196.095 79.7346 195.523C80.0671 194.89 80.0578 193.959 80.1122 193.226C80.2534 191.325 80.3178 189.407 80.3657 187.501C80.4077 185.833 80.4811 184.175 80.6093 182.51C80.6373 182.145 81.0401 180.248 80.8096 179.937C80.604 179.659 78.7964 179.806 78.3734 179.803ZM118.209 121.623C119.841 121.623 121.475 121.602 123.106 121.63C124.587 121.655 126.516 121.397 127.872 122.159C130.636 123.712 125.112 127.7 123.992 128.704C125.803 129.36 128.63 128.058 130.403 127.461C132.595 126.723 134.831 126.227 137.067 125.649C137.626 125.505 140.024 125.222 140.327 124.794C140.627 124.37 139.954 121.808 139.887 121.268C139.823 120.76 139.877 119.968 139.665 119.49C139.795 118.916 139.593 118.715 139.06 118.887C138.876 118.887 138.693 118.886 138.509 118.885C137.148 118.896 135.786 118.959 134.427 119.004C129.753 119.16 125.193 119.367 120.56 120.097C118.406 120.436 116.233 120.853 114.09 121.269C112.286 121.619 112.589 121.913 114.274 121.918C115.592 121.921 116.898 121.725 118.209 121.623ZM252.27 87.2571C252.548 86.9383 252.826 86.6191 253.103 86.3C252.427 86.1068 251.75 85.9133 251.073 85.7202C250.354 85.5149 249.967 85.5618 250.287 84.7581C250.687 83.7512 252.518 83.6357 253.397 83.5978C256.426 83.4668 259.608 84.4305 262.485 85.2794C263.889 85.6937 264.989 86.3348 266.177 87.1874C266.696 87.5598 267.295 87.9094 267.749 88.3567C268.22 88.8214 268.416 89.4168 268.877 89.8828C269.634 90.6468 270.601 91.0272 270.972 92.1299C271.398 93.3956 270.89 94.8445 270.26 95.9482C269.621 97.0683 268.672 97.9153 267.901 98.9331C267.289 99.7406 266.012 101.947 268.008 101.691C269.064 101.556 270.433 99.7556 271.193 99.0382C272.282 98.0096 273.353 96.9572 274.507 95.9992C275.529 95.1497 276.708 94.2787 278.075 94.1294C279.517 93.972 280.237 94.8946 280.94 96.0166C281.602 97.0748 281.709 98.1079 282.175 99.191C282.399 99.7132 282.686 100.004 282.818 100.574C283.021 101.449 283.042 102.405 283.146 103.297C283.309 104.699 283.462 105.802 283.19 107.175C282.936 108.461 282.867 109.826 282.652 111.134C282.41 112.616 282.208 114.104 281.969 115.586C281.766 116.841 280.996 118.629 281.752 119.797C283.568 122.602 285.746 118.472 286.32 116.929C287.328 114.218 287.841 111.254 288.731 108.487C289.208 107.008 289.624 105.514 289.897 103.982C290.123 102.715 290.012 101.171 290.706 100.043C291.246 99.1664 292.206 98.5007 293.259 98.7682C294.578 99.1033 295.084 101.009 295.472 102.167C296.495 105.222 296.119 107.974 295.702 111.09C295.509 112.533 295.325 113.978 294.994 115.396C294.77 116.353 293.844 118.291 295.221 118.811C297.173 119.55 299.242 113.95 299.798 112.685C301.254 109.374 301.812 106.089 302.412 102.54C302.55 101.725 302.655 100.891 302.862 100.089C303.041 99.3913 303.577 98.6858 303.626 97.9878C303.674 97.2891 303.211 96.8017 303.685 96.1158C304.08 95.545 304.792 95.5105 305.436 95.5055C306.949 95.4937 308.395 96.1578 309.802 96.6397C311.111 97.0879 313.049 98.0715 314.461 97.7548C310.031 93.2578 305.613 88.8118 300.33 85.3096C297.877 83.683 295.422 82.1199 292.771 80.7936C290.085 79.4501 287.008 78.5427 284.131 77.7299C282.567 77.2876 281.011 76.7865 279.466 76.2792C278.091 75.8275 276.707 75.742 275.36 75.2296C272.435 74.117 269.166 73.6858 266.137 72.897C264.799 72.5489 263.447 72.2503 262.106 71.9277C260.697 71.5887 258.718 70.9998 257.282 71.0571C256.056 71.1059 255.642 72.511 255.053 73.4883C254.196 74.9071 253.466 76.3812 252.793 77.8945C251.413 80.9952 249.957 84.1985 248.971 87.4378C248.429 89.2165 247.894 90.997 247.362 92.7785C246.902 94.3207 245.75 96.5454 246.056 98.1281C248.324 94.6321 250.437 91.0014 252.27 87.2571ZM146.655 118.825C145.451 118.88 144.247 118.934 143.044 118.989C144.244 122.933 144.077 127.133 144.077 131.221C149.685 130.56 155.338 130.448 160.979 130.493C159.943 128.494 160.345 125.9 160.64 123.759C160.813 122.506 160.909 121.298 160.884 120.034C160.861 118.848 161.202 117.851 159.946 117.484C158.949 117.193 158.319 117.678 157.369 117.899C156.231 118.164 154.992 118.196 153.834 118.34C151.424 118.639 149.1 118.815 146.655 118.825ZM114.339 126.506C117.953 125.504 121.794 125.873 125.426 125.111C124.6 124.357 123.043 124.804 121.946 124.867C120.699 124.937 119.452 124.989 118.205 125.05C116.988 125.11 113.614 125.017 113.175 126.565C113.563 126.546 113.951 126.526 114.339 126.506ZM246.583 70.6147C241.854 71.0297 236.901 70.9653 232.206 71.7905C226.828 72.7356 221.223 73.3284 216.009 74.9939C210.895 76.6279 205.679 77.7716 200.638 79.6903C195.737 81.5554 191.016 83.5396 186.4 86.0343C184.142 87.2553 181.943 88.5496 179.79 89.9518C177.687 91.3208 175.384 92.4431 173.346 93.8942C171.533 95.1861 169.969 96.3709 168.387 97.9536C166.697 99.6457 165.052 101.384 163.361 103.073C161.948 104.482 162.842 107.928 162.932 109.804C163.056 112.405 163.27 114.968 163.589 117.552C163.892 120.013 164.205 122.659 163.804 125.116C163.635 126.148 163.054 127.932 163.332 128.963C163.554 129.789 165.026 130.394 165.777 130.663C166.696 130.992 167.635 130.854 168.578 131.272C169.631 131.74 170.518 132.324 171.637 132.57C173.015 132.873 174.565 133.128 175.981 133.138C177.291 133.146 178.605 133.57 179.911 133.832C182.036 134.257 184.11 134.39 183.978 136.952C183.825 139.908 182.652 142.445 181.953 145.251C182.898 145.251 183.556 145.312 184.421 144.977C185.431 144.586 186.508 144.482 187.569 144.313C189.913 143.941 192.199 143.821 194.558 143.583C198.881 143.147 203.278 143.199 207.604 143.245C209.794 143.268 212.17 143.438 214.33 143.778C216.546 144.128 218.841 144.347 220.989 145.018C222.801 145.584 224.671 145.97 226.519 146.47C227.352 146.695 228.35 146.878 229.137 147.13C230.277 147.496 230.887 148.275 232.203 148.257C231.833 145.818 230.962 143.556 230.437 141.138C229.889 138.612 228.796 136.377 227.589 133.994C227.05 132.931 226.652 131.804 226.133 130.732C225.555 129.539 224.744 128.552 224.047 127.437C222.62 125.156 221.098 122.963 219.697 120.666C218.474 118.661 217.077 116.739 215.738 114.804C214.266 112.676 212.22 111.07 210.549 109.118C209.844 108.293 209.173 107.527 208.383 106.77C207.655 106.073 206.623 104.531 205.509 104.459C204.869 104.417 203.76 104.777 203.149 104.97C202.019 105.329 200.819 105.562 199.652 105.877C198.374 106.222 197.119 106.671 195.839 106.999C195.327 107.13 194.719 107.067 194.234 107.216C193.726 107.371 193.321 107.714 192.765 107.871C190.026 108.648 187.303 109.53 184.544 110.237C181.703 110.966 178.819 111.586 176.065 112.618C175.54 112.815 174.956 113.28 174.553 112.974C174.252 112.746 174.058 112.101 174.137 111.725C174.401 110.472 176.405 110.019 177.37 109.516C179.956 108.168 182.525 107.218 185.304 106.302C186.673 105.852 188.037 105.371 189.425 104.982C190.585 104.657 191.793 104.107 192.979 103.94C194.035 103.792 194.784 103.377 195.831 103.009C197.374 102.466 198.961 102.021 200.529 101.558C203.209 100.766 206.049 100.433 208.791 99.9024C215.144 98.6721 221.739 98.0562 228.221 98.1324C231.489 98.171 234.908 98.0755 238.138 98.613C238.917 98.7424 240.554 98.7175 241.091 99.4165C241.379 99.7916 241.223 100.35 241.297 100.757C241.422 101.443 241.796 101.763 242.12 102.388C242.81 99.0047 243.602 95.6934 244.493 92.3598C245.298 89.3428 246.043 86.2711 247.118 83.2964C248.257 80.1491 249.636 76.812 251.338 73.9316C251.688 73.3387 252.561 72.3968 252.636 71.7336C252.714 71.0493 251.755 70.5192 251.096 70.443C249.618 70.2723 248.035 70.5647 246.583 70.6147ZM278.354 118.955C278.835 114.262 280.242 109.353 279.456 104.642C279.124 102.647 278.864 100.743 277.866 98.9427C277.362 98.0323 277.16 97.3635 276.197 97.9004C275.222 98.4438 274.324 99.786 273.516 100.564C272.031 101.994 270.475 103.467 268.697 104.528C267.296 105.365 264.513 106.157 263.46 104.348C262.456 102.624 263.795 100.219 264.755 98.7966C265.855 97.1694 267.938 95.6623 266.769 93.6547C266.266 92.7906 265.542 92.5641 264.781 91.9971C264.123 91.5062 263.571 90.8704 262.912 90.3708C261.003 88.9229 258.91 88.3026 256.706 87.4752C255.689 87.0929 255.555 86.7333 254.967 87.6071C254.329 88.5561 253.979 89.8862 253.517 90.9357C252.593 93.0382 251.607 95.0302 250.415 96.9905C249.212 98.9689 248.146 101.036 247.009 103.053C246.58 103.814 246.177 104.588 245.67 105.302C245.393 105.691 245.052 106.038 244.827 106.463C244.495 107.093 244.643 107.666 244.437 108.293C243.545 110.996 242.245 107.222 241.996 106.34C241.714 105.337 241.032 104.554 240.591 103.618C240.226 102.845 239.977 101.697 239.096 101.333C238.374 101.035 237.444 101.444 236.708 101.483C235.355 101.557 233.992 101.447 232.633 101.532C231.362 101.611 230.094 101.733 228.824 101.811C227.552 101.889 226.282 101.674 225.027 101.808C222.776 102.048 220.473 102.009 218.227 102.342C215.59 102.732 212.981 103.148 210.337 103.473C210.951 104.635 212.224 105.139 213.231 105.968C214.131 106.709 214.844 107.564 215.75 108.269C216.67 108.984 217.217 110.042 217.978 110.902C218.724 111.744 219.414 112.45 220.068 113.392C223.222 117.942 226.475 122.324 229.076 127.241C230.393 129.73 231.65 132.392 232.55 135.063C233.515 137.926 233.988 140.998 234.561 143.959C234.847 145.435 234.997 146.681 234.684 148.165C234.602 148.519 234.516 148.871 234.427 149.223C234.153 149.644 234.254 149.918 234.732 150.043C235.012 150.45 235.393 150.603 235.417 151.16C235.436 151.583 235.2 152.073 234.836 152.311C234.133 152.772 234.133 152.15 233.408 152.288C233.136 152.435 232.864 152.582 232.592 152.729C232.449 152.51 232.301 152.294 232.15 152.082C231.688 151.642 231.32 151.682 230.716 151.575C231.023 155.111 230.533 158.268 229.755 161.717C229.38 163.376 228.739 164.999 228.415 166.66C228.054 168.517 228.843 169.362 230.065 170.6C229.755 170.762 229.212 170.937 228.956 171.179C228.549 171.565 228.653 171.612 228.653 172.215C228.654 173.319 228.442 174.408 228.269 175.494C227.948 177.505 227.654 179.586 226.962 181.511C225.704 185.008 223.671 188.64 221.6 191.721C220.441 193.445 219.28 195.403 217.827 196.891C216.369 198.383 214.924 199.889 213.469 201.386C210.607 204.333 207.478 206.369 204.049 208.576C202.691 209.45 201.26 210.407 200.092 211.495C198.905 212.601 197.326 213.375 195.908 214.178C195.275 214.536 194.824 215.051 194.141 215.345C193.499 215.621 193.05 215.711 192.512 216.073C191.176 216.971 189.733 217.739 188.262 218.417C186.468 219.243 184.702 220.204 182.859 220.909C182.02 221.231 181.23 221.581 180.417 221.957C179.537 222.363 178.588 222.63 177.685 223.064C176.922 223.43 176.15 223.642 175.373 223.942C174.739 224.186 174.242 224.582 173.595 224.837C172.252 225.368 171.03 225.653 169.725 226.279C167.992 227.109 165.938 227.497 164.112 228.095C162.073 228.763 159.958 229.427 157.866 229.901C156.976 230.102 156.217 230.366 155.358 230.671C154.797 230.87 154.155 230.978 153.534 231.167C151.82 231.69 150.106 232.194 148.382 232.639C145.014 233.507 141.573 234.55 138.306 235.73C136.593 236.348 134.856 237.092 133.213 237.879C131.356 238.769 129.354 239.283 127.49 240.163C123.889 241.865 120.3 243.616 116.741 245.402C114.871 246.34 113.028 247.307 111.203 248.327C110.541 248.697 109.817 248.85 109.159 249.213C108.299 249.688 107.593 250.385 106.711 250.856C103.315 252.67 99.8478 254.379 96.7278 256.674C95.0951 257.875 93.3407 259.106 91.9297 260.568C91.4641 261.051 90.6572 261.798 90.5729 262.498C90.4488 263.534 90.5651 262.581 90.9238 263.22C91.4205 263.28 91.5328 263.471 91.2619 263.792C91.1368 263.943 90.9766 264.019 90.7816 264.022C90.1542 264.149 88.9806 263.485 88.4763 263.207C87.6025 262.725 87.1388 262.116 86.5776 261.308C85.3589 259.554 84.1697 257.784 82.9146 256.055C81.7857 254.5 80.6808 252.788 79.3965 251.36C78.5255 250.392 78.4602 250.815 77.4915 251.361C76.7708 251.767 75.9337 251.94 75.1869 252.322C72.341 253.78 69.2126 254.857 66.2936 255.873C65.6289 256.104 65.2746 256.471 64.6904 256.791C63.9464 257.198 63.0039 257.397 62.2082 257.686C60.0161 258.483 57.835 259.311 55.6585 260.149C53.9781 260.797 52.3634 261.308 51.0479 262.503C50.5244 262.979 49.8908 263.32 49.3502 263.801C48.7206 264.361 47.8692 265.271 47.0766 265.588L46.5938 265.965C46.2672 265.738 45.9403 265.511 45.6128 265.285C45.288 265.06 44.9629 264.836 44.6388 264.611C43.8248 264.045 43.0166 263.471 42.2076 262.898C40.3726 261.597 38.5259 260.31 36.8191 258.841C33.7871 256.234 30.641 253.767 27.4707 251.325C24.1432 248.762 20.8992 246.08 17.4576 243.672C14.3383 241.488 10.935 239.644 7.91052 237.34C6.38819 236.18 4.86959 235.013 3.31522 233.889C3.23061 233.828 1.96585 233.052 1.95403 232.966C1.93163 232.807 2.34783 232.393 2.4707 232.26C3.05238 231.628 3.69689 231.065 4.2764 230.425C6.97734 227.447 10.5038 227.551 14.2313 227.41C15.9216 227.347 17.7547 228.126 19.3601 228.657C21.3232 229.306 23.2169 230.258 25.1131 231.08C29.021 232.775 33.0543 234.224 37.0017 235.794C38.5538 236.411 40.1001 236.712 41.6781 237.136C43.2792 237.567 44.9284 237.156 46.6408 237.187C47.5295 237.203 48.3697 237.255 49.2646 237.205C49.7959 237.175 50.4081 237.074 50.9328 237.083C51.358 237.09 51.7994 237.266 52.1908 237.221C53.9038 237.027 55.7132 236.755 57.48 236.532C59.2341 236.311 61.0442 236.201 62.7752 235.855C63.6468 235.681 64.5069 235.435 65.3455 235.139C66.0734 234.883 67.3967 234.591 67.9939 234.071C68.5283 233.606 68.2947 233.6 67.9967 232.841C67.8788 232.542 67.7569 232.087 67.5821 231.798C67.1096 231.017 66.6529 230.772 66.9279 229.795C67.4122 228.073 69.063 226.973 70.4762 226.125C73.6596 224.215 76.5711 221.765 79.9231 220.145C86.8299 216.807 93.1245 212.47 99.8602 208.804C107.264 204.774 114.268 200.045 121.775 196.186C128.762 192.593 135.718 188.98 142.764 185.5C146.204 183.802 150.095 182.247 153.216 180.02C151.487 179.806 149.753 179.529 148.017 179.375C147.212 179.304 146.397 179.37 145.597 179.242C144.702 179.099 143.855 178.737 142.962 178.586C141.426 178.327 140.044 177.8 138.507 177.606C136.858 177.398 135.243 176.913 133.587 176.777C130.122 176.493 126.995 175.216 123.957 173.605C123.206 173.206 122.588 173.434 121.867 173.163C121.471 173.014 121.049 172.418 120.603 172.098C119.376 171.217 118.322 170.176 117.155 169.213C114.702 174.718 109.885 178.462 105.289 182.155C102.96 184.025 100.433 185.611 98.081 187.445C96.2575 188.868 94.6014 190.142 92.6548 191.273C90.7856 192.359 89.0297 193.825 87.2476 195.129C86.0398 196.013 84.6241 196.681 83.3398 197.448C82.2903 198.075 80.2413 199.011 79.9551 200.148C79.7209 201.078 80.1778 202.184 78.7594 201.756C77.4893 201.374 76.5686 199.964 75.8289 198.971C73.9159 196.401 72.1313 193.744 70.3552 191.079C69.4011 192.941 67.7556 194.282 66.2345 195.663C65.3104 196.502 64.3511 197.28 63.3529 198.029C62.8689 198.392 62.3792 198.748 61.8943 199.111C61.7033 199.254 61.2703 199.474 61.1465 199.675C60.8572 200.147 61.033 199.933 61.0781 200.503C61.1484 201.396 61.4464 202.099 60.9409 202.955C60.4662 203.758 59.4313 204.101 58.7059 204.65C56.9802 205.956 55.1654 207.344 53.2509 208.364C52.8163 208.596 52.4054 208.796 52.0007 209.08C51.3251 209.552 51.4486 209.724 50.7677 209.271C49.7029 208.562 48.7831 207.385 47.8222 206.53C45.809 204.739 43.7734 202.971 41.7117 201.236C37.7827 197.929 33.7377 194.787 29.8574 191.422C26.1701 188.223 22.2171 185.47 18.4104 182.43C17.3662 181.596 16.3347 180.745 15.3041 179.894C14.3865 179.136 12.8975 178.301 12.2187 177.332C11.233 175.924 15.0889 174 16.2522 173.714C18.2583 173.22 20.8522 173.502 22.8614 173.907C24.9703 174.332 27.1179 175.752 29.0872 176.637C31.3071 177.634 33.5679 178.496 35.8041 179.437C36.8013 179.857 37.8586 180.192 38.7843 180.757C39.7667 181.357 40.6436 182.041 41.6881 182.544C42.8919 183.124 44.1427 183.664 45.4087 184.093C45.9823 184.287 46.5997 184.482 47.2026 184.56C48.0561 184.671 47.9404 184.278 48.6493 184.059C49.2519 183.872 49.3949 184.365 49.9368 184.502C50.447 184.632 50.8283 184.501 51.27 184.226C52.2548 183.615 53.1314 182.772 54.1165 182.136C55.0304 181.545 56.038 180.993 56.8946 180.324C57.2766 180.026 57.559 179.618 57.9354 179.315C58.5386 178.83 58.7778 179.023 59.482 178.689C60.0578 178.415 60.5801 177.906 61.1278 177.569C61.4678 177.36 62.2925 177.095 62.5118 176.757C63.0878 175.867 62.1046 175.249 61.224 175.512C61.0921 174.744 60.4149 172.92 60.7073 172.2C60.9661 171.563 61.6455 171.682 62.2169 171.345C64.3644 170.077 65.9493 167.773 67.9584 166.284C69.8525 164.879 71.5235 163.203 73.3998 161.772C75.0071 160.547 76.7636 159.351 78.2272 158.029C79.9576 156.467 82.173 155.252 84.0543 153.857C85.9978 152.417 87.8038 150.815 89.7265 149.358C91.5764 147.957 93.3933 146.493 95.2942 145.159C97.0025 143.959 98.7933 142.865 100.466 141.649C101.383 140.983 102.384 140.398 103.431 139.961C104.471 139.527 105.381 139.017 106.396 138.549C108.415 137.618 111.043 136.975 113.238 136.709C115.651 136.416 118.074 136.153 120.511 136.151C121.808 136.15 123.069 136.397 124.359 136.475C125.544 136.547 126.825 136.846 128.002 136.807C128.535 136.789 128.998 136.564 129.514 136.636C129.945 136.697 130.32 136.957 130.782 137.003C131.811 137.104 132.846 137.003 133.887 137.136C136.278 137.442 138.673 137.877 141.069 138.12C143.622 138.378 146.152 138.427 148.692 138.862C151.173 139.288 153.671 139.728 156.138 140.22C161.382 141.265 166.68 142.286 171.84 143.838C173.047 144.201 174.26 144.546 175.42 145.043C175.982 145.284 176.523 145.576 177.11 145.757C177.951 146.015 178.116 146.113 178.549 145.408C179.294 144.194 179.705 142.589 180.246 141.268C180.781 139.961 181.43 138.644 181.74 137.28C180.838 137.137 179.701 137.414 178.77 137.446C177.633 137.485 176.508 137.461 175.371 137.454C173.081 137.44 171.29 136.764 169.123 136.054C167.297 135.455 164.865 135.111 163.472 133.74C162.724 133.005 162.476 132.876 161.353 133.008C160.22 133.14 159.101 133.369 157.957 133.407C153.647 133.55 149.356 134.303 145.025 134.451C143.854 134.491 140.924 135.047 141.116 133.06C141.156 132.647 141.472 132.29 141.533 131.865C141.599 131.41 141.485 130.948 141.414 130.503C141.245 129.451 141.068 128.399 140.899 127.347C136.95 128.614 132.952 129.641 128.928 130.645C127.259 131.061 124.579 132.018 122.854 131.493C121.187 130.986 122.153 128.637 122.672 127.513C119.36 128.269 115.828 129.505 112.451 129.789C111.423 129.875 110.423 130.103 110.184 128.861C109.994 127.871 110.708 126.66 111.073 125.791C108.481 125.56 105.797 125.582 106.285 122.26C106.732 119.211 109.264 118.605 111.96 118.048C115.288 117.36 118.686 117.131 122.035 116.574C124.949 116.09 128.129 115.55 131.104 115.794C132.68 115.924 134.265 115.953 135.84 116.099C136.583 116.168 137.297 116.283 138.017 116.486C138.68 116.672 139.608 117.251 140.288 117.261C141.314 117.278 142.552 115.89 143.656 115.569C145.023 115.171 146.497 115.099 147.909 115.002C149.511 114.892 151.115 114.831 152.715 114.701C153.08 114.672 154.459 114.762 154.747 114.548C155.166 114.237 154.887 112.64 154.858 111.984C154.83 111.377 154.947 110.24 154.527 110.002C154.132 109.779 152.98 110.085 152.591 110.147C150.98 110.406 149.448 110.376 147.843 110.31C147.101 110.28 146.389 110.478 145.654 110.38C144.866 110.276 144.073 110.011 143.288 109.864C141.588 109.544 140.04 109.147 138.575 108.194C137.289 107.358 135.767 106.793 135.049 105.329C134.522 104.257 134.308 102.188 135.856 101.884C134.802 100.363 134.075 98.6556 133.516 96.8991C133.415 96.5806 133.347 96.1009 133.196 95.8231C132.661 94.8408 133.157 95.7121 132.394 95.3192C131.64 94.9313 131.096 94.6243 130.507 93.9496C129.567 92.8736 129.171 91.5494 129.052 90.1475C128.891 88.2435 128.59 86.0966 128.868 84.2022C129.349 80.9208 131.748 78.4553 134.185 76.4708C135.507 75.3933 137.249 74.992 138.801 74.3381C140.298 73.7067 141.972 73.0447 143.55 72.8967C144.974 72.7629 146.363 72.2979 147.788 72.1103C149.748 71.8521 151.71 71.9486 153.679 71.8702C154.586 71.8341 155.49 71.7063 156.392 71.6089C156.902 71.5538 157.764 71.6126 158.23 71.4107C158.994 71.0798 158.581 71.7747 158.854 70.7625C159.373 68.837 159.797 67.0313 160.583 65.1603C161.315 63.4171 162.204 61.7505 163.38 60.2602C164.482 58.8623 165.912 57.8398 167.211 56.6456C168.173 55.761 169.264 54.9619 170.362 54.2464C170.99 53.8374 171.689 53.6162 172.302 53.2551C173.064 52.8072 173.736 52.4675 174.592 52.1931C176.431 51.6046 178.255 50.9797 180.208 51.0105C182.312 51.0434 184.423 50.5535 186.472 51.1747C190.277 52.3284 192.142 56.4525 192.078 60.2396C193.379 59.9149 194.517 59.2897 195.896 59.2362C197.165 59.187 198.674 59.2971 199.921 59.5329C202.342 59.9905 204.832 61.3361 206.275 63.3754C207.652 65.3205 207.858 67.9029 207.012 70.1096C206.607 71.1659 205.964 72.1057 205.28 72.9981C204.779 73.6526 203.659 74.377 203.606 75.2539C212.976 72.4217 222.384 70.4253 232.076 69.1332C236.989 68.4784 241.911 68.8062 246.829 68.432C248.93 68.2721 251.213 68.4958 253.385 68.5042C254.302 68.5079 255.015 68.3804 255.68 67.7869C256.353 67.1865 256.891 66.4512 257.675 67.3178C257.876 67.539 257.918 68.074 258.187 68.2404C258.514 68.442 259.463 68.3036 259.854 68.3275C261.22 68.4109 262.553 68.6426 263.894 68.9095C266.354 69.3994 268.799 69.8946 271.23 70.5164C275.859 71.7007 280.427 72.846 284.99 74.2517C289.645 75.686 294.349 77.4556 298.642 79.7773C300.721 80.9018 302.798 82.3057 304.709 83.6967C305.598 84.3437 306.394 85.0436 307.167 85.8238C307.994 86.6577 309.004 87.2204 309.823 88.0606C311.602 89.8881 313.375 91.8266 314.99 93.8065C315.833 94.8402 316.607 95.9304 317.357 97.0322C317.886 97.8052 319.273 99.2205 318.953 100.219C318.785 100.752 318.187 101.125 317.643 100.995C317.459 100.951 317.31 100.715 317.155 100.692C316.626 100.618 317.105 100.432 316.492 100.681C315.27 101.177 314.881 102.171 313.329 101.944C310.692 101.56 308.211 100.314 305.812 99.2283C305.127 101.847 305.03 104.563 304.431 107.213C303.846 109.799 302.871 112.265 301.693 114.637C300.661 116.718 299.335 118.936 297.506 120.423C296.112 121.558 292.669 122.968 291.645 120.552C291.209 119.525 291.857 117.931 292.04 116.875C292.286 115.458 292.557 114.036 292.705 112.605C292.825 111.442 292.886 110.272 292.998 109.108C293.095 108.106 293.362 105.956 292.799 105.071C292.46 104.538 292.43 105.061 292.232 105.593C291.993 106.239 291.794 106.879 291.619 107.544C291.246 108.956 290.91 110.378 290.558 111.796C289.928 114.328 289.235 116.806 287.923 119.083C286.757 121.105 285.118 123.324 282.625 123.655C281.459 123.81 279.937 123.276 279.047 122.49C278.047 121.609 278.346 120.154 278.354 118.955Z" fill="black"/>
<path fill-rule="evenodd" clip-rule="evenodd" d="M221.446 222.377C222.816 222.106 223.969 221.013 225.087 220.192C226.514 219.145 227.867 218.004 229.252 216.903C231.862 214.83 234.231 212.556 236.483 210.083C240.926 205.205 244.271 198.925 245.792 192.508C246.562 189.262 247.513 185.458 247.076 182.103C246.925 180.937 246.693 180.723 245.55 180.591C245.034 180.531 243.724 180.383 243.26 180.586C242.055 181.112 241.405 183.351 241.048 184.477C239.993 187.799 239.372 191.241 238.419 194.591C237.484 197.874 235.978 201.206 234.489 204.277C231.175 211.109 226.568 216.825 221.446 222.377ZM248.615 184.657C247.796 193.96 245.213 202.824 239.421 210.316C236.669 213.878 233.431 216.976 229.922 219.791C226.299 222.697 222.598 225.434 218.487 227.601C217.393 228.178 216.297 228.753 215.19 229.303C214.576 229.609 213.026 230.732 212.317 230.555C211.75 230.412 211.602 229.973 211.513 229.402C211.315 228.12 212.148 227.48 212.99 226.657C216.372 223.35 219.766 220.031 222.929 216.513C229.175 209.565 233.867 201.245 236.476 192.268C237.279 189.503 237.996 186.709 238.863 183.964C239.392 182.292 240.141 179.316 241.896 178.482C242.837 178.035 243.935 178.47 244.924 178.202C245.853 177.951 246.468 177.438 247.26 178.298C248.648 179.807 248.71 182.766 248.615 184.657Z" fill="black"/>
<path fill-rule="evenodd" clip-rule="evenodd" d="M1.15408 238.337C0.460725 238.583 0.431796 238.826 0.114204 238.113C-0.0456809 237.753 -0.00244352 237.261 0.0351949 236.887C0.125403 235.993 0.596347 235.166 0.983307 234.373C4.6252 237.377 8.40676 240.085 12.3118 242.739C16.4881 245.578 20.4756 248.734 24.4255 251.878C27.9625 254.694 31.5422 257.426 35.0423 260.278C36.7304 261.653 38.6549 262.719 40.2597 264.136C41.5565 265.281 43.7072 265.794 44.8127 267.141C43.0608 268.189 40.7219 269.032 38.7806 268.126C36.6389 267.127 34.9962 265.824 33.0904 264.47C32.1083 263.772 31.0872 263.139 30.0896 262.464C29.2127 261.87 28.5934 261.004 27.7056 260.447C25.8399 259.276 23.9259 257.987 22.1557 256.65C20.3372 255.277 18.3271 254.185 16.5727 252.726C14.7742 251.23 12.761 250.239 10.8831 248.878C6.90341 245.992 3.39899 242.746 1.15408 238.337Z" fill="black"/>
<path fill-rule="evenodd" clip-rule="evenodd" d="M108.527 85.1005C108.478 85.3662 108.428 85.6318 108.379 85.8978C108.409 85.9046 110.79 81.304 111.185 80.7485C112.523 78.865 114.264 77.2979 115.943 75.7249C119.499 72.3928 123.661 69.7033 127.146 66.3118C128.292 65.1961 130.347 63.5054 129.893 61.6189C129.442 59.7438 125.638 60.1248 124.334 60.6673C122.292 61.5181 120.633 63.2973 119.11 64.8477C117.45 66.5389 115.776 68.2112 114.369 70.1251C112.851 72.189 111.411 74.4243 110.481 76.8195C109.439 79.5027 109.032 82.2795 108.527 85.1005ZM109.309 93.3325C107.693 93.8308 109.719 94.1674 109.086 95.0309C108.392 95.9777 107.225 93.0603 107.05 92.5094C106.021 89.2548 106.481 85.3009 107.043 81.9965C107.327 80.3295 107.51 78.6351 107.893 76.9862C108.266 75.3783 109.079 73.8504 109.83 72.3878C111.333 69.4613 113.324 66.7349 115.583 64.3487C117.849 61.9548 120.375 59.5596 123.365 58.0858C125.836 56.8687 129.752 57.7132 130.909 60.3718C132.09 63.0886 130.492 66.0481 128.602 67.9583C126.137 70.4496 123.45 72.9241 120.681 75.0723C119.258 76.1765 118.065 77.5119 116.682 78.6641C115.211 79.8906 113.938 81.1243 112.849 82.7104C111.796 84.2473 110.711 85.783 110.026 87.5278C109.276 89.4383 109.309 91.3112 109.309 93.3325Z" fill="black"/>
<path fill-rule="evenodd" clip-rule="evenodd" d="M44.6718 210.491C40.9583 208.1 37.2324 206.001 33.9986 202.952C30.8058 199.941 28.0162 196.546 24.4626 193.933C22.6896 192.63 20.8596 191.407 19.118 190.061C17.465 188.783 15.5651 187.689 14.071 186.232C12.0796 184.289 8.35124 180.679 10.8954 177.782C14.0533 181.538 18.3861 184.499 22.3362 187.35C26.5013 190.356 30.3243 193.863 34.2752 197.139C38.081 200.294 41.8741 203.478 45.5878 206.717C46.563 207.568 47.5037 208.461 48.4904 209.298C48.611 209.401 49.6338 210.049 49.6338 210.221C49.6341 210.635 48.8412 210.893 48.5588 211.008C48.113 211.19 46.9074 211.641 46.4019 211.489C46.1369 211.408 46.1322 211.193 45.9412 211.064C45.8314 210.857 45.7032 210.662 45.5577 210.479C45.2622 210.483 44.967 210.488 44.6718 210.491Z" fill="black"/>
<path fill-rule="evenodd" clip-rule="evenodd" d="M263.28 168.801C260.633 168.733 256.603 168.725 256.752 172.34C256.825 174.13 257.795 175.444 258.593 176.975C259.43 178.584 260.05 180.246 260.296 182.05C261.29 189.349 258.624 196.481 256.212 203.229C261.391 199.048 265.132 193.232 267.096 186.856C268.048 183.764 268.419 179.79 268.111 176.57C267.957 174.959 267.363 173.515 266.647 172.08C266.288 171.359 265.929 170.535 265.356 169.952C264.782 169.367 263.986 169.172 263.28 168.801ZM254.046 207.41C252.335 204.597 255.028 200.457 255.908 197.714C256.961 194.436 257.932 191.022 258.382 187.603C258.853 184.021 258.245 181.236 256.585 178.072C255.1 175.244 254.219 171.477 255.869 168.484C256.534 167.279 257.515 167.131 258.682 166.651C260.114 166.061 260.509 165.064 262.266 165.222C265.402 165.504 266.853 168.478 268.019 171.012C270.739 176.919 270 184.542 267.68 190.473C266.345 193.886 264.822 197.43 262.556 200.336C261.444 201.761 260.138 202.997 258.782 204.186C257.316 205.471 256.002 207.021 254.046 207.41Z" fill="black"/>
<path fill-rule="evenodd" clip-rule="evenodd" d="M74.975 104.853C70.841 105.684 67.0685 107.547 66.4062 112.193C65.8043 116.415 68.6804 120.322 72.2122 122.298C76.032 124.436 80.8183 124.792 84.6245 122.422C88.6312 119.927 89.5401 114.928 87.1014 111.006C84.3803 106.629 79.8217 105.337 74.975 104.853ZM77.6318 102.827C82.5547 103.549 87.1244 107.052 88.7827 111.771C90.4923 116.635 88.9214 121.982 84.3955 124.648C75.2488 130.034 63.0238 121.057 65.2314 110.739C65.7919 108.12 67.3836 106.091 69.5461 104.557C71.9335 102.863 74.8204 102.817 77.6318 102.827Z" fill="black"/>
<path fill-rule="evenodd" clip-rule="evenodd" d="M252.66 53.432C246.729 50.75 240.797 48.0681 234.865 45.3861C234.622 48.0749 234.378 50.7634 234.135 53.4522C234.069 54.1798 233.8 55.1696 233.914 55.8875C234.037 56.6536 233.775 56.5718 234.774 56.463C236.051 56.3233 237.333 56.0079 238.597 55.7824C240.869 55.3767 243.286 55.261 245.511 54.6644C246.646 54.3599 247.733 54.3216 248.885 54.1375C250.151 53.9353 251.382 53.5608 252.66 53.432ZM232.595 58.6298C232.595 55.601 232.931 52.613 233.209 49.5982C233.458 46.8857 233.554 44.3002 234.439 41.7159C235.267 43.218 237.557 43.8183 238.974 44.5913C240.927 45.6564 243.007 46.4406 245.006 47.4108C246.969 48.3636 248.86 49.4576 250.826 50.4082C251.822 50.8903 252.834 51.3401 253.829 51.826C254.452 52.1302 255.929 52.6198 256.316 53.1847C257.492 54.8993 253.467 55.0651 252.69 55.2162C250.36 55.6707 248.002 55.9267 245.677 56.3939C243.508 56.83 241.336 57.2347 239.16 57.6301C237.006 58.0214 234.787 58.6298 232.595 58.6298Z" fill="black"/>
<path fill-rule="evenodd" clip-rule="evenodd" d="M49.697 133.611C52.0324 133.368 54.3582 133.018 56.6912 132.787C58.9004 132.569 60.8544 132.336 62.8726 131.324C60.1163 130.493 57.3538 129.706 54.5741 128.955C53.1955 128.583 51.8197 128.188 50.4348 127.841C49.3635 127.571 48.4297 127.416 48.0179 126.247C47.5385 124.886 48.8714 125.092 49.7023 125.438C50.8482 125.915 52.0965 126.211 53.2842 126.608C55.935 127.493 58.602 128.307 61.2778 129.112C62.1096 129.362 66.9291 130.287 65.1925 131.895C64.4494 132.583 62.7911 132.961 61.8825 133.455C60.717 134.089 59.4481 134.342 58.1516 134.594C55.4494 135.12 52.6452 135.322 49.9098 135.778C48.5128 136.011 47.1161 136.244 45.7195 136.477C44.9011 136.613 44.586 136.599 44.3723 135.687C44.2167 135.024 44.4195 134.36 44.5688 133.718C44.9477 132.086 45.3692 130.462 45.7863 128.839C45.945 128.22 46.2259 125.499 46.778 125.202C48.0306 124.526 47.0642 128.294 46.9712 128.755C46.6197 130.495 46.2022 132.223 46.0143 133.989C47.2446 133.877 48.4714 133.762 49.697 133.611Z" fill="black"/>
<path fill-rule="evenodd" clip-rule="evenodd" d="M82.8119 147.464C83.2754 148.628 82.5058 148.888 81.572 149.291C80.3607 149.814 79.1694 150.366 77.936 150.837C75.3414 151.827 72.7282 152.747 70.1956 153.892C65.3651 156.077 60.4693 158.175 55.7138 160.514C54.5321 161.095 53.3494 161.674 52.1571 162.234C50.9241 162.814 49.51 163.788 48.1908 164.119C47.0402 164.408 46.9201 163.588 47.602 162.834C48.481 161.86 49.84 161.134 50.944 160.457C55.4874 157.672 60.446 155.405 65.4083 153.489C71.144 151.275 76.8952 149.15 82.8119 147.464Z" fill="black"/>
<path fill-rule="evenodd" clip-rule="evenodd" d="M95.4239 81.4487C95.2577 77.9107 95.7309 74.363 95.4487 70.8344C90.5974 75.1351 92.9876 81.7815 95.7785 86.4481L95.4239 81.4487ZM97.5238 81.2465C97.5546 82.9748 97.6526 84.7021 97.4846 86.4216C97.3083 88.2267 98.155 89.1565 99.2586 90.4859C98.3214 91.4372 96.1707 89.2193 95.5769 88.5655C94.3541 87.2192 93.4443 85.4306 92.6346 83.814C90.91 80.3702 89.7224 76.6832 91.1026 72.9023C91.6143 71.501 92.2401 69.5957 93.5948 68.7798C95.0823 67.8839 96.2202 69.1475 96.8373 70.4471C98.3441 73.618 97.1953 77.8429 97.5238 81.2465Z" fill="black"/>
<path fill-rule="evenodd" clip-rule="evenodd" d="M148.917 257.114C151.154 257.291 153.358 257.466 155.595 257.607C155.209 254.541 154.822 251.474 154.436 248.408C153.142 248.707 151.848 249.007 150.553 249.306C149.942 249.448 149.003 249.485 148.462 249.791C148.259 249.837 148.056 249.884 147.854 249.931C147.849 250.329 147.844 250.727 147.84 251.125C147.825 252.303 147.791 253.479 147.742 254.656C147.722 255.149 147.55 255.871 147.668 256.359C147.458 256.853 147.592 257.063 148.068 256.989C148.351 257.031 148.634 257.072 148.917 257.114ZM147.377 259.331C145.624 258.458 146.103 255.79 146.106 254.092C146.108 253.012 146.184 251.938 146.213 250.86C146.232 250.118 146.063 249.2 146.318 248.484C146.772 247.21 148.992 247.244 150.134 247.333C150.981 247.399 151.689 247.357 152.557 247.301C152.985 247.274 153.462 247.355 153.882 247.229C153.973 247.202 154.828 246.605 154.79 246.604C156.324 246.662 156.345 250.34 156.444 251.273C156.69 253.574 156.913 255.878 157.113 258.183C157.167 258.793 157.393 259.483 156.814 259.831C156.291 260.145 154.906 259.834 154.328 259.817C151.998 259.746 149.682 259.383 147.377 259.331Z" fill="black"/>
<path fill-rule="evenodd" clip-rule="evenodd" d="M256.834 122.677C257.848 123.589 257.361 124.531 257.029 125.67C256.829 126.354 255.733 128.6 256.035 129.24C256.385 129.98 258.028 130.162 258.731 130.395C259.955 130.802 261.184 131.211 262.342 131.785C262.856 132.039 264.709 132.625 265.057 133.1C265.256 133.373 265.328 133.586 265.179 133.937C264.916 134.554 264.541 134.227 263.901 134.095C260.974 133.49 258.072 132.717 255.358 131.442C254.601 133.198 253.96 134.992 253.32 136.795C253.132 137.323 252.953 138.523 252.241 138.608C251.371 138.712 251.36 137.548 251.417 136.92C251.501 136.003 251.977 135.026 252.264 134.157C252.5 133.441 253.33 131.948 253.228 131.21C253.158 130.702 252.848 130.737 252.296 130.538C251.775 130.349 251.253 130.161 250.731 129.971C249.895 129.665 249.063 129.358 248.25 128.996C247.803 128.797 246.869 128.564 246.546 128.151C246.358 127.911 246.149 127.048 246.386 126.809C246.939 126.25 250.62 127.756 251.377 127.961C251.879 128.098 252.383 128.202 252.87 128.381C253.055 128.449 253.273 128.725 253.473 128.736C254.319 128.778 254.387 128.127 254.649 127.429C255.259 125.806 255.921 124.151 256.834 122.677Z" fill="black"/>
<path fill-rule="evenodd" clip-rule="evenodd" d="M45.8165 154.964C45.3651 153.857 50.1558 152.521 51.0451 152.148C53.2157 151.239 55.5412 150.69 57.7886 149.996C59.9987 149.313 62.1991 148.578 64.3728 147.789C65.045 147.544 69.8858 145.187 70.139 145.532C70.9779 146.672 60.8199 150.254 59.8301 150.611C55.2338 152.266 50.488 153.536 45.8165 154.964Z" fill="black"/>
<path fill-rule="evenodd" clip-rule="evenodd" d="M251.863 68.437C250.621 68.4495 248.83 68.8016 247.69 68.2977C249.081 68.344 250.472 68.3907 251.863 68.437Z" fill="black"/>
<path fill-rule="evenodd" clip-rule="evenodd" d="M77.6318 102.827L74.8705 102.817C75.7918 102.604 76.7126 102.475 77.6318 102.827Z" fill="black"/>
<path fill-rule="evenodd" clip-rule="evenodd" d="M221.427 102.09C222.078 102.086 222.73 102.083 223.376 102.079C222.724 102.083 222.075 102.086 221.427 102.09Z" fill="black"/>
<path fill-rule="evenodd" clip-rule="evenodd" d="M278.354 118.955C278.349 119.652 278.345 120.348 278.339 121.042C278.343 120.344 278.349 119.65 278.354 118.955Z" fill="black"/>
<path fill-rule="evenodd" clip-rule="evenodd" d="M150.135 247.333C149.443 247.384 148.752 247.433 148.061 247.483C148.752 247.433 149.443 247.383 150.135 247.333Z" fill="black"/>
<path fill-rule="evenodd" clip-rule="evenodd" d="M154.031 114.594C153.329 114.651 152.626 114.708 151.925 114.765C152.627 114.708 153.329 114.651 154.031 114.594Z" fill="black"/>
<path fill-rule="evenodd" clip-rule="evenodd" d="M226.703 101.861C227.2 101.86 227.697 101.859 228.19 101.858C227.692 101.859 227.197 101.86 226.703 101.861Z" fill="black"/>
<path fill-rule="evenodd" clip-rule="evenodd" d="M126.71 115.953C126.092 116.009 125.474 116.064 124.857 116.12C125.475 116.064 126.092 116.009 126.71 115.953Z" fill="black"/>
<path fill-rule="evenodd" clip-rule="evenodd" d="M153.988 71.8683C153.37 71.8721 152.753 71.8758 152.135 71.8795C152.751 71.5529 153.369 71.6372 153.988 71.8683Z" fill="black"/>
<path fill-rule="evenodd" clip-rule="evenodd" d="M41.238 178.702C40.7241 178.675 40.3054 178.924 40.0155 178.434C40.4899 178.064 40.7636 178.49 41.238 178.702Z" fill="black"/>
<path fill-rule="evenodd" clip-rule="evenodd" d="M136.542 137.451L134.939 137.27L136.542 137.451Z" fill="black"/>
<path fill-rule="evenodd" clip-rule="evenodd" d="M147.377 259.331C147.732 259.339 148.086 259.347 148.436 259.355C148.08 259.347 147.729 259.339 147.377 259.331Z" fill="black"/>
<path fill-rule="evenodd" clip-rule="evenodd" d="M229.677 69.4455C229.125 69.4949 228.573 69.5444 228.021 69.5938C228.573 69.5441 229.125 69.4949 229.677 69.4455Z" fill="black"/>
<path fill-rule="evenodd" clip-rule="evenodd" d="M54.706 236.933C54.1756 236.936 53.6456 236.938 53.1155 236.94C53.6459 236.938 54.1759 236.936 54.706 236.933Z" fill="black"/>
<path fill-rule="evenodd" clip-rule="evenodd" d="M12.0783 227.533C11.5429 227.534 11.0079 227.535 10.4729 227.536C11.0082 227.535 11.5429 227.534 12.0783 227.533Z" fill="black"/>
<path fill-rule="evenodd" clip-rule="evenodd" d="M147.336 115.036C146.792 115.089 146.249 115.142 145.705 115.196C146.249 115.142 146.792 115.089 147.336 115.036Z" fill="black"/>
<path fill-rule="evenodd" clip-rule="evenodd" d="M132.173 115.918C131.639 115.856 131.104 115.794 130.57 115.733C131.099 115.836 131.688 115.427 132.173 115.918Z" fill="black"/>
<path fill-rule="evenodd" clip-rule="evenodd" d="M180.597 137.38C180.93 137.342 181.397 137.226 181.74 137.28C181.695 137.476 180.725 137.379 180.597 137.38Z" fill="black"/>
<path fill-rule="evenodd" clip-rule="evenodd" d="M146.681 179.322C147.039 179.329 147.398 179.336 147.753 179.342C147.393 179.336 147.037 179.329 146.681 179.322Z" fill="black"/>
<path fill-rule="evenodd" clip-rule="evenodd" d="M114.285 136.607C113.762 136.658 113.238 136.709 112.714 136.759C113.238 136.708 113.762 136.658 114.285 136.607Z" fill="black"/>
<path fill-rule="evenodd" clip-rule="evenodd" d="M55.6392 134.822C55.9247 134.83 56.2103 134.838 56.4921 134.845C56.2053 134.838 55.9222 134.83 55.6392 134.822Z" fill="black"/>
<path fill-rule="evenodd" clip-rule="evenodd" d="M132.835 137.002C132.388 136.993 131.939 136.984 131.492 136.975C131.94 136.984 132.388 136.993 132.835 137.002Z" fill="black"/>
<path fill-rule="evenodd" clip-rule="evenodd" d="M49.6969 133.611C49.244 133.667 48.7911 133.722 48.3388 133.778C48.7921 133.722 49.2443 133.666 49.6969 133.611Z" fill="black"/>
<path fill-rule="evenodd" clip-rule="evenodd" d="M111.824 129.763C112.103 129.775 112.383 129.786 112.659 129.798C112.378 129.787 112.101 129.775 111.824 129.763Z" fill="black"/>
<path fill-rule="evenodd" clip-rule="evenodd" d="M133.162 176.805C133.446 176.786 133.729 176.768 134.01 176.749C133.725 176.767 133.443 176.786 133.162 176.805Z" fill="black"/>
<path fill-rule="evenodd" clip-rule="evenodd" d="M154.887 139.969C154.43 139.912 153.973 139.855 153.517 139.798C153.974 139.855 154.43 139.912 154.887 139.969Z" fill="black"/>
<path fill-rule="evenodd" clip-rule="evenodd" d="M44.6718 210.491C44.9682 210.487 45.2646 210.484 45.5577 210.479C45.2603 210.483 44.9657 210.487 44.6718 210.491Z" fill="black"/>
<path fill-rule="evenodd" clip-rule="evenodd" d="M20.3323 173.656C19.8601 173.608 19.3879 173.56 18.9154 173.513C19.3876 173.56 19.8598 173.608 20.3323 173.656Z" fill="black"/>
<path fill-rule="evenodd" clip-rule="evenodd" d="M10.2569 227.598C9.79278 227.651 9.32867 227.705 8.86426 227.758C9.32898 227.705 9.79278 227.651 10.2569 227.598Z" fill="black"/>
<path fill-rule="evenodd" clip-rule="evenodd" d="M263.256 102.014C263.22 102.415 263.183 102.817 263.146 103.216C263.182 102.815 263.219 102.415 263.256 102.014Z" fill="black"/>
<path fill-rule="evenodd" clip-rule="evenodd" d="M57.4797 236.532C57.0128 236.586 56.5459 236.64 56.0793 236.693C56.5462 236.639 57.0131 236.586 57.4797 236.532Z" fill="black"/>
<path fill-rule="evenodd" clip-rule="evenodd" d="M52.899 236.995C52.4265 237.325 51.9543 237.344 51.4815 236.997C51.954 236.996 52.4265 236.996 52.899 236.995Z" fill="black"/>
<path fill-rule="evenodd" clip-rule="evenodd" d="M43.9405 237.39C43.4823 237.39 43.0244 237.391 42.5665 237.391C43.0247 237.391 43.4826 237.39 43.9405 237.39Z" fill="black"/>
<path fill-rule="evenodd" clip-rule="evenodd" d="M97.5238 81.2465C97.4846 80.8399 97.4454 80.4337 97.4062 80.0287C97.4454 80.4359 97.4846 80.8412 97.5238 81.2465Z" fill="black"/>
<path fill-rule="evenodd" clip-rule="evenodd" d="M147.56 72.1682C147.1 72.2251 146.639 72.2817 146.179 72.3383C146.64 72.2817 147.1 72.2251 147.56 72.1682Z" fill="black"/>
<path fill-rule="evenodd" clip-rule="evenodd" d="M149.192 71.9529C148.724 72.0052 148.256 72.0578 147.788 72.1103C148.256 72.0578 148.724 72.0052 149.192 71.9529Z" fill="black"/>
<path fill-rule="evenodd" clip-rule="evenodd" d="M76.5281 126.126C76.8162 126.121 77.1042 126.117 77.3882 126.113C77.0989 126.117 76.8137 126.121 76.5281 126.126Z" fill="black"/>
<path fill-rule="evenodd" clip-rule="evenodd" d="M118.209 121.623C119.737 121.371 121.265 121.287 122.792 121.622L118.209 121.623Z" fill="black"/>
<path fill-rule="evenodd" clip-rule="evenodd" d="M158.954 104.438C159.272 103.607 159.351 103.296 160.128 102.866C159.804 103.673 159.754 104.105 158.954 104.438Z" fill="black"/>
<path fill-rule="evenodd" clip-rule="evenodd" d="M196.209 186.633C196.24 187.496 196.27 188.36 196.301 189.222C196.27 188.358 196.24 187.496 196.209 186.633Z" fill="black"/>
<path fill-rule="evenodd" clip-rule="evenodd" d="M251.613 70.4315C250.921 70.4471 250.23 70.463 249.542 70.4785C250.235 70.463 250.924 70.4471 251.613 70.4315Z" fill="black"/>
<path fill-rule="evenodd" clip-rule="evenodd" d="M159.546 201.98C159.57 202.7 159.594 203.42 159.618 204.139C159.594 203.419 159.57 202.7 159.546 201.98Z" fill="black"/>
<path fill-rule="evenodd" clip-rule="evenodd" d="M74.8562 178.917C75.5542 178.922 76.2526 178.927 76.9506 178.932C76.2522 178.927 75.5542 178.922 74.8562 178.917Z" fill="black"/>
<path fill-rule="evenodd" clip-rule="evenodd" d="M134.197 141.94C133.776 141.944 133.356 141.948 132.939 141.953C133.361 141.949 133.779 141.945 134.197 141.94Z" fill="black"/>
<path fill-rule="evenodd" clip-rule="evenodd" d="M132.826 119.057C132.481 119.046 132.134 119.034 131.792 119.023C132.14 119.035 132.483 119.046 132.826 119.057Z" fill="black"/>
<path fill-rule="evenodd" clip-rule="evenodd" d="M83.3571 178.699C83.9031 178.646 84.4487 178.592 84.9946 178.539C84.4487 178.592 83.9031 178.646 83.3571 178.699Z" fill="black"/>
<path fill-rule="evenodd" clip-rule="evenodd" d="M71.4638 178.944C71.9985 178.936 72.5332 178.928 73.0676 178.919C72.5332 178.928 71.9985 178.936 71.4638 178.944Z" fill="black"/>
<path fill-rule="evenodd" clip-rule="evenodd" d="M77.1724 178.931C77.7261 178.882 78.2797 178.834 78.8337 178.786C78.2801 178.834 77.7261 178.882 77.1724 178.931Z" fill="black"/>
<path fill-rule="evenodd" clip-rule="evenodd" d="M79.1914 179.808C78.9161 179.807 78.6408 179.805 78.3693 179.803C78.6458 179.805 78.9186 179.807 79.1914 179.808Z" fill="black"/>
<path fill-rule="evenodd" clip-rule="evenodd" d="M195.967 167.437C196.009 167.031 196.05 166.625 196.091 166.221C196.05 166.627 196.009 167.032 195.967 167.437Z" fill="black"/>
<path fill-rule="evenodd" clip-rule="evenodd" d="M113.296 126.417C113.644 126.447 113.991 126.476 114.339 126.506C113.951 126.526 113.563 126.546 113.175 126.566C113.177 126.486 113.218 126.436 113.296 126.417Z" fill="black"/>
<path fill-rule="evenodd" clip-rule="evenodd" d="M202.516 194.669C202.494 194.3 202.472 193.93 202.45 193.563C202.472 193.933 202.494 194.301 202.516 194.669Z" fill="black"/>
<path fill-rule="evenodd" clip-rule="evenodd" d="M119.53 125.007C119.251 125.013 118.972 125.018 118.697 125.023C118.977 125.018 119.253 125.012 119.53 125.007Z" fill="black"/>
<path fill-rule="evenodd" clip-rule="evenodd" d="M221.585 171.656C222.05 171.71 222.515 171.765 222.979 171.819C222.515 171.765 222.05 171.71 221.585 171.656Z" fill="black"/>
<path fill-rule="evenodd" clip-rule="evenodd" d="M125.066 141.036C124.78 141.041 124.494 141.045 124.212 141.05C124.499 141.046 124.783 141.041 125.066 141.036Z" fill="black"/>
<path fill-rule="evenodd" clip-rule="evenodd" d="M108.527 85.1006C108.827 85.2608 108.671 85.965 108.379 85.8978C108.428 85.6318 108.478 85.3662 108.527 85.1006Z" fill="black"/>
<path fill-rule="evenodd" clip-rule="evenodd" d="M263.28 168.801C263.004 168.794 262.728 168.787 262.456 168.779C262.733 168.787 263.006 168.794 263.28 168.801Z" fill="black"/>
<path fill-rule="evenodd" clip-rule="evenodd" d="M95.4239 81.4487C95.3946 80.8281 95.3657 80.2079 95.3368 79.5892C95.3657 80.2104 95.3949 80.8294 95.4239 81.4487Z" fill="black"/>
<path fill-rule="evenodd" clip-rule="evenodd" d="M147.644 256.927C148.069 256.989 148.493 257.052 148.918 257.114C148.493 257.052 148.068 256.989 147.644 256.927Z" fill="black"/>
<path fill-rule="evenodd" clip-rule="evenodd" d="M144.836 97.1709C143.338 97.4792 141.8 97.6403 140.337 98.0942C139.972 98.2074 138.775 98.9029 138.338 98.7197C137.674 98.4407 138.01 97.7249 138.289 97.343C139.038 96.3214 140.377 95.7491 141.604 95.7618C142.83 95.7749 144.512 95.7301 144.836 97.1709Z" fill="black"/>
<path fill-rule="evenodd" clip-rule="evenodd" d="M140.674 99.9117C142.324 101.066 143.584 101.635 143.723 99.0401C145.511 99.2837 144.71 102.162 143.357 102.379C141.885 102.615 140.903 101.145 140.674 99.9117Z" fill="black"/>
</svg>
